<?xml version="1.0" encoding="UTF-8" standalone="no"?>
<svg width="30px" height="24px" viewBox="0 0 30 24" version="1.1" xmlns="http://www.w3.org/2000/svg" xmlns:xlink="http://www.w3.org/1999/xlink" xmlns:sketch="http://www.bohemiancoding.com/sketch/ns">
    <title>Untitled</title>
    <description>Created with Sketch (http://www.bohemiancoding.com/sketch)</description>
    <defs></defs>
    <g id="Page-1" stroke="none" stroke-width="1" fill="none" fill-rule="evenodd" sketch:type="MSPage">
        <g id="dpp_taiwan_flag" sketch:type="MSLayerGroup" transform="translate(-1.000000, 0.000000)" fill="#1AAE48">
            <path d="M15.986,0 L31,0 L31,23.9513793 L15.986,23.9513793 L15.986,23.5246552 L30.587,23.5246552 L30.587,0.426724138 L15.986,0.426724138 L15.986,0 L15.986,0 Z M1,0.000517241379 L15.986,0.000517241379 L15.986,0.427241379 L1.412,0.427241379 L1.412,23.5251724 L15.986,23.5251724 L15.986,23.9518966 L1,23.952931 L1,0.00155172414 L1,0.000517241379 Z" id="Shape" sketch:type="MSShapeGroup"></path>
            <path d="M0,7.33903448 L9.44469333,7.33903448 L9.44469333,0 L0,0 L0,7.33903448 L0,7.33903448 Z" id="Shape" sketch:type="MSShapeGroup"></path>
            <path d="M10.5297067,0 L10.089952,0 L10.089952,7.96489655 L-7.46666667e-05,7.96489655 L-7.46666667e-05,8.39162069 L10.529632,8.39162069 L10.529632,0 L10.5297067,0 Z" id="Shape" sketch:type="MSShapeGroup"></path>
            <path d="M22.5557333,7.33903448 L32,7.33903448 L32,0 L22.5553067,0 L22.5553067,7.33903448 L22.5557333,7.33903448 Z" id="Shape" sketch:type="MSShapeGroup"></path>
            <path d="M21.4410667,0 L21.880864,0 L21.880864,7.96489655 L32.000224,7.96489655 L32.000224,8.39162069 L21.4410773,8.39162069 L21.4410773,0 L21.4410667,0 Z" id="Shape" sketch:type="MSShapeGroup"></path>
            <path d="M22.5557333,23.9513793 L32.0004267,23.9513793 L32.0004267,16.6128621 L22.5557333,16.6128621 L22.5557333,23.9513793 L22.5557333,23.9513793 Z" id="Shape" sketch:type="MSShapeGroup"></path>
            <path d="M21.4410667,23.9513793 L21.880864,23.9513793 L21.880864,15.9871034 L32.000224,15.9871034 L32.000224,15.5603793 L21.4410773,15.5603793 L21.4410773,23.9513793 L21.4410667,23.9513793 Z" id="Shape" sketch:type="MSShapeGroup"></path>
            <path d="M0,23.9513793 L9.44469333,23.9513793 L9.44469333,16.6128621 L0,16.6128621 L0,23.9513793 L0,23.9513793 Z" id="Shape" sketch:type="MSShapeGroup"></path>
            <path d="M10.5297067,23.9513793 L10.089952,23.9513793 L10.089952,15.9871034 L-7.46666667e-05,15.9871034 L-7.46666667e-05,15.5603793 L10.529632,15.5603793 L10.529632,23.9513793 L10.5297067,23.9513793 Z" id="Shape" sketch:type="MSShapeGroup"></path>
            <path d="M19.1530667,1.93448276 C18.9770453,1.62158276 18.4785813,1.59302069 18.0386133,1.7354069 L17.4227947,2.5032 L16.4546773,2.95844483 L15.633376,3.47043103 C15.2228267,4.23857586 15.0175573,5.23401724 14.372256,5.91687931 C14.0790293,6.00213724 13.8443413,6.4002931 13.6682773,7.11139655 C13.5801653,7.99336552 12.8764267,8.90353448 12.1722773,9.87077586 L11.4390933,10.7527552 L11.1751147,12.7153759 C11.2043488,13.5117 11.1751147,14.3083759 11.057952,15.1332724 L12.0551147,16.4701345 L12.5830293,17.8922379 L14.0495893,19.3426862 L14.7827733,20.5664793 L14.6948629,21.0781034 L14.9295509,21.6467793 L15.9853696,21.7895586 L16.1319829,21.5619103 L15.8385963,20.3952207 C15.6921856,19.3149103 16.0148203,18.8310828 16.2201003,18.1483241 C16.3667136,17.7216414 16.3959189,17.380169 16.6012416,17.1810931 C17.3345856,16.2995172 17.9799083,15.3608172 18.3024683,14.3083345 C18.6251029,13.9097793 18.8890816,13.2273 19.1237696,12.2886103 C19.2117184,11.4066414 19.4464043,10.4964724 19.7982869,9.61447241 C19.6516736,9.15957931 19.5637589,8.67576207 19.6222656,8.22092069 L20.5609323,5.94536897 C20.5609323,5.74593103 20.4728203,5.34776897 20.3264149,4.80723103 C20.2969547,4.66523793 20.2675488,4.40906897 20.2090496,4.2099931 L20.8543189,3.32837586 L20.5316843,2.5887931 C19.7982976,2.50314103 19.3290176,2.36114483 19.1530176,1.93442069 L19.1530667,1.93448276 Z" id="Shape" sketch:type="MSShapeGroup"></path>
        </g>
    </g>
</svg>