<?xml version="1.0" encoding="UTF-8" standalone="no"?>
<svg width="160px" height="70px" viewBox="0 0 160 70" version="1.1" xmlns="http://www.w3.org/2000/svg" xmlns:xlink="http://www.w3.org/1999/xlink" xmlns:sketch="http://www.bohemiancoding.com/sketch/ns">
    <title>fire-livenow</title>
    <description>Created with Sketch (http://www.bohemiancoding.com/sketch)</description>
    <defs>
        <linearGradient x1="50%" y1="0%" x2="50%" y2="100%" id="linearGradient-1">
            <stop stop-color="#EE0F0F" offset="0%"></stop>
            <stop stop-color="#780000" offset="100%"></stop>
        </linearGradient>
        <filter x="-20%" y="-20%" width="140%" height="140%" filterUnits="objectBoundingBox" id="filter-2">
            <feOffset dx="5" dy="5" in="SourceAlpha" result="shadowOffsetInner1"></feOffset>
            <feGaussianBlur stdDeviation="5" in="shadowOffsetInner1" result="shadowBlurInner1"></feGaussianBlur>
            <feComposite in="shadowBlurInner1" in2="SourceAlpha" operator="arithmetic" k2="-1" k3="1" result="shadowInnerInner1"></feComposite>
            <feColorMatrix values="0 0 0 0 1   0 0 0 0 0   0 0 0 0 0  0 0 0 0.7 0" in="shadowInnerInner1" type="matrix" result="shadowMatrixInner1"></feColorMatrix>
            <feMerge>
                <feMergeNode in="SourceGraphic"></feMergeNode>
                <feMergeNode in="shadowMatrixInner1"></feMergeNode>
            </feMerge>
        </filter>
        <linearGradient x1="50%" y1="0%" x2="50%" y2="100%" id="linearGradient-3">
            <stop stop-color="#FFD900" offset="0%"></stop>
            <stop stop-color="#EB831D" offset="100%"></stop>
        </linearGradient>
        <linearGradient x1="50%" y1="5.08236561%" x2="50%" y2="100%" id="linearGradient-4">
            <stop stop-color="#FF1818" stop-opacity="0" offset="0%"></stop>
            <stop stop-color="#FFFFFF" stop-opacity="0.123448989" offset="77.6084169%"></stop>
            <stop stop-color="#FF0000" stop-opacity="0.129365809" offset="100%"></stop>
        </linearGradient>
        <filter x="-20%" y="-20%" width="140%" height="140%" filterUnits="objectBoundingBox" id="filter-5">
            <feOffset dx="0" dy="1" in="SourceAlpha" result="shadowOffsetInner1"></feOffset>
            <feGaussianBlur stdDeviation="1.5" in="shadowOffsetInner1" result="shadowBlurInner1"></feGaussianBlur>
            <feComposite in="shadowBlurInner1" in2="SourceAlpha" operator="arithmetic" k2="-1" k3="1" result="shadowInnerInner1"></feComposite>
            <feColorMatrix values="0 0 0 0 1   0 0 0 0 0.197150735   0 0 0 0 0  0 0 0 0.7 0" in="shadowInnerInner1" type="matrix" result="shadowMatrixInner1"></feColorMatrix>
            <feMerge>
                <feMergeNode in="SourceGraphic"></feMergeNode>
                <feMergeNode in="shadowMatrixInner1"></feMergeNode>
            </feMerge>
        </filter>
        <path id="path-6" d="M14.947379,59.6992188 L121.716352,59.6992188 C128.270416,59.6992188 134.744764,57.7988281 134.744764,47.6162109 C134.744763,37.4335938 117.873797,23.296875 117.873797,23.296875 C117.873797,23.296875 125.58548,32.8359375 120.111629,32.8359375 C114.637778,32.8359375 105.778296,18.2109375 107.2646,12.5576172 C102.006215,20.6333008 100.031793,25.1806641 101.380615,30.2226562 C98.1302708,27.56875 97.3957276,26.2658218 98.187343,22.8474617 C96.6498606,25.5128922 95.7087116,28.0506523 97.2619411,31.4335937 C94.8646763,28.6492188 87.8461776,13.9765626 81.178894,6.80175781 C83.6685835,19.2744141 85.4801072,28.1025391 77.9451861,33.3671875 C75.2359881,26.1347656 77.7926854,23.9101563 77.7926854,23.9101563 C77.7926854,23.9101563 71.6071644,31.4482422 71.6071647,33.3671875 C71.6071647,35.2861328 59.7525464,11.9521485 71.6071647,-0.3984375 C47.6934378,13.0908203 50.6891523,28.1240234 50.6891523,31.1816406 C50.2975028,29.7029297 50.9271463,22.7675781 45.1378959,18.0800781 C48.7609427,24.2714844 41.5887887,31.2695313 41.5887887,31.2695313 C41.5887887,31.2695313 34.3299866,19.2246094 41.5887887,7.87207031 C28.0347116,20.8671875 27.6638576,33.3486328 27.6638576,33.3486328 C27.6638576,33.3486328 26.5455195,25.5664062 23.6584037,21.1337891 C25.5473328,26.4472656 19.7395979,31.2695313 19.7395979,31.2695313 C19.7395979,31.2695313 12.4900385,20.9804688 17.1632603,13.8525391 C7.27151053,27.0019531 -0.331572353,39.1503906 -0.33157349,47.6162109 C-0.331574152,56.0820313 5.88398524,59.6992188 14.947379,59.6992188 Z"></path>
        <linearGradient x1="50%" y1="0%" x2="50%" y2="100%" id="linearGradient-7">
            <stop stop-color="#FFFFFF" offset="0%"></stop>
            <stop stop-color="#FFF5D0" offset="100%"></stop>
        </linearGradient>
    </defs>
    <g id="Page-1" stroke="none" stroke-width="1" fill="none" fill-rule="evenodd" sketch:type="MSPage">
        <g id="fire2-+-fire-+-Live-Now!" sketch:type="MSLayerGroup" transform="translate(5.000000, 4.000000)">
            <g id="fire2-+-fire" transform="translate(7.437500, -0.401379)">
                <path d="M14.947379,59.6992188 L121.716352,59.6992188 C128.270416,59.6992188 134.744764,57.7988281 134.744764,47.6162109 C134.744763,37.4335938 117.873797,23.296875 117.873797,23.296875 C117.873797,23.296875 120.878126,33.3486324 115.986594,33.3486324 C105.609741,27.2010973 105.447562,22.8751097 107.2646,12.5576172 C103.279942,19.7749023 101.996972,26.6557617 101.380615,30.2226562 C98.1302708,27.56875 97.3957276,26.2658218 98.187343,22.8474617 C96.6498606,25.5128922 95.7087116,28.0506523 97.2619411,31.4335937 C94.8646763,28.6492188 87.8461776,13.9765626 81.178894,6.80175781 C83.6685835,19.2744141 80.9455654,30.0876134 73.4106442,35.3522618 C70.7014462,28.1198399 76.217127,29.3505859 76.2171273,31.2695313 C76.2171273,33.1884766 64.4626351,12.4738165 71.6071647,-0.3984375 C47.6934378,13.0908203 50.6891523,28.1240234 50.6891523,31.1816406 C50.2975028,29.7029297 50.9271463,22.7675781 45.1378959,18.0800781 C48.7609427,24.2714844 48.5804473,31.5939062 47.4485277,28.3382587 C46.3166084,25.0826113 38.3137299,20.1117342 41.5887887,7.87207031 C28.0347116,20.8671875 27.6638576,33.3486328 27.6638576,33.3486328 C27.6638576,33.3486328 26.5455195,25.5664062 23.6584037,21.1337891 C25.5473328,26.4472656 26.7682778,30.2226563 26.7682778,30.2226563 C26.7682778,30.2226563 15.8986438,24.0490022 17.1632603,13.8525391 C7.27151053,27.0019531 -0.331572353,39.1503906 -0.33157349,47.6162109 C-0.331574152,56.0820313 5.88398524,59.6992188 14.947379,59.6992188 Z" id="fire2" fill="url(#linearGradient-1)" filter="url(#filter-2)" sketch:type="MSShapeGroup"></path>
                <g id="fire" filter="url(#filter-5)">
                    <use fill="url(#linearGradient-3)" sketch:type="MSShapeGroup" xlink:href="#path-6"></use>
                    <use fill="url(#linearGradient-4)" xlink:href="#path-6"></use>
                </g>
            </g>
            <path d="M-0.34561421,61.111438 L3.02617222,26.989899 L11.3569513,26.989899 L8.41868023,56.724383 L15.67452,56.724383 L15.2410046,61.111438 L-0.34561421,61.111438 Z M19.4651477,31.9618947 L19.9564651,26.989899 L27.4272928,26.989899 L26.9359753,31.9618947 L19.4651477,31.9618947 Z M16.5846787,61.111438 L19.3158257,33.4729914 L26.7866533,33.4729914 L24.0555063,61.111438 L16.5846787,61.111438 Z M39.2658965,61.111438 L30.2364069,61.111438 L27.4853638,33.4729914 L35.0099385,33.4729914 L35.976152,49.8025851 L40.1158998,33.4729914 L47.4792336,33.4729914 L39.2658965,61.111438 Z M60.7294397,60.3802622 C59.2223217,61.1276901 57.1430289,61.5013985 54.4914989,61.5013985 C51.8399688,61.5013985 49.8377446,61.0951938 48.4847662,60.2827721 C46.861192,59.3078661 46.1537809,57.7642881 46.3625116,55.6519918 L47.9954196,39.1274179 C48.200939,37.0476184 49.1938924,35.5202886 50.9743096,34.5453826 C52.5268928,33.7004641 54.6289179,33.2780112 57.2804479,33.2780112 C59.8961465,33.2780112 61.9015819,33.6517195 63.2968143,34.3991475 C64.9984739,35.3090597 65.7465327,36.8038932 65.5410133,38.8836926 L64.5005763,49.4126247 L54.4498945,49.4126247 L53.8140719,55.846972 C53.7691145,56.3019281 53.8420871,56.6512642 54.0329917,56.8949907 C54.2238963,57.1387172 54.5343329,57.2605786 54.9643107,57.2605786 C55.3942885,57.2605786 55.7288091,57.1387172 55.9678823,56.8949907 C56.2069555,56.6512642 56.3489687,56.3019281 56.3939261,55.846972 L56.9430456,50.2900357 L64.4138732,50.2900357 L63.8599369,55.8957171 C63.6576287,57.9430197 62.6141401,59.4378531 60.7294397,60.3802622 Z M58.0653688,38.9324377 C58.1103261,38.4774815 58.0365508,38.1362696 57.8440406,37.9087915 C57.6515304,37.6813134 57.340291,37.5675761 56.9103132,37.5675761 C56.5519983,37.5675761 56.236196,37.6813134 55.9628969,37.9087915 C55.6895978,38.1362696 55.530472,38.4774815 55.4855146,38.9324377 L54.8593257,45.2692949 L57.4391799,45.2692949 L58.0653688,38.9324377 Z M77.7794392,61.111438 L73.9326887,42.9295322 L72.1360083,61.111438 L65.2563972,61.111438 L68.6281836,26.989899 L78.0339019,26.989899 L81.2270633,42.5395718 L82.7636345,26.989899 L89.6432456,26.989899 L86.2714592,61.111438 L77.7794392,61.111438 Z M103.112764,60.3802622 C101.641477,61.1276901 99.5800998,61.5013985 96.9285698,61.5013985 C94.2412083,61.5013985 92.2031531,61.0951938 90.8143432,60.2827721 C89.1549376,59.3078661 88.429611,57.7642881 88.6383417,55.6519918 L90.2712497,39.1274179 C90.4767691,37.0476184 91.5055535,35.5202886 93.3576335,34.5453826 C94.9460483,33.7004641 97.0659888,33.2780112 99.7175189,33.2780112 C102.15406,33.2780112 104.158017,33.7573328 105.729449,34.7159903 C107.300882,35.6746479 107.996673,37.0638681 107.816843,38.8836926 L106.135767,55.8957171 C105.930248,57.9755165 104.92259,59.4703499 103.112764,60.3802622 Z M100.341199,38.9324377 C100.386156,38.4774815 100.312381,38.1362696 100.119871,37.9087915 C99.9273604,37.6813134 99.6161211,37.5675761 99.1861432,37.5675761 C98.8278284,37.5675761 98.5120261,37.6813134 98.238727,37.9087915 C97.9654279,38.1362696 97.8063021,38.4774815 97.7613447,38.9324377 L96.089902,55.846972 C96.0449446,56.3019281 96.1179171,56.6512642 96.3088217,56.8949907 C96.4997264,57.1387172 96.8101629,57.2605786 97.2401408,57.2605786 C97.6701186,57.2605786 98.0046391,57.1387172 98.2437124,56.8949907 C98.4827856,56.6512642 98.6247988,56.3019281 98.6697561,55.846972 L100.341199,38.9324377 Z M132.762581,61.111438 L124.539296,61.111438 L123.345683,49.8025851 L120.078298,61.111438 L111.478784,61.111438 L108.996476,33.4729914 L116.198569,33.4729914 L117.294837,48.4864686 L121.089542,33.4729914 L128.614117,33.4729914 L129.44165,48.4864686 L133.50509,33.4729914 L140.707183,33.4729914 L132.762581,61.111438 Z M139.745362,54.6283456 L142.476509,26.989899 L149.947336,26.989899 L147.216189,54.6283456 L139.745362,54.6283456 Z M139.104722,61.111438 L139.59604,56.1394424 L147.066867,56.1394424 L146.57555,61.111438 L139.104722,61.111438 Z" id="Live-Now!" stroke="#AF0000" stroke-width="4" fill="url(#linearGradient-7)" sketch:type="MSShapeGroup"></path>
            <path d="M-0.300000012,61.1215391 L3.07178641,27 L11.4025655,27 L8.46429443,56.734484 L15.7201342,56.734484 L15.2866188,61.1215391 L-0.300000012,61.1215391 Z M19.5107619,31.9719957 L20.0020793,27 L27.472907,27 L26.9815895,31.9719957 L19.5107619,31.9719957 Z M16.6302929,61.1215391 L19.3614399,33.4830924 L26.8322675,33.4830924 L24.1011205,61.1215391 L16.6302929,61.1215391 Z M39.3115107,61.1215391 L30.2820211,61.1215391 L27.530978,33.4830924 L35.0555527,33.4830924 L36.0217662,49.8126861 L40.161514,33.4830924 L47.5248478,33.4830924 L39.3115107,61.1215391 Z M60.7750539,60.3903632 C59.2679359,61.1377911 57.1886431,61.5114995 54.5371131,61.5114995 C51.885583,61.5114995 49.8833588,61.1052948 48.5303804,60.2928731 C46.9068062,59.3179671 46.1993951,57.7743891 46.4081258,55.6620928 L48.0410338,39.1375189 C48.2465532,37.0577194 49.2395066,35.5303896 51.0199237,34.5554836 C52.572507,33.7105651 54.6745321,33.2881122 57.3260621,33.2881122 C59.9417607,33.2881122 61.947196,33.6618206 63.3424285,34.4092485 C65.0440881,35.3191607 65.7921469,36.8139942 65.5866275,38.8937936 L64.5461905,49.4227257 L54.4955087,49.4227257 L53.8596861,55.857073 C53.8147287,56.3120292 53.8877013,56.6613652 54.0786059,56.9050917 C54.2695105,57.1488182 54.5799471,57.2706796 55.0099249,57.2706796 C55.4399027,57.2706796 55.7744233,57.1488182 56.0134965,56.9050917 C56.2525697,56.6613652 56.3945829,56.3120292 56.4395403,55.857073 L56.9886598,50.3001367 L64.4594874,50.3001367 L63.9055511,55.9058181 C63.7032429,57.9531207 62.6597543,59.4479541 60.7750539,60.3903632 Z M58.110983,38.9425387 C58.1559403,38.4875825 58.082165,38.1463706 57.8896548,37.9188925 C57.6971446,37.6914144 57.3859052,37.5776771 56.9559273,37.5776771 C56.5976125,37.5776771 56.2818102,37.6914144 56.0085111,37.9188925 C55.735212,38.1463706 55.5760862,38.4875825 55.5311288,38.9425387 L54.9049399,45.2793959 L57.4847941,45.2793959 L58.110983,38.9425387 Z M77.8250534,61.1215391 L73.9783029,42.9396332 L72.1816225,61.1215391 L65.3020114,61.1215391 L68.6737978,27 L78.0795161,27 L81.2726775,42.5496728 L82.8092487,27 L89.6888598,27 L86.3170734,61.1215391 L77.8250534,61.1215391 Z M103.158378,60.3903632 C101.687091,61.1377911 99.625714,61.5114995 96.974184,61.5114995 C94.2868225,61.5114995 92.2487673,61.1052948 90.8599574,60.2928731 C89.2005518,59.3179671 88.4752252,57.7743891 88.6839559,55.6620928 L90.3168639,39.1375189 C90.5223833,37.0577194 91.5511676,35.5303896 93.4032477,34.5554836 C94.9916625,33.7105651 97.111603,33.2881122 99.7631331,33.2881122 C102.199674,33.2881122 104.203631,33.7674338 105.775063,34.7260913 C107.346496,35.6847489 108.042287,37.0739691 107.862458,38.8937936 L106.181381,55.9058181 C105.975862,57.9856175 104.968204,59.480451 103.158378,60.3903632 Z M100.386813,38.9425387 C100.43177,38.4875825 100.357995,38.1463706 100.165485,37.9188925 C99.9729746,37.6914144 99.6617353,37.5776771 99.2317574,37.5776771 C98.8734426,37.5776771 98.5576403,37.6914144 98.2843412,37.9188925 C98.0110421,38.1463706 97.8519163,38.4875825 97.8069589,38.9425387 L96.1355162,55.857073 C96.0905588,56.3120292 96.1635313,56.6613652 96.3544359,56.9050917 C96.5453406,57.1488182 96.8557771,57.2706796 97.285755,57.2706796 C97.7157328,57.2706796 98.0502533,57.1488182 98.2893266,56.9050917 C98.5283998,56.6613652 98.670413,56.3120292 98.7153703,55.857073 L100.386813,38.9425387 Z M132.808195,61.1215391 L124.58491,61.1215391 L123.391297,49.8126861 L120.123912,61.1215391 L111.524398,61.1215391 L109.04209,33.4830924 L116.244183,33.4830924 L117.340451,48.4965696 L121.135156,33.4830924 L128.659731,33.4830924 L129.487264,48.4965696 L133.550705,33.4830924 L140.752797,33.4830924 L132.808195,61.1215391 Z M139.790976,54.6384466 L142.522123,27 L149.992951,27 L147.261804,54.6384466 L139.790976,54.6384466 Z M139.150337,61.1215391 L139.641654,56.1495434 L147.112482,56.1495434 L146.621164,61.1215391 L139.150337,61.1215391 Z" id="Live-Now!" fill="url(#linearGradient-7)" sketch:type="MSShapeGroup"></path>
        </g>
    </g>
</svg>