<?xml version="1.0" encoding="UTF-8" standalone="no"?>
<svg width="48px" height="48px" viewBox="0 0 48 48" version="1.1" xmlns="http://www.w3.org/2000/svg" xmlns:xlink="http://www.w3.org/1999/xlink" xmlns:sketch="http://www.bohemiancoding.com/sketch/ns">
    <title>Untitled</title>
    <description>Created with Sketch (http://www.bohemiancoding.com/sketch)</description>
    <defs></defs>
    <g id="Page-1" stroke="none" stroke-width="1" fill="none" fill-rule="evenodd" sketch:type="MSPage">
        <g id="Path-1-+-Path-1-+-Star-1" sketch:type="MSLayerGroup" transform="translate(7.000000, 8.000000)">
            <path d="M21.0791227,26.8555292 L29.4017724,25.2595763 L31.787234,19.2513119 L28.4508789,14.5339352 L20.9751324,11.6338724 L12.4609274,14.3267879 L9.45531915,19.1528802 L11.8283198,23.7982695 L10.3664495,29 L16.013929,26.3810002 L21.0791227,26.8555292 Z" id="Path-1" fill="#333333" sketch:type="MSShapeGroup" transform="translate(20.455319, 20.133872) scale(-1, 1) translate(-20.455319, -20.133872) "></path>
            <path d="M16.4042553,23.1618426 L27.8723404,18.6046896 L32.1787234,11.1448699 L27.9446809,4.11832814 L16.2510638,-0.201321035 L4.3893617,3.80978177 L0.642553191,10.9982557 L2.77659574,17.487653 L0.157446809,28.310847 L10.1680851,21.7645546 L16.4042553,23.1618426 Z" id="Path-1" stroke="#FFFFFF" stroke-width="2" fill="#333333" sketch:type="MSShapeGroup"></path>
            <path d="M17.5430922,14.2938839 C17.5284255,13.9272173 17.5284255,13.7658839 17.5284255,13.6192173 C17.5284255,13.3992173 17.5430922,13.1058839 17.5724255,12.4898839 L17.8657589,7.84055061 C17.9097589,7.22455061 17.9977589,6.19788394 18.0417589,5.86055061 L14.6244255,5.86055061 C14.6977589,6.57921727 14.7710922,7.23921727 14.8004255,7.84055061 L15.0937589,12.4898839 C15.1524255,13.3552173 15.1524255,13.3552173 15.1524255,13.6338839 C15.1524255,13.8685506 15.1524255,14.0005506 15.1230922,14.2938839 L17.5430922,14.2938839 Z M17.8070922,18.0632173 L17.8070922,15.2912173 L14.8590922,15.2912173 L14.8590922,18.0632173 L17.8070922,18.0632173 Z" id="ï¼" fill="#FFFFFF" sketch:type="MSShapeGroup"></path>
        </g>
    </g>
</svg>