<?xml version="1.0" encoding="UTF-8" standalone="no"?>
<svg width="24px" height="24px" viewBox="0 0 24 24" version="1.1" xmlns="http://www.w3.org/2000/svg" xmlns:xlink="http://www.w3.org/1999/xlink" xmlns:sketch="http://www.bohemiancoding.com/sketch/ns">
    <title>Untitled</title>
    <description>Created with Sketch (http://www.bohemiancoding.com/sketch)</description>
    <defs></defs>
    <g id="Page-1" stroke="none" stroke-width="1" fill="none" fill-rule="evenodd" sketch:type="MSPage">
        <g id="icon_facebook" sketch:type="MSLayerGroup" fill="#333333">
            <g id="Page-1" sketch:type="MSShapeGroup">
                <rect id="Rectangle-1" x="0" y="0" width="24" height="24" rx="5"></rect>
            </g>
        </g>
        <path d="M10.2122681,13.3839743 C10.7071713,12.7182127 11,11.8933033 11,11 C11,10.9576688 10.9993424,10.9154911 10.998037,10.8734767 C11.3182478,10.9560677 11.6539934,11 12,11 C12.3460066,11 12.6817522,10.9560677 13.001963,10.8734767 C13.0006576,10.9154911 13,10.9576688 13,11 C13,11.8933033 13.2928287,12.7182127 13.7877319,13.3839743 L13.7877319,13.3839743 C13.0309227,13.7429749 12.4047587,14.332569 12,15.0619963 C11.5952413,14.332569 10.9690773,13.7429749 10.2122681,13.3839743 Z M5.28773192,14.6160257 C3.93524582,13.9744593 3,12.5964489 3,11 C3,8.79086089 4.79086089,7 7,7 C7.34600656,7 7.68175217,7.04393235 8.00196303,7.12652325 L8.00196303,7.12652325 C8.00065756,7.08450886 8,7.04233122 8,7 C8,4.79086089 9.79086089,3 12,3 C14.2091391,3 16,4.79086089 16,7 C16,7.04233122 15.9993424,7.08450886 15.998037,7.12652325 L15.998037,7.12652325 C16.3182478,7.04393235 16.6539934,7 17,7 C19.2091391,7 21,8.79086089 21,11 C21,12.5964489 20.0647542,13.9744593 18.7122681,14.6160257 C19.2071713,15.2817873 19.5,16.1066967 19.5,17 C19.5,19.2091391 17.7091391,21 15.5,21 C13.9939866,21 12.6823644,20.1677124 12,18.9380037 C11.3176356,20.1677124 10.0060134,21 8.5,21 C6.29086089,21 4.5,19.2091391 4.5,17 C4.5,16.1066967 4.79282867,15.2817873 5.28773192,14.6160257 Z" id="Oval-8" stroke="#FFFFFF" sketch:type="MSShapeGroup"></path>
        <path d="M12,18 C15.0375663,18 17.5,15.5375663 17.5,12.5 C17.5,9.46243373 15.0375663,7 12,7 C8.96243373,7 6.5,9.46243373 6.5,12.5 C6.5,15.5375663 8.96243373,18 12,18 Z" id="Path" stroke="#FFFFFF" sketch:type="MSShapeGroup"></path>
        <path d="M5.5,12.5 L18.5,12.5" id="Line" stroke="#333333" stroke-linecap="square" sketch:type="MSShapeGroup"></path>
        <path d="M12,16 C13.9329967,16 15.5,14.4329967 15.5,12.5 C15.5,10.5670033 13.9329967,9 12,9 C10.0670033,9 8.5,10.5670033 8.5,12.5 C8.5,14.4329967 10.0670033,16 12,16 Z" id="Path" stroke="#FFFFFF" fill="#333333" sketch:type="MSShapeGroup"></path>
        <path d="M12,8.5 L12,16.5" id="Line" stroke="#333333" stroke-linecap="square" sketch:type="MSShapeGroup"></path>
    </g>
</svg>