<?xml version="1.0" encoding="UTF-8" standalone="no"?>
<svg width="48px" height="48px" viewBox="0 0 48 48" version="1.1" xmlns="http://www.w3.org/2000/svg" xmlns:xlink="http://www.w3.org/1999/xlink" xmlns:sketch="http://www.bohemiancoding.com/sketch/ns">
    <title>Untitled</title>
    <description>Created with Sketch (http://www.bohemiancoding.com/sketch)</description>
    <defs></defs>
    <g id="Page-1" stroke="none" stroke-width="1" fill="none" fill-rule="evenodd" sketch:type="MSPage">
        <g id="Path-1-+-Path-1-+-Star-1" sketch:type="MSLayerGroup" transform="translate(7.000000, 8.000000)">
            <path d="M16.4042553,22.1618426 L27.8723404,17.6046896 L32.1787234,11.1448699 L27.9446809,4.11832814 L16.2510638,-0.201321035 L4.3893617,3.80978177 L0.642553191,10.9982557 L2.77659574,17.487653 L0.157446809,28.310847 L10.1680851,20.7645546 L16.4042553,22.1618426 Z" id="Path-1" fill="#333333" sketch:type="MSShapeGroup"></path>
            <path d="M17.5430922,13.2938839 C17.5284255,12.9272173 17.5284255,12.7658839 17.5284255,12.6192173 C17.5284255,12.3992173 17.5430922,12.1058839 17.5724255,11.4898839 L17.8657589,6.84055061 C17.9097589,6.22455061 17.9977589,5.19788394 18.0417589,4.86055061 L14.6244255,4.86055061 C14.6977589,5.57921727 14.7710922,6.23921727 14.8004255,6.84055061 L15.0937589,11.4898839 C15.1524255,12.3552173 15.1524255,12.3552173 15.1524255,12.6338839 C15.1524255,12.8685506 15.1524255,13.0005506 15.1230922,13.2938839 L17.5430922,13.2938839 Z M17.8070922,17.0632173 L17.8070922,14.2912173 L14.8590922,14.2912173 L14.8590922,17.0632173 L17.8070922,17.0632173 Z" id="ï¼" fill="#FFFFFF" sketch:type="MSShapeGroup"></path>
        </g>
        <path d="M17.5524611,30.8506786 L18.5088659,33.2595763 L26.8315156,34.8555292 L31.8967093,34.3810002 L37.5441888,37 L36.0823185,31.7982695 L38.4553191,27.1528802 L37.2502116,25.2178442 L35.8723404,27.6046896 L23.4042553,32.1618426 L17.5524611,30.8506786 Z" id="Path-1" fill="#333333" sketch:type="MSShapeGroup"></path>
    </g>
</svg>