<?xml version="1.0" encoding="UTF-8" standalone="no"?>
<svg width="30px" height="24px" viewBox="0 0 30 24" version="1.1" xmlns="http://www.w3.org/2000/svg" xmlns:xlink="http://www.w3.org/1999/xlink" xmlns:sketch="http://www.bohemiancoding.com/sketch/ns">
    <title>Untitled</title>
    <description>Created with Sketch (http://www.bohemiancoding.com/sketch)</description>
    <defs></defs>
    <g id="Page-1" stroke="none" stroke-width="1" fill="none" fill-rule="evenodd" sketch:type="MSPage">
        <g id="900px-Naval_Jack_of_the_Republic_of_China" sketch:type="MSLayerGroup" transform="translate(-5.000000, 0.000000)">
            <rect id="Rectangle" fill="#000095" sketch:type="MSShapeGroup" x="0" y="0.273615635" width="40" height="24"></rect>
            <path d="M22.4,12 L20,20.7947883 L17.6,12 L20,3.20521173 L22.4,12 Z M20,14.3452769 L29,12 L20,9.65472313 L11,12 L20,14.3452769 Z" id="four_rays" fill="#FFFFFF" sketch:type="MSShapeGroup"></path>
            <g id="Group" transform="translate(20.000000, 12.000000) rotate(30.000000) translate(-20.000000, -12.000000) translate(11.000000, 3.205212)" fill="#FFFFFF" sketch:type="MSShapeGroup">
                <path d="M11.4,8.79478827 L9,17.5895765 L6.6,8.79478827 L9,0 L11.4,8.79478827 Z M9,11.1400651 L18,8.79478827 L9,6.4495114 L0,8.79478827 L9,11.1400651 Z" id="four_rays"></path>
            </g>
            <g id="Group" transform="translate(20.000000, 12.000000) rotate(60.000000) translate(-20.000000, -12.000000) translate(11.000000, 3.205212)" fill="#FFFFFF" sketch:type="MSShapeGroup">
                <path d="M11.4,8.79478827 L9,17.5895765 L6.6,8.79478827 L9,0 L11.4,8.79478827 Z M9,11.1400651 L18,8.79478827 L9,6.4495114 L0,8.79478827 L9,11.1400651 Z" id="four_rays"></path>
            </g>
            <ellipse id="Oval" fill="#000095" sketch:type="MSShapeGroup" cx="20.02" cy="12.019544" rx="5.1" ry="4.98371336"></ellipse>
            <ellipse id="Oval" fill="#FFFFFF" sketch:type="MSShapeGroup" cx="20.02" cy="12.019544" rx="4.5" ry="4.39739414"></ellipse>
        </g>
    </g>
</svg>