<?xml version="1.0" encoding="UTF-8" standalone="no"?>
<svg width="30px" height="24px" viewBox="0 0 30 24" version="1.1" xmlns="http://www.w3.org/2000/svg" xmlns:xlink="http://www.w3.org/1999/xlink" xmlns:sketch="http://www.bohemiancoding.com/sketch/ns">
    <title>Slice 1</title>
    <description>Created with Sketch (http://www.bohemiancoding.com/sketch)</description>
    <defs></defs>
    <g id="Page-1" stroke="none" stroke-width="1" fill="none" fill-rule="evenodd" sketch:type="MSPage">
        <g id="PFP" sketch:type="MSLayerGroup" transform="translate(-6.333333, -0.600000)">
            <g id="Page-1" sketch:type="MSShapeGroup">
                <g id="800px-People_First_Party_flag">
                    <path d="M0,0 L42.6666667,0 L42.6666667,25.6 L0,25.6 L0,0 L0,0 Z" id="Shape" fill="#FE6407"></path>
                    <path d="M9.71206552,8.04984766 L9.78502867,8.06242752 L9.90831122,8.16809828 L10.0265618,8.34421622 L10.011466,8.45995086 L9.92843898,8.54046192 L9.51330385,8.67884029 L9.40260115,8.74928747 L9.34724979,8.82979853 L8.59749059,8.99082064 L8.40627682,9.0964914 L8.2628665,9.11410319 L8.23015888,9.09145946 L8.16474365,9.1392629 L7.98862572,9.15939066 L7.89805078,9.25248157 L7.96849795,9.38834398 L8.02133333,9.38834398 L8.35847339,9.52169042 L8.38614906,9.55188206 L8.43646847,9.55691401 L8.49685176,9.51665847 L8.55471909,9.52169042 L8.60755447,9.5745258 L8.69561343,9.5996855 L8.98746601,9.60471745 L9.5686552,9.50156265 L9.72716134,9.36066831 L9.94353481,9.25248157 L10.4744046,9.03862408 L10.5473677,8.92288944 L10.7410975,8.76689926 L10.869412,8.75431941 L10.9725667,8.82728255 L11.0555938,8.76689926 L11.3524783,8.75935135 L11.5613039,8.76438329 L11.6770385,8.68890417 L11.8481245,8.48762654 L12.1148174,8.50020639 L12.2154562,8.48762654 L12.3638984,8.33918427 L12.3638984,8.27628501 L12.3035152,8.14545455 L12.1601048,8.04229975 L12.0972056,8.04733169 L11.9688911,8.1404226 L11.9034758,8.24609336 L11.6996822,8.2259656 L11.1285569,7.99198035 L11.0933333,7.85360196 L10.9801147,7.66490417 L10.9247633,7.62968059 L10.7033579,7.59948895 L10.5297559,7.55420147 L10.4215692,7.49130221 L10.3234464,7.52400983 L10.097009,7.51394595 L9.75483702,7.49130221 L9.5938149,7.52904177 L9.51330385,7.57181327 L9.47053235,7.65484029 L9.4831122,7.72780344 L9.53846356,7.80328255 L9.60891073,7.85863391 L9.68690581,7.94166094 L9.71206552,8.04984766 L9.71206552,8.04984766 Z" id="Shape" stroke="#FFFFFF" stroke-width="0.1" fill="#FFFFFF"></path>
                    <path d="M9.27428665,10.1381032 L9.329638,10.0450123 L10.1221687,9.92172973 L10.1699722,9.88399017 L10.1926159,9.91166585 L10.1297166,9.97708108 L10.0466896,10.2211302 L9.97372646,10.3494447 L9.86553972,10.3922162 L9.75232105,10.5406585 L9.64916626,10.58343 L9.49820803,10.495371 L9.35228174,10.3293169 L9.27428665,10.1381032 L9.27428665,10.1381032 Z" id="Shape" stroke="#FFFFFF" stroke-width="0.1" fill="#FFFFFF"></path>
                    <path d="M9.57368714,11.5143391 L9.72716134,11.3885405 L9.78502867,11.3885405 L9.78502867,11.3180934 L10.2529992,11.0815921 L10.3184144,11.0891401 L10.3687338,11.0312727 L10.7587093,10.8148993 L11.035466,10.4022801 L11.2291957,10.0450123 L11.2568714,9.89908599 L11.3348665,9.81857494 L11.4480852,9.45627518 L11.5914955,9.37073219 L11.9663751,9.44872727 L12.061982,9.61478133 L12.0720459,9.70032433 L12.0192105,9.78083538 L11.9261196,9.86386241 L11.7827093,10.2789975 L11.8456085,10.5532383 L11.9034758,10.6211695 L11.8380606,10.7318722 L11.6443309,10.8073513 L11.546208,10.9079902 L11.3524783,10.9608255 L11.1914562,11.096688 L11.1486847,11.4866634 L11.1864242,11.5847863 L11.2795152,11.6476855 L11.4128616,11.6652973 L11.6921343,11.6652973 L11.8129009,11.6803931 L11.9009599,11.7407764 L12.1097854,12.032629 L11.9537953,12.1936511 L11.6443309,12.206231 L11.4480852,12.1810713 L11.2769992,12.203715 L11.118493,12.2817101 L10.9801147,12.4100245 L10.8819918,12.5962064 L10.8392203,12.8075479 L10.8492842,12.9509583 L10.9247633,13.1597838 L10.8719279,13.3736413 L10.8392203,13.6025946 L10.8442523,13.8390958 L10.869412,14.080629 L10.8996036,14.2114595 L10.8895397,14.3674496 L10.8316724,14.5460835 L10.7536773,14.6442064 L10.7260016,14.7851007 L10.7410975,15.0341818 L10.7260016,15.2455234 L10.6580704,15.190172 L10.5473677,14.9612186 L10.441697,14.7347814 L10.351122,14.6492384 L10.3360262,14.5309877 L10.3712498,14.3674496 L10.4517609,14.2240393 L10.5398198,13.9850221 L10.5423358,13.8567076 L10.5096282,13.7711646 L10.5322719,13.6327863 L10.6178149,13.6755577 L10.6480066,13.5925307 L10.6002031,13.564855 L10.4995643,13.564855 L10.436665,13.5019558 L10.4618247,13.3560295 L10.6002031,13.1195283 L10.6052351,12.971086 L10.5398198,12.8352236 L10.441697,12.7018772 L10.351122,12.6188501 L9.93598689,12.6339459 L9.58626699,12.7194889 L9.47556429,12.8301916 L9.30196233,12.9081867 L9.11829648,12.9232825 L8.97237018,12.9559902 L8.88682719,13.0163735 L8.84405569,13.1019165 L8.57484685,13.0490811 L8.25531859,13.0264374 L8.19996724,12.9987616 L8.21254709,12.8628993 L8.7409009,12.5484029 L9.06797707,12.5257592 L9.36234562,12.3420934 L9.70451761,12.1710074 L9.90579525,12.1861032 L10.0341097,12.1382997 L10.0793972,12.0754005 L10.1498444,12.0577887 L10.2353874,11.9697297 L10.2454513,11.8816707 L10.2077117,11.8087076 L10.1397805,11.7684521 L9.91585913,11.8363833 L9.69445373,11.9244423 L9.56362326,11.9143784 L9.41266503,11.94457 L9.32712203,11.8992825 L9.15352007,11.8716069 L8.95727437,11.8816707 L8.85411958,11.859027 L8.77864046,11.8061916 L8.74844881,11.7634202 L8.5874267,11.7281965 L8.5874267,11.6678133 L8.61761835,11.6351056 L8.72077314,11.6250417 L8.78115643,11.5747224 L8.96733825,11.6652973 L9.15603604,11.6703293 L9.19629157,11.692973 L9.25415888,11.692973 L9.27680262,11.6174938 L9.34221786,11.5621425 L9.57368714,11.5143391 L9.57368714,11.5143391 Z" id="Shape" stroke="#FFFFFF" stroke-width="0.1" fill="#FFFFFF"></path>
                    <path d="M8.88682719,14.2416511 L8.97237018,14.1334644 L9.03526945,14.1158525 L9.20887142,14.0001179 L9.30699427,13.8541916 L9.34221786,13.7485209 L9.39002129,13.7183293 L9.46046847,13.7334251 L9.63407043,13.8592236 L9.65923014,14.0202457 L9.62903849,14.1460442 L9.56362326,14.2114595 L9.50323997,14.2668108 L9.44788861,14.3976413 L9.44285668,14.5586634 L9.41014906,14.5989189 L9.23906307,14.6291105 L9.18371171,14.6039508 L9.15352007,14.5586634 L9.15352007,14.5007961 L9.06294513,14.4479607 L8.97740213,14.4077052 L8.90443898,14.3422899 L8.88682719,14.2416511 L8.88682719,14.2416511 Z" id="Shape" stroke="#FFFFFF" stroke-width="0.1" fill="#FFFFFF"></path>
                    <path d="M15.8208419,7.81083046 L15.7176871,7.77057494 L15.6472399,7.81083046 L15.5189255,7.80579853 L15.4535102,7.73031941 L15.3050679,7.70515971 L15.2547486,7.73031941 L15.217009,7.68754791 L14.9981196,7.64980835 L14.8521933,7.70012776 L14.6634955,7.60955283 L14.6056282,7.65484029 L14.3867388,7.68754791 L14.187977,7.64226045 L14.0722424,7.85863391 L13.8885766,7.90140541 L13.7929697,7.97436855 L13.7300704,7.95927273 L13.7225225,8.02217199 L13.6646552,8.04229975 L13.6168518,8.0045602 L13.5841441,8.04229975 L13.508665,8.03726781 L13.3753186,8.1152629 L13.1539132,8.34170025 L13.0079869,8.38447175 L12.9853431,8.41717936 L13.0105028,8.44988698 L13.0759181,8.4649828 L13.0759181,8.61594103 L13.1363014,8.704 L13.1413333,8.82979853 L13.0910139,8.91030958 L13.0884979,9.16945455 L13.1287535,9.26002948 L13.1287535,9.34305651 L13.1513972,9.39085995 L13.1312695,9.43614742 L13.1287535,9.61478133 L13.0985618,9.6852285 L13.0985618,9.78335135 L13.0180508,9.87141032 L13.0130188,9.90914988 L13.0583063,9.96198525 L13.0532744,10.2211302 L12.9928911,10.2840295 L12.9752793,10.3494447 L13.0557903,10.5230467 L13.0406945,10.6060737 L13.0230828,10.6362654 L13.0406945,10.7041966 L13.0406945,10.7444521 L13.0079869,10.7821917 L13.0130188,10.8048354 L13.0557903,10.8299951 L13.0356626,10.8954103 L12.9501196,11.003597 L12.9903751,11.2476462 L12.9299919,11.2954496 L12.9073481,11.2728059 L12.8897363,11.3658968 L12.9501196,11.431312 L12.9903751,11.5822703 L12.9677314,11.690457 L12.9023161,11.7432924 L12.8998001,11.7659361 L12.9274758,11.7986437 L12.9174119,11.9722457 L12.8570287,12.0275971 L12.8771564,12.0728845 L12.8142572,12.1684914 L12.8419328,12.206231 L12.7614218,12.2791941 L12.6356233,12.4175725 L12.570208,12.455312 L12.5224046,12.4527961 L12.4796331,12.3848649 L12.4217658,12.3823489 L12.2557117,12.4427322 L12.1575889,12.4175725 L12.1651368,12.5282752 L12.1072695,12.5836265 L12.0720459,12.5785946 L12.0317903,12.6364619 L12.064498,12.7295528 L12.059466,12.8075479 L12.1097854,12.8478035 L12.1097854,12.9132186 L12.064498,12.9937297 L12.1601048,12.9987616 L12.2582277,13.1019165 L12.4217658,13.1144963 L12.5878198,13.0214054 L12.6658149,13.0415332 L12.7689697,12.9786339 L12.8117412,13.0063095 L12.826837,12.9232825 L13.0432105,12.7748403 L13.1287535,12.7823882 L13.3174513,12.6113022 L13.4105422,12.6465258 L13.4583456,12.6616216 L13.4407339,12.7320688 L13.3954464,12.7371007 L13.4105422,12.802516 L13.3199672,12.9257985 L13.3174513,12.9861818 L13.2570679,12.9559902 L13.1992007,12.9559902 L13.1564291,12.9987616 L13.1992007,13.0490811 L13.1765569,13.1119804 L13.1212056,13.1950074 L13.1111417,13.2906143 L13.0130188,13.5019558 L12.6456871,13.8868993 L12.6431712,13.9472825 L12.5551122,14.0428895 L12.3538346,14.3599017 L12.150041,14.5335037 L12.1399771,14.6240786 L12.1072695,14.7121376 L12.0368223,14.8152924 L12.1148174,14.8907715 L12.3009992,14.7247175 L12.3815102,14.7146535 L12.570208,14.505828 L12.6532351,14.4831843 L12.658267,14.4378968 L12.7614218,14.4806683 L12.826837,14.3297101 L12.8545127,14.3850615 L12.9174119,14.3523538 L12.9752793,14.2668108 L13.0583063,14.2592629 L13.1111417,14.1963636 L13.1287535,13.995086 L13.1992007,13.9372186 L13.2218444,13.8441277 L13.4885373,13.567371 L13.4507977,13.5069877 L13.5187289,13.4264766 L13.508665,13.2956462 L13.5212448,13.2453268 L13.6193678,13.2176511 L13.7099427,13.0390172 L13.8130975,12.9157346 L13.8130975,12.8754791 L13.8407731,12.8628993 L14.0797903,12.455312 L14.3238395,12.2817101 L14.5653727,12.2364226 L14.6509157,12.118172 L14.8421294,12.0275971 L14.9075447,12.0275971 L15.043407,11.9571499 L15.0685668,11.9043145 L15.12895,11.9143784 L15.1943653,12.0426929 L15.1390139,12.0955283 L15.1364979,12.1408157 L15.29752,12.284226 L15.302552,12.4502801 L15.2648125,12.5031155 L15.2874562,12.5634988 L15.2924881,12.7421327 L15.211977,12.8452875 L15.2321049,12.9585062 L15.3151318,13.0037936 L15.3604193,13.1572678 L15.3478395,13.2201671 L15.4082228,13.3837052 L15.4258346,13.5573071 L15.4409304,13.6076265 L15.383063,13.6856216 L15.383063,13.740973 L15.3151318,13.7686486 L15.3528714,13.9347027 L15.4157707,13.9548305 L15.4258346,14.0479214 L15.5214415,14.1535921 L15.4962818,14.1988796 L15.725235,14.4378968 L15.7981982,14.4353808 L15.8334218,14.4907322 L15.8862572,14.4831843 L15.8938051,14.4278329 L15.9214808,14.3800295 L15.8812252,14.3422899 L15.9214808,14.1862997 L16.0271515,14.0504374 L16.0045078,14.0227616 L16.0548272,13.9422506 L16.0749549,13.8164521 L16.0019919,13.6831056 L15.9541884,13.6856216 L15.9214808,13.5497592 L15.8661294,13.5271155 L15.8384538,13.4566683 L15.8384538,13.3031941 L15.8912891,13.1572678 L15.9718001,13.0943685 L16.0548272,13.0138575 L16.0573431,12.9509583 L15.9944439,12.8805111 L15.9416085,12.8805111 L15.9189648,12.7647764 L15.9189648,12.6163342 L15.8485176,12.5031155 L15.8007142,12.3345455 L15.8007142,12.1609435 L15.8485176,12.0401769 L15.8610975,11.9672137 L15.7981982,11.8539951 L15.813294,11.8313514 L15.7705225,11.7181327 L15.8409697,11.60743 L15.8007142,11.5621425 L15.725235,11.2904177 L15.7705225,11.2275185 L15.7503948,11.1847469 L15.8007142,11.0815921 L15.7554267,10.925602 L15.8334218,10.7318722 L15.8007142,10.5934939 L15.7730385,10.6085897 L15.7453629,10.58343 L15.7705225,10.5230467 L15.7176871,10.4425356 L15.6472399,10.4651794 L15.6472399,10.4324717 L15.7076233,10.407312 L15.725235,10.1984865 L15.7705225,10.2311941 L15.8409697,10.153199 L15.7403308,9.98211302 L15.7654906,9.88902211 L15.7931663,9.87392629 L15.7554267,9.81605897 L15.8208419,9.36570025 L15.7554267,9.27260934 L15.7705225,9.14932678 L15.8736773,9.06629975 L15.8082621,8.99836855 L15.8334218,8.98327273 L15.8636134,8.92037346 L15.8007142,8.81218673 L15.8912891,8.61090909 L15.8812252,8.36434398 L15.9416085,8.21590172 L15.9617363,8.04229975 L15.8233579,7.86869779 L15.8208419,7.81083046 L15.8208419,7.81083046 Z M13.5564685,8.50523833 L13.6747191,8.65116462 L13.6948468,8.76941524 L13.679751,9.02352825 L13.594208,9.17951843 L13.594208,9.26254545 L13.6420115,9.29022113 L13.6344636,9.41098772 L13.679751,9.46633906 L13.9565078,9.40595577 L14.0319869,9.4210516 L14.1175299,9.39085995 L14.1955249,9.32292875 L14.3288714,9.29022113 L14.4672498,9.28015725 L14.5653727,9.18706634 L14.6433678,9.18958231 L14.703751,9.13423095 L14.8094218,9.12668305 L14.9503161,9.01598035 L15.0106994,9.00591646 L15.0408911,8.92037346 L15.045923,8.79205897 L15.1541098,8.79205897 L15.1742375,8.71154791 L15.1390139,8.68890417 L15.2396528,8.62852088 L15.2396528,8.55807371 L15.1843014,8.42975921 L15.2295888,8.35931204 L15.2220409,8.28886486 L15.1566257,8.29641277 L14.96038,8.17564619 L14.8849009,8.17564619 L14.7238788,8.09261916 L14.620724,8.10016707 L14.5880164,8.05991155 L14.5276331,8.05236364 L14.4823456,8.10016707 L14.3162916,8.14545455 L14.1401737,8.14545455 L14.0646945,8.22093366 L13.9766356,8.21338575 L13.9439279,8.26622113 L13.8307092,8.28634889 L13.8156134,8.34170025 L13.7426503,8.3542801 L13.6394955,8.41969533 L13.6394955,8.49014251 L13.5866601,8.4649828 L13.5564685,8.50523833 L13.5564685,8.50523833 Z M13.5690483,9.76825553 L13.7174906,9.67768059 L14.187977,9.67264865 L14.2206847,9.728 L14.2584242,9.68019656 L14.9150926,9.52169042 L14.9880557,9.57704177 L15.0912105,9.56697789 L15.1515938,9.51162654 L15.2321049,9.52672236 L15.2497167,9.59213759 L15.2824242,9.60974938 L15.2220409,9.81857494 L15.1188861,9.82109091 L15.0710828,9.86386241 L15.0886945,9.92172973 L15.1364979,9.91166585 L15.2069451,9.94185749 L15.2522326,10.0902998 L15.2220409,10.153199 L14.9478001,10.2865455 L14.8924489,10.2865455 L14.8320655,10.3569926 L14.6534316,10.3494447 L14.5980803,10.4400197 L14.3691269,10.4425356 L14.3540311,10.4626634 L14.2584242,10.4878231 L14.2458444,10.5381425 L14.1452056,10.5733661 L14.0823063,10.5733661 L13.9464439,10.6538772 L13.9263161,10.7394202 L13.7929697,10.7394202 L13.7351024,10.7972875 L13.7753579,10.8652187 L13.9565078,10.8853464 L14.1753972,10.8601867 L14.2886159,10.8903784 L14.359063,10.8954103 L14.4395741,10.8274791 L14.4798297,10.7897396 L14.5779525,10.7595479 L14.8974808,10.7972875 L14.9327043,10.7746437 L14.9981196,10.8048354 L15.1364979,10.7998034 L15.133982,11.0337887 L15.0685668,11.1419755 L14.8144538,11.431312 L14.7490385,11.431312 L14.706267,11.4665356 L14.6559476,11.4740835 L14.5200852,11.604914 L14.3842228,11.6149779 L14.2659721,11.6652973 L14.2357805,11.7131007 L14.1779132,11.7105847 L13.7200066,11.9244423 L13.6545913,12.0099853 L13.5841441,12.0125012 L13.5212448,11.9722457 L13.6067878,11.8992825 L13.5992399,11.8363833 L13.6445274,11.7885798 L13.6394955,11.6602654 L13.5992399,11.604914 L13.5992399,11.4740835 L13.5690483,11.4388599 L13.594208,11.2577101 L13.6445274,11.2048747 L13.6042719,11.1017199 L13.6420115,10.9683735 L13.5313088,10.8425749 L13.5338248,10.7771597 L13.5791122,10.7394202 L13.594208,10.6589091 L13.5388567,10.5431745 L13.5791122,10.409828 L13.5841441,10.2865455 L13.6193678,10.2488059 L13.594208,9.97708108 L13.6193678,9.94940541 L13.6168518,9.88902211 L13.5690483,9.76825553 L13.5690483,9.76825553 Z" id="Shape" stroke="#FFFFFF" stroke-width="0.1" fill="#FFFFFF"></path>
                    <path d="M11.7726454,13.3711253 L11.8380606,13.393769 L11.8682523,13.4717641 L11.9135397,13.4189287 L12.0695299,13.4767961 L12.1097854,13.5824668 L12.1097854,13.7787125 L12.0972056,13.9372186 L12.1575889,14.080629 L12.1072695,14.168688 L11.9839869,14.1435283 L11.8707682,14.0403735 L11.7952891,13.9422506 L11.7349058,13.8994791 L11.7122621,13.8013563 L11.722326,13.5824668 L11.7500016,13.4591843 L11.7726454,13.3711253 L11.7726454,13.3711253 Z" id="Shape" stroke="#FFFFFF" stroke-width="0.1" fill="#FFFFFF"></path>
                    <path d="M17.2499132,13.1748796 L17.2901687,13.2478427 L17.2901687,13.4466045 L17.2574611,13.484344 L17.2574611,13.5447273 L17.1668861,13.7107814 L17.1341786,13.821484 L17.1618542,13.8466437 L17.2096577,13.8466437 L17.259977,13.9196069 L17.2524291,13.9648944 L17.2499132,14.3674496 L17.181982,14.5234398 L17.2197216,14.5863391 L17.0989549,14.7549091 L16.9630926,14.9863784 L16.5907289,15.0845012 L16.4171269,15.0845012 L16.4045471,15.1348206 L16.3567437,15.1448845 L16.326552,15.104629 L16.2686847,15.0895332 L16.2686847,15.1549484 L16.2083014,15.1499165 L16.2032695,15.104629 L16.1202424,15.1222408 L16.0573431,15.0819853 L15.8258738,15.0492776 L15.7906503,14.9763145 L15.725235,14.931027 L15.6371761,14.9410909 L15.4862178,14.8354202 L15.4057068,14.7951646 L15.3503555,14.7171695 L15.2497167,14.6618182 L15.1465618,14.6693661 L15.0635348,14.5410516 L15.0308272,14.5435675 L14.6509157,14.2139755 L14.6509157,14.1083046 L14.5527928,14.0001179 L14.620724,14.0001179 L14.6383358,13.909543 L14.5678886,13.8667715 L14.5251171,13.7787125 L14.5024734,13.6428501 L14.449638,13.5925307 L14.4244783,13.4591843 L14.4571859,13.310742 L14.5376969,13.1723636 L14.5024734,13.0012776 L14.5200852,12.9358624 L14.4622178,12.8704472 L14.5452448,12.8 L14.5024734,12.6742015 L14.5527928,12.5534349 L14.4244783,12.4251204 L14.3263555,12.6817494 L14.2030729,12.7949681 L14.187977,13.0163735 L14.0923702,13.2000393 L14.0571466,13.4365405 L14.0596626,13.6654938 L14.1653333,13.8793514 L14.1452056,13.9019951 L14.1452056,13.9875381 L14.2005569,14.0403735 L14.2030729,14.2592629 L14.1401737,14.3221622 L14.1804291,14.3674496 L14.2282326,14.3624177 L14.2860999,14.4077052 L14.276036,14.503312 L14.3515151,14.5435675 L14.3288714,14.6643342 L14.3716429,14.7750368 L14.4747977,14.8580639 L14.4597018,14.9888944 L14.4873776,15.019086 L14.5075053,14.9964423 L14.5704046,15.0366978 L14.5829844,15.1146929 L14.6282719,15.107145 L14.8823849,15.3184865 L14.9226405,15.3310664 L14.9327043,15.3939656 L14.9528321,15.3839017 L15.0182473,15.4040295 L15.0157314,15.4367371 L15.1163702,15.4266732 L15.1843014,15.5197641 L15.3327437,15.529828 L15.5642129,15.5902113 L15.8636134,15.5499558 L15.9944439,15.5725995 L16.1730778,15.5549877 L16.1881737,15.5927273 L16.2460409,15.5549877 L16.2485569,15.612855 L16.5026699,15.6329828 L16.5655692,15.5725995 L16.6460803,15.5751155 L16.6385324,15.5122162 L16.6813038,15.4719607 L16.8121343,15.4870565 L17.093923,15.441769 L17.1417265,15.3889336 L17.2524291,15.4040295 L17.2977167,15.3411302 L17.6172448,15.3260344 L17.6575004,15.2606192 L17.7027878,15.273199 L17.6851761,15.2153317 L17.7002719,15.1549484 L17.7002719,15.0065062 L17.7631712,14.9033514 L17.7505913,14.848 L17.7656871,14.764973 L17.6549844,14.5838231 L17.6373727,14.3624177 L17.5820213,14.332226 L17.5266699,14.1963636 L17.5392498,14.0378575 L17.4637707,13.8894153 L17.4587388,13.6654938 L17.4209992,13.5044717 L17.4537068,13.3409336 L17.4184832,13.2151351 L17.3757117,13.2201671 L17.3580999,13.1849435 L17.4134513,13.1748796 L17.4134513,13.0767567 L17.4411269,13.0138575 L17.3379721,12.9358624 L17.3430041,12.7748403 L17.2272695,12.6968452 L17.3027486,13.0138575 L17.2499132,13.1748796 L17.2499132,13.1748796 Z M14.187977,13.7510368 L14.2357805,13.6982015 L14.2584242,13.7736806 L14.3037117,13.7736806 L14.2936479,13.7183293 L14.3515151,13.6277543 L14.3741588,13.6831056 L14.3389353,13.7283931 L14.364095,13.7837445 L14.3288714,13.8063882 L14.361579,13.8592236 L14.3389353,13.8994791 L14.359063,13.9523145 L14.2860999,14.0504374 L14.2584242,13.9145749 L14.3137756,13.8994791 L14.3238395,13.8567076 L14.3162916,13.8315479 L14.2106208,13.8567076 L14.2307486,13.7812285 L14.187977,13.7510368 L14.187977,13.7510368 Z" id="Shape" stroke="#FFFFFF" stroke-width="0.1" fill="#FFFFFF"></path>
                    <path d="M18.4198395,8.93295332 L18.6186011,8.75935135 L18.7846552,8.82728255 L18.8676822,8.72915971 L19.0085766,8.70651597 L19.1695987,8.75431941 L19.2350139,8.70148403 L19.4186798,8.72915971 L19.4639672,8.69142015 L19.6149255,8.68387224 L19.7004685,8.75935135 L19.826267,8.69142015 L20.0376085,8.68387224 L20.168439,8.57820147 L20.3772646,8.57316954 L20.41752,8.50020639 L20.4955151,8.58574938 L20.8049795,8.57820147 L20.8955545,8.47756265 L21.1572154,8.4649828 L21.2855299,8.3970516 L21.3937167,8.3970516 L21.4893235,8.27628501 L21.617638,8.34421622 L21.7912399,8.3115086 L21.7711122,8.23351351 L22.0076134,7.95927273 L22.0705127,8.03726781 L22.2239869,7.99198035 L22.2239869,7.91650123 L22.2667584,7.91650123 L22.3472695,8.06242752 L22.5888026,8.10519902 L22.5963505,8.17564619 L22.6793776,8.16809828 L22.7422769,8.20835381 L22.8378837,8.2259656 L22.8177559,8.27628501 L22.8630434,8.35931204 L22.9611663,8.39201965 L23.0567731,8.48762654 L23.0517412,8.56562162 L22.978778,8.70148403 L22.9007829,8.70651597 L22.7925962,8.85495823 L22.7422769,8.85495823 L22.639122,9.03359214 L22.6491859,9.07133169 L22.4780999,9.31789681 L22.3044979,9.34305651 L22.1736675,9.46885504 L22.1636036,9.43111548 L22.1359279,9.42608354 L22.1107682,9.47388698 L22.0705127,9.46633906 L22.0076134,9.5317543 L22.0227092,9.59716954 L22.0126454,9.69277641 L21.9396822,9.86386241 L22.0076134,10.0324324 L22.045353,10.0525602 L22.0227092,10.1003636 L22.0780606,10.2337101 L22.1359279,10.2613858 L22.1812154,10.3393808 L22.1661196,10.407312 L22.2214709,10.4903391 L22.2743063,10.4878231 L22.3673972,10.6035577 L22.724665,10.5683341 L22.8831712,10.578398 L22.9234267,10.5482064 L22.9158788,10.497887 L23.0039378,10.4349877 L23.0039378,10.3494447 L23.2052154,10.412344 L23.48952,10.3142211 L23.6882818,10.2060344 L23.7134415,10.1506831 L23.9901982,10.1506831 L24.088321,10.0877838 L24.173864,9.97204914 L24.3852056,9.95443735 L24.430493,9.80347912 L24.4757805,9.72548403 L24.4229451,9.43614742 L24.4430729,9.35815234 L24.4053333,9.32796069 L24.4581687,9.28267322 L24.4808125,9.11158723 L24.4153972,9.03610811 L24.3675938,9.02352825 L24.3223063,9.04868796 L24.2971466,9.02352825 L24.3348861,8.88514988 L24.4053333,8.83734644 L24.4959083,8.93546929 L24.5688714,8.93295332 L24.5638395,9.00340049 L24.5940311,9.00340049 L24.7198297,9.14429484 L24.7223456,9.1644226 L24.7902769,9.21222605 L24.8280164,9.3355086 L24.8431122,9.45375921 L24.9085274,9.55439804 L24.8934316,9.58458968 L25.0544538,9.8563145 L25.1727043,9.89657003 L25.202896,9.8563145 L25.2431515,9.8563145 L25.3060508,9.94940541 L25.3186307,10.0752039 L25.3815299,10.1406192 L25.3085668,10.2865455 L25.4419132,10.4274398 L25.4695888,10.5331106 L25.3815299,10.7243243 L25.2255398,10.7620639 L25.1525766,10.8098673 L25.1274168,10.9608255 L25.0846454,11.011145 L25.0519378,11.008629 L24.9563308,11.0690123 L24.7852448,11.0564324 L24.6795741,11.003597 L24.7097658,10.92057 L24.599063,10.6714889 L24.4581687,10.5381425 L24.4531368,10.4626634 L24.4103653,10.4802752 L24.2996626,10.4224079 L24.2468272,10.4400197 L24.2417952,10.4853071 L24.1864439,10.4651794 L24.0858051,10.5582703 L24.00781,10.5431745 L23.9776183,10.578398 L23.8493038,10.5633022 L23.8442719,10.58343 L23.8065324,10.5859459 L23.7788567,10.5733661 L23.5826109,10.5859459 L23.5499034,10.5582703 L23.5096479,10.5633022 L23.48952,10.6161376 L23.3662375,10.6538772 L23.2630828,10.7243243 L23.2127633,10.7041966 L23.1699919,10.7016806 L23.1096085,10.7444521 L23.0542572,10.6916167 L23.0114857,10.7016806 L22.9410385,10.7972875 L22.7020213,10.7821917 L22.6592498,10.8073513 L22.6642818,10.8652187 L22.8227878,10.9557936 L22.7649206,10.9809533 L22.7372448,11.0337887 L22.7649206,11.091656 L22.810208,11.091656 L22.9737461,11.4438919 L23.0517412,11.4564717 L23.0039378,11.5244029 L23.0592891,11.519371 L23.0894808,11.5747224 L23.0819328,11.6502015 L23.1423161,11.773484 L23.1951515,11.7810319 L23.2228272,11.7558723 L23.240439,11.861543 L23.2127633,11.9370221 L23.1775398,11.9596658 L23.1876036,12.0175332 L23.2505028,11.9571499 L23.318434,12.0552727 L23.3763014,12.0854644 L23.4266208,12.0854644 L23.4442326,12.0930123 L23.4442326,12.1357838 L23.4719083,12.1081081 L23.4970679,12.1232039 L23.5146798,12.1710074 L23.665638,12.1684914 L23.5423555,12.3949287 L23.660606,12.455312 L23.746149,12.460344 L23.7889206,12.4276364 L23.8216282,12.4855037 L23.7637608,12.5811105 L23.7864046,12.6364619 L23.8417559,12.6364619 L23.9096871,12.6817494 L23.9826503,12.8603833 L24.0581294,12.9358624 L24.1260606,12.9459263 L24.2921147,13.0717248 L24.3223063,13.2176511 L24.3801737,13.2327469 L24.3650778,13.2604226 L24.3097265,13.2579066 L24.3072105,13.2906143 L24.4782965,13.5321475 L24.6292547,13.6780737 L24.8330483,13.7837445 L24.8783358,13.9045111 L25.0066503,13.9246388 L25.2557314,13.8743194 L25.3060508,13.8164521 L25.4469451,13.8164521 L25.5022965,13.7736806 L25.5299721,13.821484 L25.5727437,13.8114202 L25.6155151,13.7711646 L25.6507388,13.8013563 L25.713638,13.7988403 L25.6834464,14.0504374 L25.7413137,14.1460442 L25.7362818,14.1963636 L25.7866011,14.2190074 L25.7815692,14.2869385 L25.9199476,14.2919705 L25.9073678,14.3523538 L25.9400753,14.3926094 L26.053294,14.4026732 L26.1287731,14.4831843 L26.0633579,14.5762752 L26.0834857,14.7825847 L25.8595643,14.7347814 L25.8067289,14.7398133 L25.7639574,14.7901327 L25.7564095,14.8781916 L25.6960262,14.9259951 L25.6029353,14.9385749 L25.5022965,15.0115381 L25.4922326,14.931027 L25.3437903,14.8152924 L25.2683112,14.8102605 L25.1047731,14.6391745 L25.0066503,14.5863391 L24.9689108,14.503312 L24.9009795,14.503312 L24.7626011,14.3825455 L24.6695102,14.337258 L24.6191909,14.3448059 L24.5889992,14.2995185 L24.6191909,14.1988796 L24.599063,14.1586241 L24.5462277,14.166172 L24.4933923,14.1032727 L24.4984242,14.0202457 L24.4581687,14.0076658 L24.4355249,14.0403735 L23.8065324,13.4189287 L23.7235053,13.2528747 L23.6706699,13.225199 L23.6178346,13.2478427 L23.5624832,13.1295921 L23.5146798,13.1698476 L23.3612056,12.9484423 L23.3335299,12.7194889 L23.2655987,12.6540737 L23.2228272,12.6641376 L23.066837,12.4628599 L22.8328518,12.2515185 L22.8026601,12.1131401 L22.6793776,12.0980442 L22.6441539,12.1584275 L22.470552,12.0200492 L22.3975888,11.94457 L22.2441147,11.9797936 L22.2743063,12.032629 L22.2592105,12.1609435 L21.7912399,12.5031155 L21.6931171,12.6213661 L21.6503456,12.6238821 L21.5019034,12.9031548 L21.2628861,13.0088255 L21.1345717,13.1321081 L21.1270238,13.2000393 L21.0867682,13.225199 L20.9836134,13.2352629 L20.9232301,13.3031941 L20.9433579,13.3711253 L20.8527829,13.3610615 L20.8125274,13.4013169 L20.6213137,13.4088649 L20.5483505,13.5497592 L20.503063,13.5900147 L20.41752,13.5598231 L20.2917216,13.6378182 L20.2615299,13.6956855 L20.2715938,13.7485209 L20.0074168,13.8466437 L19.9269059,13.824 L19.8866503,13.9548305 L19.8941982,13.995086 L19.8413629,14.0504374 L19.7658837,14.0227616 L19.6778248,14.1234005 L19.6098935,14.0906929 L19.4715151,14.2089435 L19.3633284,14.2341032 L19.3356528,14.2970025 L19.2878493,14.2919705 L19.2324979,14.4152531 L19.0890877,14.3951253 L19.1217952,14.4404128 L19.1066994,14.4706045 L18.8223948,14.2240393 L18.8148468,14.163656 L18.7343358,14.0755971 L18.6991122,13.909543 L18.7569795,13.8164521 L18.7393678,13.6579459 L18.7469157,13.5044717 L18.7846552,13.4717641 L18.7620115,13.393769 L18.8098149,13.3359017 L18.7418837,13.2050713 L18.7771073,13.1522359 L18.7544636,12.7949681 L18.799751,12.7194889 L18.797235,12.6641376 L18.7469157,12.6238821 L18.7544636,12.5836265 L18.8349746,12.5609828 L18.88781,12.5056315 L18.8953579,12.4326683 L18.8500704,12.3546732 L18.8551024,12.3093857 L18.8777461,12.2791941 L18.8249108,12.118172 L18.8374906,11.9621818 L18.885294,11.8489632 L18.7846552,11.7810319 L18.799751,11.7005209 L18.8374906,11.6703293 L18.8349746,11.5545946 L18.9632891,11.3986045 L18.9330975,11.3432531 L18.9834168,11.0715283 L18.9582572,10.9985651 L18.9658051,10.8954103 L18.9884489,10.8652187 L18.9632891,10.8199312 L18.9758689,10.7369042 L19.0010287,10.6865848 L19.0161245,10.5280786 L18.9205176,10.1959705 L19.0463161,9.99972482 L19.0765078,9.84121867 L19.0639279,9.76825553 L19.1192793,9.6852285 L19.1368911,9.48646683 L19.0991515,9.43614742 L19.0287043,9.42356756 L19.0211564,9.37073219 L18.9834168,9.36570025 L18.7569795,9.17951843 L18.6865324,9.17951843 L18.5783456,9.25248157 L18.5506699,9.21222605 L18.5657658,9.12165111 L18.5255102,9.0285602 L18.4198395,8.93295332 L18.4198395,8.93295332 Z M20.9760655,8.99082064 L21.0767043,8.88011794 L21.0465127,8.82728255 L21.0817363,8.789543 L21.1094119,8.83483046 L21.2603702,8.72161179 L21.2880458,8.74425553 L21.3333333,8.71154791 L21.3937167,8.71406388 L21.4239083,8.70148403 L21.4239083,8.65368059 L21.5723505,8.62852088 L21.5824144,8.58323342 L21.7056969,8.56813759 L21.8038199,8.66877641 L21.6780213,8.83483046 L21.6755053,8.9002457 L21.703181,8.93546929 L21.7560164,8.9430172 L21.7610483,8.99333661 L21.7509844,9.02604423 L21.7685962,9.07636364 L21.7459525,9.12165111 L21.6805373,9.11661916 L21.6427977,9.17448649 L21.7258248,9.30531695 L21.783692,9.30028501 L21.8239476,9.31538084 L21.7912399,9.39085995 L21.8264636,9.43363145 L21.8063358,9.49149877 L21.8289795,9.55691401 L21.7912399,9.5996855 L21.7560164,9.5996855 L21.6855692,9.69026045 L21.5572547,9.59716954 L21.4918395,9.58962162 L21.4037805,9.49149877 L21.4062965,9.43363145 L21.3383653,9.42608354 L21.189923,9.33299263 L21.1320557,9.21474202 L21.1345717,9.15687469 L21.10438,9.10403931 L20.9861294,9.07133169 L20.9609697,9.03610811 L20.9760655,8.99082064 L20.9760655,8.99082064 Z M19.2526257,9.42608354 L19.3784242,9.39337592 L19.4589353,9.32292875 L19.4689992,9.29022113 L19.5243505,9.30028501 L19.5570581,9.25751351 L19.5394464,9.17951843 L19.6174415,9.18706634 L19.6853727,9.15687469 L19.7155643,9.17951843 L19.7533038,9.17951843 L19.7935594,9.14429484 L19.8614906,9.14429484 L19.9017461,9.10403931 L19.909294,9.04868796 L20.0426405,9.07887961 L20.1306994,9.04617199 L20.3294611,9.03359214 L20.4150041,9.00843244 L20.4401638,9.05623587 L20.5181588,9.03862408 L20.5257068,9.0964914 L20.6062178,9.2248059 L20.7521441,9.35815234 L20.7949157,9.35815234 L20.8074955,9.38834398 L20.7823358,9.4034398 L20.8351712,9.50659459 L20.8125274,9.54685012 L20.8880066,9.54433415 L20.8729108,9.58710565 L20.9961933,9.67013268 L20.9408419,9.68019656 L20.9987092,9.77831941 L20.9936773,9.91921376 L20.9509059,9.98211302 L20.8628468,10.0374644 L20.8326552,10.0198526 L20.588606,10.1506831 L20.5533825,10.1431351 L20.5483505,10.1909386 L20.4929992,10.1305553 L20.4275839,10.1808747 L20.2615299,10.1708108 L20.2237903,10.2135823 L20.2414021,10.2513219 L20.2137265,10.2613858 L20.1885668,10.3091892 L20.1885668,10.3771204 L20.2766257,10.4727273 L20.334493,10.4802752 L20.3621687,10.4676953 L20.4074562,10.4727273 L20.5005471,10.3997641 L20.5735102,10.3368649 L20.6439574,10.3393808 L20.7722719,10.3997641 L20.8678788,10.3997641 L20.9987092,10.3922162 L21.0918001,10.3066732 L21.1245078,10.3091892 L21.1572154,10.3595086 L21.2125668,10.2966093 L21.3811368,10.3091892 L21.4264242,10.3796364 L21.4691958,10.3393808 L21.5396429,10.3494447 L21.5572547,10.409828 L21.6604095,10.497887 L21.6931171,10.5960098 L21.7459525,10.6387813 L21.7384046,10.7218083 L21.6427977,10.7998034 L21.5723505,10.8148993 L21.4918395,10.7092285 L21.3811368,10.8073513 L21.3157216,10.8249631 L21.2603702,10.8174152 L21.0867682,10.9985651 L20.9861294,11.0438526 L20.9936773,11.0790762 L20.8578149,11.0715283 L20.7244685,11.1369435 L20.7093727,11.2048747 L20.6716331,11.1973268 L20.6313776,11.2350664 L20.5408026,11.260226 L20.3973923,11.262742 L20.3093333,11.3055135 L20.2866896,11.3558329 L19.8715545,11.3784766 L19.6727928,11.4413759 L19.6853727,11.602398 L19.8312989,11.7885798 L19.9042621,11.8087076 L19.994837,11.7080688 L20.0602522,11.6980049 L20.1734709,11.6376216 L20.2162424,11.5923342 L20.3068174,11.6124619 L20.3697167,11.5495626 L20.3772646,11.5017592 L20.3596528,11.4539558 L20.420036,11.4438919 L20.4477117,11.4942113 L20.505579,11.5093071 L20.5760262,11.4816315 L20.6640852,11.3960885 L20.7496282,11.3633808 L20.9232301,11.3684128 L21.0641245,11.3105455 L21.1672793,11.3029975 L21.2301786,11.2803538 L21.2880458,11.2803538 L21.3484291,11.3180934 L21.358493,11.262742 L21.4566159,11.182231 L21.6956331,11.1369435 L21.7509844,11.1520393 L21.7233088,11.2099066 L21.9321343,11.1922948 L21.9723898,11.1218476 L22.1208321,11.1218476 L22.1158001,11.2149385 L22.2390828,11.3759607 L22.4026208,11.431312 L22.46552,11.519371 L22.4277805,11.5545946 L22.4378444,11.7885798 L22.3925569,11.8263194 L22.3221098,11.8187715 L22.2592105,11.8816707 L22.2315348,11.8816707 L22.2315348,11.8313514 L22.1459919,11.7030368 L22.1158001,11.7131007 L22.1007043,11.7558723 L22.1736675,11.8388993 L22.1686356,11.8942506 L22.1208321,11.9118624 L22.1032203,11.947086 L21.8390434,12.2414545 L21.8063358,12.2414545 L21.6704734,12.3873808 L21.6528616,12.4704079 L21.5572547,12.5634988 L21.2981098,12.6842654 L21.2276626,12.7521965 L21.1245078,12.7421327 L20.9710336,12.9056707 L20.8955545,12.9081867 L20.7773038,12.9987616 L20.6816969,12.9861818 L20.2564979,13.1622997 L20.1583751,13.2604226 L20.0476724,13.2604226 L19.9847731,13.2050713 L19.9470336,13.2906143 L19.7633678,13.3837052 L19.652665,13.393769 L19.4966748,13.4491204 L19.4488714,13.3509975 L19.4060999,13.3031941 L19.3633284,13.3031941 L19.2652056,13.1497199 L19.2450778,13.054113 L19.2652056,12.5634988 L19.2878493,12.5358231 L19.2903653,12.4704079 L19.2375299,12.4175725 L19.1746307,12.3924128 L19.222434,12.3219656 L19.3180409,12.291774 L19.3054611,12.2288747 L19.3633284,12.1257199 L19.4639672,12.0477248 L19.4966748,11.949602 L19.4715151,11.7684521 L19.4589353,11.692973 L19.3356528,11.5898182 L19.2450778,11.4388599 L19.2551417,11.3105455 L19.2199181,11.2400983 L19.222434,11.1394595 L19.1922424,11.0715283 L19.2677216,10.9809533 L19.2526257,10.7369042 L19.3180409,10.6538772 L19.2375299,10.5079509 L19.2450778,10.4500835 L19.2803014,10.4198919 L19.3633284,10.1053956 L19.4715151,9.99972482 L19.4035839,9.88399017 L19.4060999,9.78083538 L19.3054611,9.69026045 L19.3054611,9.52672236 L19.2803014,9.52672236 L19.2324979,9.48646683 L19.2526257,9.42608354 L19.2526257,9.42608354 Z" id="Shape" stroke="#FFFFFF" stroke-width="0.1" fill="#FFFFFF"></path>
                    <path d="M26.820665,8.75935135 L27.3490188,8.84741032 L27.4697854,8.95559705 L27.5628763,9.05120393 L27.6408714,9.08139558 L27.671063,9.27512531 L27.6660311,9.46633906 L27.5980999,9.50659459 L27.6660311,9.59465356 L27.5452646,9.90914988 L27.5754562,10.0198526 L27.505009,10.0777199 L27.4848812,10.2563538 L27.5150729,10.4022801 L27.4597216,10.58343 L27.3792105,10.6916167 L27.3263751,10.8979263 L27.3691466,10.925602 L27.3691466,11.0413366 L27.2408321,11.2451302 L27.0571663,11.2073906 L26.9213038,11.0790762 L26.8332448,10.7847076 L26.7778935,10.5884619 L26.820665,10.2714496 L26.9112399,10.1204914 L26.8659525,10.0123047 L26.9363997,9.73303194 L26.903692,9.65503685 L26.9363997,9.53427027 L26.9363997,9.4210516 L26.9716233,9.3782801 L26.9363997,8.99082064 L26.820665,8.75935135 L26.820665,8.75935135 Z" id="Shape" stroke="#FFFFFF" stroke-width="0.1" fill="#FFFFFF"></path>
                    <path d="M28.5667486,8.04229975 L28.7428665,7.95927273 L28.9315643,8.27628501 L29.0875545,8.35931204 L29.2234168,8.34421622 L29.2611564,8.4398231 L29.2385127,8.55807371 L29.1529697,8.62097297 L29.1378738,8.71406388 L29.1982572,8.79205897 L29.1580017,8.91030958 L28.8862769,8.88766585 L28.8485373,8.72161179 L28.7101588,8.62097297 L28.5919083,8.42724325 L28.5541687,8.20835381 L28.5667486,8.04229975 L28.5667486,8.04229975 Z" id="Shape" stroke="#FFFFFF" stroke-width="0.1" fill="#FFFFFF"></path>
                    <path d="M28.2094808,9.73806388 L28.3679869,9.73806388 L28.7982178,9.5745258 L29.0221392,9.56697789 L29.1580017,9.48646683 L29.5253333,9.45879115 L29.8297658,9.47388698 L29.9530483,9.42608354 L29.9404685,9.48395086 L29.9631122,9.54181818 L29.8649894,9.60974938 L29.6662277,9.62987715 L29.4750139,9.62987715 L29.3718591,9.67013268 L29.3064439,9.77580344 L29.1001343,9.81857494 L29.042267,9.82360688 L28.9265324,9.86637838 L28.866149,9.91921376 L28.4786896,9.91669779 L28.3176675,9.87392629 L28.2321245,9.813543 L28.2094808,9.73806388 L28.2094808,9.73806388 Z" id="Shape" stroke="#FFFFFF" stroke-width="0.1" fill="#FFFFFF"></path>
                    <path d="M30.234837,10.4878231 L30.7128714,10.4324717 L30.7682228,10.4802752 L30.7556429,10.5280786 L30.7808026,10.7847076 L30.6801638,10.9557936 L30.5342375,10.9155381 L30.4537265,10.9054742 L30.408439,10.9482457 L30.3430238,10.9583096 L30.3329598,11.008629 L30.4109549,11.1520393 L30.4159869,11.2350664 L30.2776085,11.4841475 L30.5468174,11.4237641 L30.7531269,11.1621032 L30.916665,11.0514005 L30.9393088,11.0514005 L31.0827191,10.9406978 L31.0827191,10.8652187 L31.1305225,10.8727666 L31.2185815,10.752 L31.2865127,10.500403 L31.2739328,10.3091892 L31.2286454,10.2060344 L31.1607142,10.1657789 L31.0751712,10.1003636 L30.9896282,10.1003636 L30.9342769,10.1230074 L30.8940213,10.1079116 L30.8260901,10.1204914 L30.5946208,10.241258 L30.3530877,10.3091892 L30.3103161,10.3595086 L30.234837,10.3066732 L30.4839181,9.83115479 L30.5065618,9.71793612 L30.4788861,9.6172973 L30.3379919,9.45375921 L31.0147878,9.2927371 L30.9443407,9.18958231 L30.9795643,9.09145946 L30.916665,9.00591646 L30.9493727,8.76689926 L31.0323997,8.68387224 L31.2512891,8.64110074 L31.2311613,8.57316954 L31.4827584,8.40711548 L31.5532056,8.24609336 L31.7922228,8.21338575 L32.0689795,7.92404914 L32.2274857,7.76051105 L32.5218542,7.81083046 L32.6275249,7.78315479 L32.7331958,7.60200492 L32.619977,7.30512039 L32.285353,7.14913022 L31.9331171,7.17428993 L31.8651859,7.25228501 L31.8249304,7.42337101 L31.7318395,7.54162162 L31.6991318,7.66490417 L31.6337167,7.73031941 L31.4953382,7.97436855 L31.4953382,8.06242752 L31.3745717,8.1152629 L31.3871515,8.18067814 L31.1959378,8.33415234 L31.1682621,8.43479115 L31.0399476,8.57820147 L30.8260901,8.72161179 L30.7078395,8.72161179 L30.6499721,8.67129238 L30.6298444,8.43479115 L30.6801638,8.08003931 L30.6751318,7.92404914 L30.7808026,7.55671745 L30.7002916,7.30512039 L30.4210188,7.13655037 L29.895181,7.19944963 L29.7945422,7.28499263 L29.9228567,7.48123833 L29.9832399,7.77812285 L30.0763308,7.82341032 L30.0889108,7.89888944 L30.0436233,8.06997543 L30.066267,8.16809828 L30.1014906,8.19325798 L30.0964587,8.28383293 L30.0436233,8.34421622 L30.0788468,8.49014251 L30.0763308,8.71406388 L29.9958199,9.07636364 L29.9933038,9.22983784 L30.0436233,9.31538084 L30.0335594,9.38079607 L29.9907878,9.40595577 L30.1090385,9.46633906 L30.1341982,9.55439804 L30.0436233,9.85128255 L30.0536871,9.98211302 L29.9832399,10.0651401 L29.8549255,10.3494447 L29.8473776,10.4022801 L29.7115151,10.6438133 L29.7316429,10.7394202 L29.7316429,10.8501228 L29.7643505,10.9054742 L29.8197018,10.9054742 L29.8197018,10.9809533 L29.8549255,11.0237248 L29.8775692,10.9935332 L29.8876331,10.925602 L30.0008518,10.8199312 L29.9832399,10.7142604 L30.0209795,10.6488452 L30.0863948,10.6412973 L30.0914267,10.58343 L30.1669059,10.5431745 L30.234837,10.4878231 L30.234837,10.4878231 Z" id="Shape" stroke="#FFFFFF" stroke-width="0.1" fill="#FFFFFF"></path>
                    <path d="M31.5506896,9.23486978 L31.6261687,9.17951843 L31.6312007,9.23486978 L31.5506896,9.23486978 L31.5506896,9.23486978 Z" id="Shape" stroke="#FFFFFF" stroke-width="0.1" fill="#FFFFFF"></path>
                    <path d="M31.857638,9.20971007 L31.9758886,9.14932678 L32.0865913,9.14932678 L32.1419427,9.17951843 L32.0740115,9.23235381 L31.943181,9.23235381 L31.857638,9.20971007 L31.857638,9.20971007 Z" id="Shape" stroke="#FFFFFF" stroke-width="0.1" fill="#FFFFFF"></path>
                    <path d="M34.4742473,9.43363145 L34.4314758,9.36066831 L34.4440557,9.27009336 L34.3912203,9.20971007 L34.3912203,9.17448649 L34.3157412,9.10403931 L34.2528419,9.10403931 L34.0389844,8.99082064 L33.7597117,9.00340049 L33.6615888,9.07133169 L33.0401441,8.99333661 L32.2627092,9.1644226 L32.2677412,9.18958231 L32.9244095,9.12416707 L33.5383063,9.14932678 L33.565982,9.19209828 L33.565982,9.28015725 L33.6313972,9.29525307 L33.5106307,9.68019656 L32.9546011,10.0374644 L32.9873088,10.0978477 L33.0376282,10.0902998 L33.394896,10.2840295 L33.4049598,10.3091892 L33.4502473,10.3091892 L33.4678591,10.2563538 L33.5005668,10.2940934 L34.1270434,10.3494447 L34.3685766,10.2940934 L34.5774021,10.2940934 L34.6981687,10.153199 L34.8516429,10.0123047 L34.8868665,9.96198525 L34.8692547,9.87644226 L34.7459721,9.76070762 L34.7258444,9.71793612 L34.7434562,9.66510074 L34.7182965,9.61478133 L34.6654611,9.6172973 L34.6176577,9.58710565 L34.6126257,9.53427027 L34.4742473,9.43363145 L34.4742473,9.43363145 Z" id="Shape" stroke="#FFFFFF" stroke-width="0.1" fill="#FFFFFF"></path>
                    <path d="M32.8564783,12.3571892 L32.8740901,12.4377003 L32.6979721,12.6188501 L32.6627486,12.7043931 L32.5495299,12.8301916 L32.4690188,12.9408944 L32.4010877,12.8679312 L32.3356724,12.8956069 L32.3130287,13.0641769 L32.280321,13.2855823 L32.1394267,13.4138968 L32.0714955,13.5573071 L31.9557608,13.7233612 L31.8048026,13.9196069 L31.7897068,14.0126978 L31.8299623,14.0755971 L31.2387092,14.1032727 L31.0802031,14.1032727 L30.9242129,14.2139755 L30.914149,14.3120983 L30.9669844,14.3951253 L31.0802031,14.5133759 L31.2085176,14.5133759 L31.2160655,14.4706045 L31.2689009,14.4555086 L31.3494119,14.4605405 L31.3921835,14.4907322 L31.5280458,14.6114988 L31.5733333,14.6391745 L31.7167437,14.6240786 L31.7897068,14.6718821 L31.8702178,14.8429681 L31.8651859,14.9385749 L31.7922228,15.0090221 L31.6588763,15.0341818 L31.4827584,15.0719214 L31.2714168,15.1146929 L31.0500115,15.1750762 L30.8688616,15.3084226 L30.7329992,15.529828 L30.7229353,15.7386535 L30.65752,15.8241965 L30.574493,15.8342605 L30.5065618,15.8015528 L30.408439,15.8342605 L30.1820017,15.9852186 L30.1014906,15.9827027 L29.9253727,16.131145 L29.8524095,16.1160492 L29.6662277,16.1009533 L29.5328812,16.131145 L29.2737363,16.1688845 L28.7101588,16.2066241 L28.8082818,16.0783095 L28.9642719,16.0053465 L29.2058051,15.9122555 L29.3190238,15.8116167 L29.3466994,15.700914 L29.3718591,15.6606585 L29.4825618,15.6430467 L29.6284881,15.6732384 L29.7794464,15.7436855 L29.9052448,15.7160098 L29.9857559,15.6430467 L29.9002129,15.441769 L29.7417068,15.3310664 L29.4775299,15.3688059 L29.210837,15.3839017 L29.0875545,15.3411302 L29.0623948,15.1599804 L29.1554857,15.1675283 L29.3341196,15.0970811 L29.3466994,15.0593415 L29.5706208,14.933543 L29.6310041,14.9486388 L29.7869943,14.845484 L29.8976969,14.6215626 L29.9228567,14.3221622 L29.7945422,14.2240393 L29.6460999,14.2341032 L29.6033284,14.2869385 L29.4548861,14.2919705 L29.3290877,14.3548698 L29.1856773,14.2013955 L29.1881933,14.1007567 L29.0145913,13.8919312 L28.8133137,13.5371794 L28.7277707,13.5095037 L28.6447437,13.4239607 L28.6220999,13.3409336 L28.5189451,13.1522359 L28.3805668,12.9308305 L28.3226994,12.8578673 L28.3101196,12.7471646 L28.355407,12.6817494 L28.5315249,12.6918133 L28.5793284,12.8125798 L28.6573235,12.9182506 L28.8409894,13.054113 L28.9843997,13.2327469 L28.9944636,13.2880983 L29.042267,13.3535135 L29.042267,13.4239607 L29.0070434,13.5497592 L29.0145913,13.7183293 L29.1051663,13.8667715 L29.4121147,14.078113 L29.4951417,14.1007567 L29.7568026,14.0655332 L29.895181,13.9422506 L30.063751,13.8567076 L30.1341982,13.8013563 L30.1568419,13.7032335 L30.1291663,13.4918919 L30.0486552,13.2880983 L29.7341588,13.1295921 L29.6259721,13.1144963 L29.5404291,13.1321081 L29.4724979,13.2050713 L29.29638,13.1472039 L29.379407,13.0515971 L29.4221786,12.9786339 L29.4272105,12.8956069 L29.6586798,12.8276756 L29.9002129,12.7018772 L29.9605962,12.6213661 L30.15181,12.4527961 L30.1643898,12.3521573 L30.237353,11.9873415 L30.0964587,11.9395381 L29.9832399,11.8288354 L29.9681441,11.7281965 L29.8851171,11.690457 L29.6586798,11.690457 L29.3466994,11.7483244 L29.2385127,11.8087076 L29.0724587,11.8087076 L28.1641933,12.1483636 L27.8371171,12.115656 L27.7943456,12.0225651 L27.927692,11.8791548 L28.0786503,11.8414153 L28.5415888,11.8061916 L28.6699034,11.8288354 L28.9466601,11.6527175 L29.0649108,11.6527175 L29.1529697,11.7206486 L29.4724979,11.6451695 L29.5630729,11.4942113 L29.6460999,11.4438919 L29.8473776,11.5747224 L30.3153481,11.5898182 L30.4612744,11.5042752 L31.0147878,11.4866634 L31.0827191,11.5596265 L31.2034857,11.5646585 L31.4953382,11.4514398 L31.7796429,11.4916954 L31.8953776,11.5596265 L31.9557608,11.6502015 L31.9155053,11.690457 L31.8022867,11.6980049 L31.4399869,11.8137395 L31.2286454,11.8087076 L31.0751712,11.776 L31.002208,11.8061916 L30.916665,11.8061916 L30.9015692,11.8690909 L31.0122719,12.2590664 L31.1380704,12.4653759 L31.2286454,12.5031155 L31.3041245,12.4729238 L31.2990926,12.5534349 L31.2185815,12.6339459 L31.1280066,12.6465258 L31.0751712,12.711941 L31.0651073,12.7899361 L30.8487339,12.9182506 L30.7204193,13.0767567 L30.6776479,13.227715 L30.6851958,13.3359017 L30.6449402,13.4289926 L30.6776479,13.6176905 L30.7556429,13.7938084 L31.0323997,13.8592236 L31.1355545,13.8567076 L31.2789648,13.9145749 L31.4173431,13.8743194 L31.510434,13.9850221 L31.5808812,13.9850221 L31.7494513,13.824 L31.8073186,13.8164521 L31.9280852,13.6956855 L32.0060803,13.564855 L32.0513678,13.225199 L32.0941392,12.8956069 L32.0865913,12.7698084 L32.1067191,12.6867814 L32.1469746,12.6540737 L32.1243308,12.6012384 L32.1318788,12.460344 L32.2149059,12.1382997 L32.1897461,11.8816707 L32.2450975,11.8388993 L32.451407,11.9244423 L32.6526847,11.8917346 L32.7281638,11.9319902 L32.7508076,11.9948895 L32.7231318,12.0980442 L32.8162228,12.2238427 L32.8137068,12.2716462 L32.7382277,12.3269975 L32.7633874,12.3773169 L32.8564783,12.3571892 L32.8564783,12.3571892 Z M32.622493,12.3420934 L32.6954562,12.3823489 L32.6979721,12.4377003 L32.5897854,12.5081475 L32.5570778,12.460344 L32.5998493,12.4100245 L32.622493,12.3420934 L32.622493,12.3420934 Z" id="Shape" stroke="#FFFFFF" stroke-width="0.1" fill="#FFFFFF"></path>
                    <path d="M31.0122719,15.7134938 L31.0751712,15.6757543 L31.1355545,15.5021524 L31.2311613,15.4644128 L31.3594758,15.5122162 L31.429923,15.5977592 L31.767063,15.5927273 L31.8752498,15.6430467 L31.9280852,15.7059459 L31.9683407,15.7134938 L32.0211761,15.6682064 L32.0865913,15.7235577 L32.1243308,15.6883342 L32.1243308,15.7713612 L31.4903063,15.8065847 L31.341864,15.8116167 L31.1103948,15.7562654 L31.0122719,15.7134938 L31.0122719,15.7134938 Z" id="Shape" stroke="#FFFFFF" stroke-width="0.1" fill="#FFFFFF"></path>
                    <path d="M27.0320066,17.3941622 L27.0370385,17.2733955 L27.1678689,17.238172 L27.4471417,17.2432039 L27.6106798,17.1224374 L27.7893137,17.1224374 L27.9050483,17.2683636 L27.9503358,17.2079804 L28.189353,17.2079804 L28.1390336,17.3740344 L28.0333629,17.4822211 L27.9503358,17.6935626 L27.7842818,17.8948403 L27.6106798,17.8898084 L27.499977,18.0105749 L27.4068861,17.9703194 L27.421982,17.5904079 L27.3515348,17.4746732 L27.2358001,17.404226 L27.0320066,17.3941622 L27.0320066,17.3941622 Z" id="Shape" stroke="#FFFFFF" stroke-width="0.1" fill="#FFFFFF"></path>
                    <path d="M31.4173431,17.3086192 L31.4827584,17.1576609 L31.7922228,17.1123735 L31.9859525,17.1777887 L32.111751,17.0620541 L32.2954168,17.1425651 L32.2903849,17.2633317 L31.9859525,17.4545455 L31.8224144,17.4646094 L31.5330778,17.323715 L31.4173431,17.3086192 L31.4173431,17.3086192 Z" id="Shape" stroke="#FFFFFF" stroke-width="0.1" fill="#FFFFFF"></path>
                    <path d="M32.6401049,17.1325012 L32.619977,17.0419263 L32.9546011,16.9312236 L33.1458149,16.9513514 L33.2036822,17.0821818 L33.4653431,17.0922457 L33.6288812,17.3690025 L33.6037216,17.4595774 L33.4879869,17.4998329 L33.1835545,17.4998329 L32.9546011,17.2733955 L32.8363505,17.2683636 L32.7457756,17.2432039 L32.7407437,17.1777887 L32.6401049,17.1325012 L32.6401049,17.1325012 Z" id="Shape" stroke="#FFFFFF" stroke-width="0.1" fill="#FFFFFF"></path>
                    <path d="M29.1730975,17.2733955 L29.1831613,17.1677248 L29.2863161,17.067086 L29.3215398,16.9865749 L29.5228174,16.9865749 L29.6008125,16.9463194 L29.8373137,16.9362555 L29.9455004,17.0519902 L29.9253727,17.3941622 L29.8171859,17.4646094 L29.6058444,17.4646094 L29.3869549,17.3438427 L29.1730975,17.2733955 L29.1730975,17.2733955 Z" id="Shape" stroke="#FFFFFF" stroke-width="0.1" fill="#FFFFFF"></path>
                    <path d="M9.01010975,16.4431253 L9.01010975,16.9614153 L9.16861588,16.9614153 L9.21390336,16.9614153 L9.25164291,16.9588993 L9.28938248,16.9538673 L9.31957412,16.9463194 L9.34976577,16.9387715 L9.3724095,16.9312236 L9.39253727,16.9211597 L9.41014906,16.9085798 L9.42272891,16.8909681 L9.43530877,16.8733563 L9.44537265,16.8507125 L9.45292056,16.8255528 L9.46046847,16.7978772 L9.46550041,16.7676855 L9.46801638,16.7349779 L9.46801638,16.6997543 L9.46801638,16.6670467 L9.46550041,16.6343391 L9.46046847,16.6041475 L9.45292056,16.5789877 L9.44537265,16.556344 L9.43782473,16.5337003 L9.42776085,16.5186045 L9.415181,16.5035086 L9.40260115,16.4884128 L9.38498935,16.4758329 L9.36486159,16.465769 L9.34221786,16.4582211 L9.31705815,16.4506732 L9.28938248,16.4456413 L9.25919083,16.4431253 L9.22648321,16.4431253 L9.01010975,16.4431253 L9.01010975,16.4431253 Z M9.22648321,16.2670074 L9.2868665,16.2695234 L9.34221786,16.2720393 L9.39505324,16.2795872 L9.4403407,16.2921671 L9.4831122,16.3047469 L9.52085176,16.3223587 L9.5510434,16.3424865 L9.57871909,16.3651302 L9.60136282,16.3928059 L9.62149059,16.4229975 L9.63910238,16.4582211 L9.65168223,16.4984766 L9.66426208,16.5412482 L9.67180999,16.5890516 L9.67432596,16.641887 L9.67684193,16.6997543 L9.67432596,16.7525897 L9.67180999,16.8054251 L9.66426208,16.8507125 L9.65168223,16.896 L9.63910238,16.9337395 L9.62149059,16.9714791 L9.60136282,17.0041867 L9.57871909,17.0318624 L9.55355938,17.0570221 L9.52336773,17.0796658 L9.49066011,17.0972776 L9.45543653,17.1123735 L9.415181,17.1224374 L9.36989353,17.1325012 L9.32460606,17.1350172 L9.27177068,17.1375332 L9.01010975,17.1375332 L9.01010975,17.836973 L8.80128419,17.836973 L8.80128419,16.2670074 L9.22648321,16.2670074 L9.22648321,16.2670074 Z" id="Shape" stroke="#FFFFFF" stroke-width="0.1" fill="#FFFFFF"></path>
                    <path d="M9.89321539,17.836973 L9.89321539,16.2670074 L10.6781982,16.2670074 L10.6781982,16.4380934 L10.102041,16.4380934 L10.102041,16.9412875 L10.6580704,16.9412875 L10.6580704,17.1174054 L10.102041,17.1174054 L10.102041,17.665887 L10.6781982,17.665887 L10.6781982,17.836973 L9.89321539,17.836973 L9.89321539,17.836973 Z" id="Shape" stroke="#FFFFFF" stroke-width="0.1" fill="#FFFFFF"></path>
                    <path d="M11.8732842,17.0721179 L11.8732842,17.1325012 L11.8707682,17.1878525 L11.8707682,17.240688 L11.8682523,17.2910074 L11.8657363,17.3362948 L11.8607043,17.3790664 L11.8581884,17.4168059 L11.8531564,17.4495135 L11.8481245,17.4822211 L11.8430925,17.5098968 L11.8355446,17.5400885 L11.8279967,17.5652482 L11.8204488,17.5904079 L11.8129009,17.6155675 L11.805353,17.6356954 L11.7952891,17.6533071 L11.7801933,17.6784668 L11.7625815,17.7036265 L11.7424537,17.7237543 L11.722326,17.746398 L11.7021982,17.7640098 L11.6795545,17.7816216 L11.6569107,17.7967175 L11.631751,17.8092973 L11.6040753,17.8218772 L11.5738837,17.834457 L11.546208,17.8445209 L11.5135004,17.8495528 L11.4807928,17.8571007 L11.4480852,17.8596167 L11.4128616,17.8621327 L11.377638,17.8621327 L11.3474464,17.8621327 L11.3197707,17.8596167 L11.292095,17.8571007 L11.2644193,17.8520688 L11.2367437,17.8495528 L11.2115839,17.8420049 L11.1864242,17.836973 L11.1612645,17.8294251 L11.1386208,17.8193612 L11.118493,17.8092973 L11.0983653,17.7967175 L11.0782375,17.7841376 L11.0606257,17.7715577 L11.0430139,17.7564619 L11.0254021,17.7413661 L11.0103063,17.7237543 L10.9926945,17.7036265 L10.9750827,17.6809828 L10.9599869,17.6583391 L10.947407,17.6306634 L10.9348272,17.6029877 L10.9247633,17.575312 L10.9146994,17.5426045 L10.9071515,17.5098968 L10.9046355,17.492285 L10.8996036,17.4746732 L10.8970876,17.4545455 L10.8945717,17.4319017 L10.8920557,17.409258 L10.8895397,17.3840983 L10.8870238,17.3589385 L10.8870238,17.3312629 L10.8845078,17.3010713 L10.8819918,17.2708796 L10.8819918,17.238172 L10.8819918,17.2054644 L10.8794758,17.1702408 L10.8794758,17.1350172 L10.8794758,17.0972776 L10.8794758,17.0595381 L10.8794758,17.0268305 L10.8794758,16.9916069 L10.8794758,16.9614153 L10.8819918,16.9312236 L10.8819918,16.9010319 L10.8819918,16.8733563 L10.8845078,16.8456806 L10.8845078,16.8180049 L10.8870238,16.7953612 L10.8870238,16.7702015 L10.8895397,16.7475577 L10.8920557,16.72743 L10.8920557,16.7073022 L10.8945717,16.6871745 L10.8970876,16.6695626 L10.8996036,16.6544668 L10.9021196,16.6242752 L10.9071515,16.5940835 L10.9146994,16.5664079 L10.9222473,16.5412482 L10.9297953,16.5160885 L10.9398591,16.4934447 L10.947407,16.470801 L10.9574709,16.4506732 L10.9725667,16.4255135 L10.9901785,16.4028698 L11.0077903,16.382742 L11.0279181,16.3626143 L11.0480459,16.3450025 L11.0706896,16.3273906 L11.0958493,16.3122948 L11.121009,16.299715 L11.1486847,16.2871351 L11.1788763,16.2770713 L11.209068,16.2670074 L11.2392596,16.2594595 L11.2719672,16.2544275 L11.3071908,16.2519115 L11.3424144,16.2493955 L11.377638,16.2493955 L11.4053137,16.2493955 L11.4355053,16.2519115 L11.463181,16.2544275 L11.4883407,16.2569435 L11.5135004,16.2619755 L11.5386601,16.2695234 L11.5638198,16.2745553 L11.5864636,16.2821032 L11.6116233,16.2921671 L11.634267,16.3047469 L11.6543948,16.3173268 L11.6745225,16.3299066 L11.6946503,16.3450025 L11.7122621,16.3600983 L11.7273579,16.3751941 L11.7424537,16.3928059 L11.7600655,16.4129336 L11.7751613,16.4355774 L11.7902572,16.4582211 L11.805353,16.4833808 L11.8179328,16.5135725 L11.8305127,16.5412482 L11.8405766,16.5739558 L11.8481245,16.6066634 L11.8506405,16.6242752 L11.8531564,16.6444029 L11.8581884,16.6645307 L11.8607043,16.6871745 L11.8607043,16.7098182 L11.8632203,16.7349779 L11.8657363,16.7626535 L11.8682523,16.7903293 L11.8682523,16.8205209 L11.8707682,16.8507125 L11.8707682,16.8834202 L11.8707682,16.9186437 L11.8732842,16.9538673 L11.8732842,16.9916069 L11.8732842,17.0318624 L11.8732842,17.0721179 L11.8732842,17.0721179 Z M11.6644586,17.0519902 L11.6644586,17.0041867 L11.6644586,16.9588993 L11.6619427,16.9136118 L11.6594267,16.8708403 L11.6594267,16.8331007 L11.6569107,16.7953612 L11.6518788,16.7601376 L11.6493628,16.724914 L11.6443309,16.6947224 L11.6392989,16.6670467 L11.634267,16.639371 L11.6292351,16.6142113 L11.6216871,16.5940835 L11.6141392,16.5739558 L11.6065913,16.556344 L11.5990434,16.5412482 L11.5814316,16.5135725 L11.5613039,16.4909287 L11.5386601,16.470801 L11.5109844,16.4531892 L11.4833088,16.4406094 L11.4506011,16.4330615 L11.4153776,16.4280295 L11.377638,16.4255135 L11.3600262,16.4255135 L11.3424144,16.4255135 L11.3273186,16.4280295 L11.3097068,16.4305455 L11.292095,16.4330615 L11.2769992,16.4355774 L11.2619034,16.4380934 L11.2468075,16.4431253 L11.2342277,16.4506732 L11.2216478,16.4607371 L11.2115839,16.468285 L11.1990041,16.4783489 L11.1889402,16.4884128 L11.1788763,16.5009926 L11.1688125,16.5110565 L11.1612645,16.5236364 L11.1512007,16.5412482 L11.1436527,16.5588599 L11.1361048,16.5764717 L11.1285569,16.5965995 L11.121009,16.6167273 L11.1159771,16.636855 L11.1109451,16.6569828 L11.1084292,16.6796265 L11.1033972,16.7073022 L11.1008812,16.7400098 L11.0958493,16.7802654 L11.0933333,16.8255528 L11.0908174,16.8758723 L11.0908174,16.9312236 L11.0883014,16.9941228 L11.0883014,17.0595381 L11.0883014,17.1123735 L11.0908174,17.1626929 L11.0908174,17.2104963 L11.0933333,17.2532678 L11.0958493,17.2910074 L11.0983653,17.326231 L11.1008812,17.3564226 L11.1033972,17.3840983 L11.1059132,17.406742 L11.1084292,17.4268698 L11.1109451,17.4495135 L11.1134611,17.4671253 L11.118493,17.4872531 L11.123525,17.5048649 L11.1285569,17.5199607 L11.1361048,17.5350565 L11.1436527,17.5526683 L11.1512007,17.5677641 L11.1612645,17.5853759 L11.1738444,17.6004717 L11.1839083,17.6155675 L11.1990041,17.6306634 L11.2115839,17.6432433 L11.2266798,17.6533071 L11.2417756,17.660855 L11.2593874,17.665887 L11.2769992,17.6734349 L11.294611,17.6759508 L11.3147387,17.6809828 L11.3348665,17.6834988 L11.3549943,17.6860147 L11.377638,17.6860147 L11.4153776,17.6834988 L11.4506011,17.6784668 L11.4833088,17.6684029 L11.5109844,17.6558231 L11.5386601,17.6407273 L11.5613039,17.6231155 L11.5814316,17.6004717 L11.5990434,17.575312 L11.6065913,17.5602162 L11.6141392,17.5426045 L11.6216871,17.5199607 L11.6292351,17.4973169 L11.634267,17.4721573 L11.6392989,17.4469975 L11.6443309,17.4168059 L11.6493628,17.3840983 L11.6518788,17.3513906 L11.6569107,17.3161671 L11.6594267,17.2784275 L11.6594267,17.238172 L11.6619427,17.1979165 L11.6644586,17.152629 L11.6644586,17.1073415 L11.6644586,17.0595381 L11.6644586,17.0519902 L11.6644586,17.0519902 Z" id="Shape" stroke="#FFFFFF" stroke-width="0.1" fill="#FFFFFF"></path>
                    <path d="M12.3488026,16.4431253 L12.3488026,16.9614153 L12.5073088,16.9614153 L12.5525962,16.9614153 L12.5903358,16.9588993 L12.6280753,16.9538673 L12.658267,16.9463194 L12.6884586,16.9387715 L12.7111024,16.9312236 L12.7312301,16.9211597 L12.7488419,16.9085798 L12.7614218,16.8909681 L12.7740016,16.8733563 L12.7840655,16.8507125 L12.7916134,16.8255528 L12.7991613,16.7978772 L12.8041933,16.7676855 L12.8067092,16.7349779 L12.8067092,16.6997543 L12.8067092,16.6670467 L12.8041933,16.6343391 L12.7991613,16.6041475 L12.7916134,16.5789877 L12.7840655,16.556344 L12.7765176,16.5337003 L12.7664537,16.5186045 L12.7538739,16.5035086 L12.741294,16.4884128 L12.7236822,16.4758329 L12.7035545,16.465769 L12.6809107,16.4582211 L12.655751,16.4506732 L12.6280753,16.4456413 L12.5978837,16.4431253 L12.5651761,16.4431253 L12.3488026,16.4431253 L12.3488026,16.4431253 Z M12.5651761,16.2670074 L12.6255594,16.2695234 L12.6809107,16.2720393 L12.7337461,16.2795872 L12.7790336,16.2921671 L12.8218051,16.3047469 L12.8595447,16.3223587 L12.8897363,16.3424865 L12.9174119,16.3651302 L12.9400557,16.3928059 L12.9601835,16.4229975 L12.9777952,16.4582211 L12.9903751,16.4984766 L13.0029549,16.5412482 L13.0105028,16.5890516 L13.0130188,16.641887 L13.0155348,16.6997543 L13.0130188,16.7525897 L13.0105028,16.8054251 L13.0029549,16.8507125 L12.9903751,16.896 L12.9777952,16.9337395 L12.9601835,16.9714791 L12.9400557,17.0041867 L12.9174119,17.0318624 L12.8922522,17.0570221 L12.8620606,17.0796658 L12.829353,17.0972776 L12.7941294,17.1123735 L12.7538739,17.1224374 L12.7085864,17.1325012 L12.6632989,17.1350172 L12.6104636,17.1375332 L12.3488026,17.1375332 L12.3488026,17.836973 L12.1399771,17.836973 L12.1399771,16.2670074 L12.5651761,16.2670074 L12.5651761,16.2670074 Z" id="Shape" stroke="#FFFFFF" stroke-width="0.1" fill="#FFFFFF"></path>
                    <path d="M13.2319083,17.836973 L13.2319083,16.2670074 L13.4407339,16.2670074 L13.4407339,17.6533071 L13.9716036,17.6533071 L13.9716036,17.836973 L13.2319083,17.836973 L13.2319083,17.836973 Z" id="Shape" stroke="#FFFFFF" stroke-width="0.1" fill="#FFFFFF"></path>
                    <path d="M14.1527535,17.836973 L14.1527535,16.2670074 L14.9377363,16.2670074 L14.9377363,16.4380934 L14.361579,16.4380934 L14.361579,16.9412875 L14.9176085,16.9412875 L14.9176085,17.1174054 L14.361579,17.1174054 L14.361579,17.665887 L14.9377363,17.665887 L14.9377363,17.836973 L14.1527535,17.836973 L14.1527535,17.836973 Z" id="Shape" stroke="#FFFFFF" stroke-width="0.1" fill="#FFFFFF"></path>
                    <path d="M15.6799476,17.836973 L15.6799476,16.2670074 L16.4322228,16.2670074 L16.4322228,16.4380934 L15.8887731,16.4380934 L15.8887731,16.9412875 L16.4045471,16.9412875 L16.4045471,17.1174054 L15.8887731,17.1174054 L15.8887731,17.836973 L15.6799476,17.836973 L15.6799476,17.836973 Z" id="Shape" stroke="#FFFFFF" stroke-width="0.1" fill="#FFFFFF"></path>
                    <path d="M16.6737559,17.836973 L16.6737559,16.2670074 L16.8825815,16.2670074 L16.8825815,17.836973 L16.6737559,17.836973 L16.6737559,17.836973 Z" id="Shape" stroke="#FFFFFF" stroke-width="0.1" fill="#FFFFFF"></path>
                    <path d="M17.3731958,16.9463194 L17.521638,16.9463194 L17.5618935,16.9463194 L17.5996331,16.9438035 L17.6348567,16.9387715 L17.6675643,16.9312236 L17.6977559,16.9236756 L17.7254316,16.9110958 L17.7505913,16.898516 L17.7707191,16.8809042 L17.7883308,16.8632924 L17.8059427,16.8431646 L17.8185225,16.8205209 L17.8285864,16.7953612 L17.8386503,16.7676855 L17.8436822,16.7374938 L17.8487142,16.7047863 L17.8487142,16.6720786 L17.8487142,16.6444029 L17.8461982,16.6167273 L17.8411663,16.5915675 L17.8336183,16.5689238 L17.8260704,16.5487961 L17.8160066,16.5261524 L17.8034267,16.5085405 L17.7908468,16.4909287 L17.775751,16.4758329 L17.7556233,16.4632531 L17.7354955,16.4531892 L17.7128518,16.4456413 L17.687692,16.4380934 L17.6600164,16.4330615 L17.6323407,16.4305455 L17.602149,16.4305455 L17.3731958,16.4305455 L17.3731958,16.9463194 L17.3731958,16.9463194 Z M17.5744734,16.2670074 L17.6348567,16.2695234 L17.690208,16.2720393 L17.7405274,16.2795872 L17.7883308,16.2896511 L17.8336183,16.3047469 L17.8738738,16.3198427 L17.9090975,16.3399705 L17.9418051,16.3600983 L17.9669648,16.382742 L17.9896085,16.4104177 L18.0097363,16.4406094 L18.0273481,16.4758329 L18.0399279,16.5135725 L18.0499919,16.553828 L18.0550238,16.5991155 L18.0575398,16.6469189 L18.0575398,16.6846585 L18.0525078,16.722398 L18.0474758,16.7551056 L18.0399279,16.7878133 L18.029864,16.8180049 L18.0172842,16.8456806 L18.0021884,16.8733563 L17.9870926,16.896 L17.9694808,16.9186437 L17.9518689,16.9412875 L17.9292252,16.9614153 L17.9040655,16.979027 L17.8789059,16.9941228 L17.8487142,17.0067027 L17.8160066,17.0192825 L17.7832989,17.0268305 L17.8134906,17.0318624 L17.8411663,17.0394103 L17.8688419,17.0469583 L17.8914857,17.0570221 L17.9116134,17.067086 L17.9292252,17.0796658 L17.946837,17.0947616 L17.9594168,17.1098575 L17.9745127,17.1299853 L17.9870926,17.155145 L17.9971564,17.1828206 L18.0047043,17.2130123 L18.0122522,17.2457199 L18.0172842,17.2809435 L18.0198001,17.3186831 L18.0198001,17.3589385 L18.0198001,17.3664865 L18.0198001,17.3765504 L18.0198001,17.3866143 L18.0198001,17.3966781 L18.0198001,17.409258 L18.0198001,17.4193219 L18.0198001,17.4319017 L18.0198001,17.4444815 L18.0198001,17.4671253 L18.0172842,17.4872531 L18.0122522,17.5023489 L18.0122522,17.5149287 L18.0122522,17.5375725 L18.0147682,17.5602162 L18.0147682,17.5828599 L18.0172842,17.6029877 L18.0198001,17.6256315 L18.0198001,17.6457592 L18.0223161,17.665887 L18.0248321,17.6860147 L18.0273481,17.7061425 L18.03238,17.7262703 L18.034896,17.7438821 L18.0399279,17.7640098 L18.0424439,17.7816216 L18.0474758,17.8017494 L18.0525078,17.8193612 L18.0575398,17.836973 L17.8436822,17.836973 L17.8361343,17.8092973 L17.8311024,17.7791056 L17.8235545,17.7413661 L17.8210385,17.6985946 L17.8160066,17.6533071 L17.8134906,17.6004717 L17.8109746,17.5451204 L17.8109746,17.4822211 L17.8109746,17.4620934 L17.8109746,17.4444815 L17.8084587,17.4268698 L17.8084587,17.409258 L17.8059427,17.3916462 L17.8034267,17.3765504 L17.8034267,17.3639705 L17.8034267,17.3513906 L17.8034267,17.321199 L17.8009108,17.2935234 L17.7958788,17.2658476 L17.7908468,17.240688 L17.7832989,17.2205602 L17.775751,17.2004325 L17.7682031,17.1828206 L17.7581392,17.1702408 L17.7480753,17.1576609 L17.7329795,17.1475971 L17.7203997,17.1400492 L17.7027878,17.1325012 L17.6851761,17.1249533 L17.6650483,17.1199214 L17.6424046,17.1174054 L17.6197608,17.1174054 L17.3731958,17.1174054 L17.3731958,17.836973 L17.1643702,17.836973 L17.1643702,16.2670074 L17.5744734,16.2670074 L17.5744734,16.2670074 Z" id="Shape" stroke="#FFFFFF" stroke-width="0.1" fill="#FFFFFF"></path>
                    <path d="M18.289009,17.3840983 L18.5104144,17.3840983 L18.5104144,17.4168059 L18.5104144,17.4520295 L18.5129304,17.4847371 L18.5179623,17.5174447 L18.5255102,17.5451204 L18.5330581,17.5702801 L18.543122,17.5929238 L18.5557018,17.6155675 L18.5682818,17.6331794 L18.5808616,17.6482752 L18.5984734,17.663371 L18.6160852,17.6734349 L18.6387289,17.6834988 L18.6613727,17.6910467 L18.6865324,17.6935626 L18.716724,17.6985946 L18.7469157,17.6985946 L18.7720753,17.6985946 L18.799751,17.6935626 L18.8223948,17.6910467 L18.8475545,17.6834988 L18.8701982,17.6734349 L18.8928419,17.663371 L18.9154857,17.6482752 L18.9356134,17.6331794 L18.9507092,17.6155675 L18.9658051,17.5979558 L18.9783849,17.577828 L18.9884489,17.5551843 L18.9959968,17.5350565 L19.0010287,17.5124128 L19.0060606,17.489769 L19.0060606,17.4646094 L19.0010287,17.4293857 L18.9884489,17.3916462 L18.9658051,17.3539066 L18.9330975,17.3161671 L18.8928419,17.2759115 L18.8425225,17.2331401 L18.7846552,17.1878525 L18.7192399,17.1425651 L18.6991122,17.1325012 L18.6815004,17.1199214 L18.6664046,17.1098575 L18.6538248,17.1048255 L18.5984734,17.069602 L18.5506699,17.0368944 L18.5078985,17.0041867 L18.4676429,16.9739951 L18.4349353,16.9463194 L18.4072596,16.9186437 L18.3846159,16.8909681 L18.3670041,16.8683244 L18.3519083,16.8456806 L18.3368125,16.8205209 L18.3267486,16.7953612 L18.3166847,16.7676855 L18.3091368,16.7400098 L18.3066208,16.7098182 L18.3015888,16.6796265 L18.3015888,16.6469189 L18.3041049,16.6041475 L18.3091368,16.5613759 L18.3192007,16.5236364 L18.3342965,16.4858968 L18.3544242,16.4506732 L18.3770679,16.4179656 L18.4022277,16.387774 L18.4324193,16.3600983 L18.4651269,16.3324226 L18.5003505,16.3097789 L18.5380901,16.2896511 L18.5808616,16.2720393 L18.6211171,16.2594595 L18.6664046,16.2493955 L18.714208,16.2443636 L18.7645274,16.2418476 L18.8173629,16.2443636 L18.8651663,16.2493955 L18.9104538,16.2569435 L18.9532252,16.2695234 L18.9909648,16.2846192 L19.0287043,16.302231 L19.0614119,16.3248747 L19.0916036,16.3475185 L19.1167633,16.3751941 L19.139407,16.4079017 L19.1595348,16.4406094 L19.1746307,16.4783489 L19.1872105,16.5186045 L19.1947584,16.5613759 L19.1997903,16.6066634 L19.2023063,16.6544668 L19.2023063,16.6922064 L18.9884489,16.6922064 L18.9884489,16.6594988 L18.9884489,16.6318231 L18.9859328,16.6041475 L18.9809009,16.5764717 L18.973353,16.553828 L18.9658051,16.5286683 L18.9557412,16.5085405 L18.9431613,16.4884128 L18.9280655,16.470801 L18.9154857,16.4557052 L18.8978738,16.4431253 L18.8777461,16.4330615 L18.8576183,16.4229975 L18.8349746,16.4154496 L18.8098149,16.4104177 L18.7846552,16.4053857 L18.7594955,16.4053857 L18.7318199,16.4053857 L18.7066601,16.4104177 L18.6840164,16.4129336 L18.6613727,16.4204815 L18.6387289,16.4305455 L18.6186011,16.4406094 L18.6009894,16.4557052 L18.5833776,16.470801 L18.5657658,16.4858968 L18.5531859,16.5009926 L18.540606,16.5186045 L18.5330581,16.5387322 L18.5255102,16.556344 L18.5204783,16.5789877 L18.5179623,16.5991155 L18.5179623,16.6217592 L18.5229943,16.6594988 L18.5380901,16.6997543 L18.5607339,16.7400098 L18.5959574,16.7827814 L18.6387289,16.8280688 L18.6915643,16.8733563 L18.7544636,16.9236756 L18.8249108,16.9739951 L18.8400066,16.981543 L18.8525864,16.9890909 L18.8651663,16.9966388 L18.8777461,17.0016707 L18.88781,17.0092186 L18.8978738,17.0142506 L18.9079378,17.0217985 L18.9154857,17.0268305 L18.9607731,17.0570221 L19.0010287,17.0872137 L19.0362522,17.1123735 L19.0714758,17.1400492 L19.0991515,17.1652088 L19.1217952,17.1903685 L19.141923,17.2130123 L19.1570188,17.235656 L19.1721147,17.2557838 L19.1872105,17.2759115 L19.1972744,17.2985553 L19.2073382,17.321199 L19.2148861,17.3488747 L19.2174021,17.3740344 L19.222434,17.4017101 L19.222434,17.4319017 L19.2199181,17.4822211 L19.2148861,17.5300245 L19.2048223,17.5727961 L19.1897265,17.6155675 L19.1695987,17.6533071 L19.1469549,17.6910467 L19.1217952,17.7212384 L19.0916036,17.75143 L19.0614119,17.7765897 L19.0236724,17.7992335 L18.9859328,17.8168452 L18.9431613,17.831941 L18.8953579,17.8445209 L18.8475545,17.8545847 L18.7947191,17.8596167 L18.7393678,17.8621327 L18.6840164,17.8596167 L18.6336969,17.8571007 L18.5858935,17.8470368 L18.543122,17.836973 L18.5028665,17.8218772 L18.4651269,17.8042654 L18.4299034,17.7816216 L18.3997117,17.7564619 L18.372036,17.7287863 L18.3493923,17.6960786 L18.3292646,17.660855 L18.3116528,17.6205995 L18.2990729,17.577828 L18.289009,17.5325405 L18.283977,17.4847371 L18.2814611,17.4319017 L18.2814611,17.4293857 L18.2814611,17.4268698 L18.2814611,17.4193219 L18.2814611,17.411774 L18.2814611,17.404226 L18.286493,17.3966781 L18.289009,17.3916462 L18.289009,17.3840983 L18.289009,17.3840983 Z" id="Shape" stroke="#FFFFFF" stroke-width="0.1" fill="#FFFFFF"></path>
                    <path d="M19.7583358,17.836973 L19.7583358,16.4305455 L19.3708763,16.4305455 L19.3708763,16.2670074 L20.3395249,16.2670074 L20.3395249,16.4305455 L19.9596134,16.4305455 L19.9596134,17.836973 L19.7583358,17.836973 L19.7583358,17.836973 Z" id="Shape" stroke="#FFFFFF" stroke-width="0.1" fill="#FFFFFF"></path>
                    <path d="M21.2402424,16.4431253 L21.2402424,16.9614153 L21.3987486,16.9614153 L21.444036,16.9614153 L21.4817756,16.9588993 L21.5195151,16.9538673 L21.5497068,16.9463194 L21.5798985,16.9387715 L21.6025422,16.9312236 L21.6226699,16.9211597 L21.6402818,16.9085798 L21.6528616,16.8909681 L21.6654415,16.8733563 L21.6755053,16.8507125 L21.6830532,16.8255528 L21.6906011,16.7978772 L21.6956331,16.7676855 L21.698149,16.7349779 L21.698149,16.6997543 L21.698149,16.6670467 L21.6956331,16.6343391 L21.6906011,16.6041475 L21.6830532,16.5789877 L21.6755053,16.556344 L21.6679574,16.5337003 L21.6578935,16.5186045 L21.6453137,16.5035086 L21.6327339,16.4884128 L21.615122,16.4758329 L21.5949943,16.465769 L21.5723505,16.4582211 L21.5471909,16.4506732 L21.5195151,16.4456413 L21.4893235,16.4431253 L21.4566159,16.4431253 L21.2402424,16.4431253 L21.2402424,16.4431253 Z M21.4566159,16.2670074 L21.5169992,16.2695234 L21.5723505,16.2720393 L21.6251859,16.2795872 L21.6704734,16.2921671 L21.7132448,16.3047469 L21.7509844,16.3223587 L21.7811761,16.3424865 L21.8088518,16.3651302 L21.8314955,16.3928059 L21.8516233,16.4229975 L21.869235,16.4582211 L21.8818149,16.4984766 L21.8943948,16.5412482 L21.9019427,16.5890516 L21.9044587,16.641887 L21.9069746,16.6997543 L21.9044587,16.7525897 L21.9019427,16.8054251 L21.8943948,16.8507125 L21.8818149,16.896 L21.869235,16.9337395 L21.8516233,16.9714791 L21.8314955,17.0041867 L21.8088518,17.0318624 L21.783692,17.0570221 L21.7535004,17.0796658 L21.7207928,17.0972776 L21.6855692,17.1123735 L21.6453137,17.1224374 L21.6000262,17.1325012 L21.5547388,17.1350172 L21.5019034,17.1375332 L21.2402424,17.1375332 L21.2402424,17.836973 L21.0314168,17.836973 L21.0314168,16.2670074 L21.4566159,16.2670074 L21.4566159,16.2670074 Z" id="Shape" stroke="#FFFFFF" stroke-width="0.1" fill="#FFFFFF"></path>
                    <path d="M22.2265028,17.2683636 L22.6718297,17.2683636 L22.4554562,16.5160885 L22.2265028,17.2683636 L22.2265028,17.2683636 Z M22.8353678,17.836973 L22.7296969,17.4570615 L22.1736675,17.4570615 L22.0629648,17.836973 L21.8415594,17.836973 L22.3321737,16.2670074 L22.5787388,16.2670074 L23.0567731,17.836973 L22.8353678,17.836973 L22.8353678,17.836973 Z" id="Shape" stroke="#FFFFFF" stroke-width="0.1" fill="#FFFFFF"></path>
                    <path d="M23.4366847,16.9463194 L23.5851269,16.9463194 L23.6253825,16.9463194 L23.663122,16.9438035 L23.6983456,16.9387715 L23.7310532,16.9312236 L23.7612448,16.9236756 L23.7889206,16.9110958 L23.8140803,16.898516 L23.834208,16.8809042 L23.8518199,16.8632924 L23.8694316,16.8431646 L23.8820115,16.8205209 L23.8920753,16.7953612 L23.9021392,16.7676855 L23.9071712,16.7374938 L23.9122031,16.7047863 L23.9122031,16.6720786 L23.9122031,16.6444029 L23.9096871,16.6167273 L23.9046552,16.5915675 L23.8971073,16.5689238 L23.8895594,16.5487961 L23.8794955,16.5261524 L23.8669157,16.5085405 L23.8543358,16.4909287 L23.8392399,16.4758329 L23.8191122,16.4632531 L23.7989844,16.4531892 L23.7763407,16.4456413 L23.751181,16.4380934 L23.7235053,16.4330615 L23.6958297,16.4305455 L23.665638,16.4305455 L23.4366847,16.4305455 L23.4366847,16.9463194 L23.4366847,16.9463194 Z M23.6379623,16.2670074 L23.6983456,16.2695234 L23.7536969,16.2720393 L23.8040164,16.2795872 L23.8518199,16.2896511 L23.8971073,16.3047469 L23.9373629,16.3198427 L23.9725864,16.3399705 L24.005294,16.3600983 L24.0304538,16.382742 L24.0530975,16.4104177 L24.0732252,16.4406094 L24.090837,16.4758329 L24.1034168,16.5135725 L24.1134808,16.553828 L24.1185127,16.5991155 L24.1210287,16.6469189 L24.1210287,16.6846585 L24.1159968,16.722398 L24.1109648,16.7551056 L24.1034168,16.7878133 L24.093353,16.8180049 L24.0807731,16.8456806 L24.0656773,16.8733563 L24.0505815,16.896 L24.0329697,16.9186437 L24.0153579,16.9412875 L23.9927142,16.9614153 L23.9675545,16.979027 L23.9423948,16.9941228 L23.9122031,17.0067027 L23.8794955,17.0192825 L23.8467878,17.0268305 L23.8769795,17.0318624 L23.9046552,17.0394103 L23.9323308,17.0469583 L23.9549746,17.0570221 L23.9751024,17.067086 L23.9927142,17.0796658 L24.0103259,17.0947616 L24.0229059,17.1098575 L24.0380017,17.1299853 L24.0505815,17.155145 L24.0606454,17.1828206 L24.0681933,17.2130123 L24.0757412,17.2457199 L24.0807731,17.2809435 L24.0832891,17.3186831 L24.0832891,17.3589385 L24.0832891,17.3664865 L24.0832891,17.3765504 L24.0832891,17.3866143 L24.0832891,17.3966781 L24.0832891,17.409258 L24.0832891,17.4193219 L24.0832891,17.4319017 L24.0832891,17.4444815 L24.0832891,17.4671253 L24.0807731,17.4872531 L24.0757412,17.5023489 L24.0757412,17.5149287 L24.0757412,17.5375725 L24.0782572,17.5602162 L24.0782572,17.5828599 L24.0807731,17.6029877 L24.0832891,17.6256315 L24.0832891,17.6457592 L24.0858051,17.665887 L24.088321,17.6860147 L24.090837,17.7061425 L24.0958689,17.7262703 L24.0983849,17.7438821 L24.1034168,17.7640098 L24.1059328,17.7816216 L24.1109648,17.8017494 L24.1159968,17.8193612 L24.1210287,17.836973 L23.9071712,17.836973 L23.8996233,17.8092973 L23.8945913,17.7791056 L23.8870434,17.7413661 L23.8845274,17.6985946 L23.8794955,17.6533071 L23.8769795,17.6004717 L23.8744636,17.5451204 L23.8744636,17.4822211 L23.8744636,17.4620934 L23.8744636,17.4444815 L23.8719476,17.4268698 L23.8719476,17.409258 L23.8694316,17.3916462 L23.8669157,17.3765504 L23.8669157,17.3639705 L23.8669157,17.3513906 L23.8669157,17.321199 L23.8643997,17.2935234 L23.8593678,17.2658476 L23.8543358,17.240688 L23.8467878,17.2205602 L23.8392399,17.2004325 L23.831692,17.1828206 L23.8216282,17.1702408 L23.8115643,17.1576609 L23.7964685,17.1475971 L23.7838886,17.1400492 L23.7662769,17.1325012 L23.748665,17.1249533 L23.7285373,17.1199214 L23.7058935,17.1174054 L23.6832498,17.1174054 L23.4366847,17.1174054 L23.4366847,17.836973 L23.2278591,17.836973 L23.2278591,16.2670074 L23.6379623,16.2670074 L23.6379623,16.2670074 Z" id="Shape" stroke="#FFFFFF" stroke-width="0.1" fill="#FFFFFF"></path>
                    <path d="M24.6770581,17.836973 L24.6770581,16.4305455 L24.2895987,16.4305455 L24.2895987,16.2670074 L25.2582473,16.2670074 L25.2582473,16.4305455 L24.8783358,16.4305455 L24.8783358,17.836973 L24.6770581,17.836973 L24.6770581,17.836973 Z" id="Shape" stroke="#FFFFFF" stroke-width="0.1" fill="#FFFFFF"></path>
                    <path d="M25.6834464,17.836973 L25.6834464,17.1752727 L25.2733431,16.2670074 L25.5073284,16.2670074 L25.8092448,17.0067027 L26.1212252,16.2670074 L26.3300508,16.2670074 L25.8998199,17.2029484 L25.8998199,17.836973 L25.6834464,17.836973 L25.6834464,17.836973 Z" id="Shape" stroke="#FFFFFF" stroke-width="0.1" fill="#FFFFFF"></path>
                </g>
            </g>
        </g>
    </g>
</svg>