<?xml version="1.0" encoding="UTF-8" standalone="no"?>
<svg width="30px" height="24px" viewBox="0 0 30 24" version="1.1" xmlns="http://www.w3.org/2000/svg" xmlns:xlink="http://www.w3.org/1999/xlink" xmlns:sketch="http://www.bohemiancoding.com/sketch/ns">
    <title>Slice 1</title>
    <description>Created with Sketch (http://www.bohemiancoding.com/sketch)</description>
    <defs></defs>
    <g id="Page-1" stroke="none" stroke-width="1" fill="none" fill-rule="evenodd" sketch:type="MSPage">
        <g id="TW" sketch:type="MSLayerGroup" transform="translate(3.000000, 0.000000)">
            <g id="Page-1" sketch:type="MSShapeGroup">
                <g id="600px-Taiwan_Solidarity_Union_logo">
                    <path d="M12,0 L12.613838,0.0141927853 L13.2205795,0.063867534 L13.8202247,0.138379657 L14.4092253,0.244825547 L14.9875813,0.379657008 L15.5552927,0.539325843 L16.1123596,0.730928445 L16.6587818,0.943820225 L17.187463,1.18509758 L17.7054997,1.4512123 L18.2057954,1.7421644 L18.6918983,2.05440568 L19.1638084,2.38793613 L19.6144293,2.74630396 L20.0508575,3.12241277 L20.4695446,3.51981076 L20.8633944,3.93849793 L21.2430514,4.37492608 L21.5978711,4.82909521 L21.9349497,5.29745713 L22.247191,5.78356002 L22.5345949,6.2874039 L22.8007096,6.80544057 L23.041987,7.33767002 L23.2548788,7.88054406 L23.4464814,8.43761088 L23.6061502,9.00532229 L23.7409817,9.58722649 L23.8474276,10.1762271 L23.9219397,10.7758723 L23.9716144,11.3826138 L23.9858072,12 L23.9716144,12.613838 L23.9219397,13.2205795 L23.8474276,13.8202247 L23.7409817,14.4092253 L23.6061502,14.9875813 L23.4464814,15.5552927 L23.2548788,16.1123596 L23.041987,16.6552336 L22.8007096,17.187463 L22.5345949,17.7054997 L22.247191,18.2057954 L21.9349497,18.6918983 L21.5978711,19.1638084 L21.2430514,19.6144293 L20.8633944,20.0508575 L20.4695446,20.4659965 L20.0508575,20.8633944 L19.6144293,21.2430514 L19.1638084,21.5978711 L18.6918983,21.9349497 L18.2057954,22.247191 L17.7054997,22.5345949 L17.187463,22.8007096 L16.6587818,23.041987 L16.1123596,23.2548788 L15.5552927,23.4464814 L14.9875813,23.6061502 L14.4092253,23.7409817 L13.8202247,23.8474276 L13.2205795,23.9219397 L12.613838,23.9716144 L12,23.9858072 L11.3826138,23.9716144 L10.7758723,23.9219397 L10.1762271,23.8474276 L9.58722649,23.7409817 L9.00532229,23.6061502 L8.43761088,23.4464814 L7.88054406,23.2548788 L7.33767002,23.041987 L6.80544057,22.8007096 L6.2874039,22.5345949 L5.78356002,22.247191 L5.29745713,21.9349497 L4.82909521,21.5978711 L4.37492608,21.2430514 L3.93849793,20.8633944 L3.51981076,20.4659965 L3.12241277,20.0508575 L2.74630396,19.6144293 L2.38793613,19.1638084 L2.05440568,18.6918983 L1.7421644,18.2057954 L1.4512123,17.7054997 L1.18509758,17.187463 L0.943820225,16.6552336 L0.730928445,16.1123596 L0.539325843,15.5552927 L0.379657008,14.9875813 L0.244825547,14.4092253 L0.138379657,13.8202247 L0.063867534,13.2205795 L0.0141927853,12.613838 L0,12 L0.0141927853,11.3826138 L0.063867534,10.7758723 L0.138379657,10.1762271 L0.244825547,9.58722649 L0.379657008,9.00532229 L0.539325843,8.43761088 L0.730928445,7.88054406 L0.943820225,7.33767002 L1.18509758,6.80544057 L1.4512123,6.2874039 L1.7421644,5.78356002 L2.05440568,5.29745713 L2.38793613,4.82909521 L2.74630396,4.37492608 L3.12241277,3.93849793 L3.51981076,3.51981076 L3.93849793,3.12241277 L4.37492608,2.74630396 L4.82909521,2.38793613 L5.29745713,2.05440568 L5.78356002,1.7421644 L6.2874039,1.4512123 L6.80544057,1.18509758 L7.33767002,0.943820225 L7.88054406,0.730928445 L8.43761088,0.539325843 L9.00532229,0.379657008 L9.58722649,0.244825547 L10.1762271,0.138379657 L10.7758723,0.063867534 L11.3826138,0.0141927853 L12,0 L12,0 Z" id="Shape" fill="#FFFFFF"></path>
                    <path d="M23.9290361,13.0538143 L21.7504435,14.1963335 L19.1034891,14.7143702 L19.1318746,14.6363099 L19.1638084,14.5547014 L19.192194,14.476641 L19.2170313,14.3950325 L19.2454169,14.313424 L19.2702543,14.2318155 L19.2950917,14.150207 L19.319929,14.0685985 L19.3412182,13.9869899 L19.3625074,13.9018332 L19.3837966,13.8202247 L19.4050857,13.7386162 L19.4263749,13.6534595 L19.4441159,13.5683028 L19.4618569,13.4831461 L19.4795979,13.3979894 L19.4937907,13.3163808 L19.5079834,13.2276759 L19.5221762,13.1425192 L19.536369,13.0573625 L19.5470136,12.9722058 L19.5576582,12.8835009 L19.5683028,12.7983442 L19.5753992,12.7096393 L19.5860438,12.6209344 L19.5931402,12.5322295 L19.5966884,12.4470727 L19.6037847,12.3583678 L19.6073329,12.2696629 L19.6073329,12.1774098 L19.6108811,12.0887049 L19.6108811,12 L19.6002365,11.6096984 L19.571851,11.222945 L19.5221762,10.843288 L19.4547605,10.4671792 L19.3696038,10.101715 L19.2667061,9.73979894 L19.1460674,9.3849793 L19.011236,9.04080426 L18.8551153,8.70017741 L18.6883501,8.37374335 L18.5038439,8.05440568 L18.3051449,7.7457126 L18.0922531,7.44411591 L17.8651685,7.156712 L17.6238912,6.87995269 L17.3719692,6.61383797 L17.1094027,6.36191603 L16.8326434,6.12063868 L16.5452395,5.89355411 L16.2436428,5.68066233 L15.9349497,5.48196334 L15.6156121,5.29745713 L15.289178,5.1306919 L14.9520993,4.97811946 L14.6079243,4.8397398 L14.2531047,4.71910112 L13.8947368,4.61620343 L13.5257244,4.53104672 L13.1531638,4.46363099 L12.7735068,4.41395624 L12.3903016,4.38557067 L12,4.37492608 L11.6096984,4.38557067 L11.222945,4.41395624 L10.8397398,4.46363099 L10.463631,4.53104672 L10.0981668,4.61620343 L9.73625074,4.71910112 L9.38143111,4.8397398 L9.03370787,4.97811946 L8.69662921,5.1306919 L8.36664695,5.29745713 L8.04730928,5.48196334 L7.7386162,5.68066233 L7.44056771,5.89355411 L7.15316381,6.12063868 L6.87640449,6.36191603 L6.61028977,6.61383797 L6.35836783,6.87995269 L6.11709048,7.156712 L5.89000591,7.44411591 L5.68066233,7.7457126 L5.48196334,8.05440568 L5.29745713,8.37374335 L5.1271437,8.70017741 L4.97457126,9.04080426 L4.8397398,9.3849793 L4.71910112,9.73979894 L4.61620343,10.101715 L4.53104672,10.4671792 L4.46363099,10.843288 L4.41395624,11.222945 L4.38557067,11.6096984 L4.37492608,12 L4.37492608,12.0461266 L4.37492608,12.0922531 L4.37492608,12.1419279 L4.37492608,12.1880544 L4.37492608,12.234181 L4.37492608,12.2803075 L4.37847428,12.3264341 L4.37847428,12.3690124 L4.37847428,12.415139 L4.38202247,12.4612655 L4.38557067,12.5073921 L4.38557067,12.5535186 L4.38911886,12.596097 L4.39266706,12.6422235 L4.39976345,12.6848019 L4.40331165,12.7309284 L0.156120639,13.9550562 L0.134831461,13.8379657 L0.117090479,13.717327 L0.0993494973,13.5966884 L0.085156712,13.4795979 L0.0709639267,13.3589592 L0.0567711413,13.2383205 L0.0461265523,13.1141336 L0.0354819633,12.993495 L0.0283855707,12.8728563 L0.0177409817,12.7486694 L0.0141927853,12.6244826 L0.00709639267,12.5002957 L0.00354819633,12.3761088 L0.00354819633,12.2519219 L0,12.1277351 L0,12 L0.0141927853,11.3826138 L0.063867534,10.7758723 L0.138379657,10.1762271 L0.244825547,9.58722649 L0.379657008,9.00532229 L0.539325843,8.43761088 L0.730928445,7.88054406 L0.943820225,7.33767002 L1.18509758,6.80544057 L1.4512123,6.2874039 L1.7421644,5.78356002 L2.05440568,5.29745713 L2.38793613,4.82909521 L2.74630396,4.37492608 L3.12241277,3.93849793 L3.51981076,3.51981076 L3.93849793,3.12241277 L4.37492608,2.74630396 L4.82909521,2.38793613 L5.29745713,2.05440568 L5.78356002,1.7421644 L6.2874039,1.4512123 L6.80544057,1.18509758 L7.33767002,0.943820225 L7.88054406,0.730928445 L8.43761088,0.539325843 L9.00532229,0.379657008 L9.58722649,0.244825547 L10.1762271,0.138379657 L10.7758723,0.063867534 L11.3826138,0.0141927853 L12,0 L12.613838,0.0141927853 L13.2205795,0.063867534 L13.8202247,0.138379657 L14.4092253,0.244825547 L14.9875813,0.379657008 L15.5552927,0.539325843 L16.1123596,0.730928445 L16.6587818,0.943820225 L17.187463,1.18509758 L17.7054997,1.4512123 L18.2057954,1.7421644 L18.6918983,2.05440568 L19.1638084,2.38793613 L19.6144293,2.74630396 L20.0508575,3.12241277 L20.4695446,3.51981076 L20.8633944,3.93849793 L21.2430514,4.37492608 L21.5978711,4.82909521 L21.9349497,5.29745713 L22.247191,5.78356002 L22.5345949,6.2874039 L22.8007096,6.80544057 L23.041987,7.33767002 L23.2548788,7.88054406 L23.4464814,8.43761088 L23.6061502,9.00532229 L23.7409817,9.58722649 L23.8474276,10.1762271 L23.9219397,10.7758723 L23.9716144,11.3826138 L23.9858072,12 L23.9858072,12.0674157 L23.9858072,12.1348315 L23.982259,12.2057954 L23.982259,12.2696629 L23.9787108,12.3370787 L23.9751626,12.4044944 L23.9716144,12.4719101 L23.9680662,12.5357776 L23.964518,12.6031934 L23.9609698,12.6670609 L23.9538734,12.7344766 L23.9503253,12.7983442 L23.9432289,12.8622117 L23.9396807,12.9260792 L23.9325843,12.9899468 L23.9290361,13.0538143 L23.9290361,13.0538143 Z" id="Shape" fill="#F58310"></path>
                    <path d="M23.4642224,15.5162626 L23.4926079,15.4275577 L23.5174453,15.3388527 L23.5458309,15.2501478 L23.5706682,15.1614429 L23.5955056,15.0691898 L23.620343,14.9804849 L23.6416322,14.8882318 L23.6664695,14.7995269 L23.6877587,14.7072738 L23.7090479,14.6150207 L23.7303371,14.5227676 L23.7480781,14.4305145 L23.7693672,14.3382614 L23.7871082,14.2424601 L23.8048492,14.150207 L23.8225902,14.0544057 L23.8403312,13.9621526 L23.854524,13.8663513 L23.8687167,13.7740982 L23.8829095,13.6782969 L23.8971023,13.5824956 L23.9112951,13.4866943 L23.9219397,13.390893 L23.9325843,13.2950917 L23.9432289,13.1992904 L23.9538734,13.1034891 L23.964518,13.0076878 L23.9716144,12.9118865 L23.982259,12.812537 L23.9893554,12.7167357 L23.9929036,12.6173862 L24,12.5215849 L23.5529273,12.759314 L23.1094027,12.9793022 L22.6729746,13.1850976 L22.2365464,13.373152 L21.8036665,13.5434654 L21.3743347,13.7031342 L20.9520993,13.8415139 L20.529864,13.969249 L20.1111768,14.0792431 L19.6960378,14.1750444 L19.2844471,14.2602011 L18.8764045,14.3276168 L18.4719101,14.3808397 L18.0709639,14.4234181 L17.6735659,14.4518037 L17.2761679,14.4695446 L16.8858664,14.4730928 L16.4955648,14.4659965 L16.1088114,14.4447073 L15.7256062,14.4127735 L15.3424009,14.3701952 L14.9662921,14.3169722 L14.5901833,14.2531047 L14.2176227,14.1785925 L13.8486103,14.0934358 L13.4795979,14.0011827 L13.1141336,13.898285 L12.7522176,13.7847428 L12.3903016,13.6641041 L12.035482,13.536369 L11.6806623,13.3979894 L11.3258427,13.2525133 L11.0171496,13.1283264 L10.7049083,13.011236 L10.3891189,12.9047901 L10.0697812,12.8054406 L9.74334713,12.7167357 L9.41691307,12.6351271 L9.08338261,12.560615 L8.74985216,12.4967475 L8.41277351,12.4435245 L8.07214666,12.397398 L7.72797161,12.3583678 L7.38024837,12.3264341 L7.03252513,12.3051449 L6.6812537,12.2909521 L6.32643406,12.2874039 L5.96806623,12.2874039 L5.6096984,12.2980485 L5.25133057,12.3193377 L4.88941455,12.344175 L4.52395033,12.379657 L4.1584861,12.4222354 L3.79302188,12.4719101 L3.42400946,12.5286813 L3.05499704,12.596097 L2.68598462,12.6706091 L2.31697221,12.7522176 L1.94441159,12.8409225 L1.57185098,12.9367238 L1.20283856,13.0396215 L0.830277942,13.1496156 L0.457717327,13.2702543 L0.085156712,13.3944412 L0.102897694,13.536369 L0.124186872,13.6782969 L0.149024246,13.8202247 L0.17386162,13.9621526 L0.198698995,14.1040804 L0.223536369,14.2460083 L0.25192194,14.3879361 L0.283855707,14.5263158 L0.315789474,14.6682436 L0.347723241,14.8066233 L0.383205204,14.945003 L0.418687167,15.0833826 L0.457717327,15.2217623 L0.496747487,15.3601419 L0.535777646,15.4949734 L0.578356002,15.6298048 L0.933175636,15.5162626 L1.28799527,15.4098167 L1.6463631,15.3104672 L2.00118273,15.2146659 L2.35600237,15.1295092 L2.7143702,15.0479007 L3.06918983,14.9733885 L3.42400946,14.9059728 L3.7788291,14.8456535 L4.13364873,14.7924305 L4.48492017,14.7427558 L4.8361916,14.7037256 L5.18746304,14.6717918 L5.53873448,14.6469545 L5.88290952,14.6292135 L6.23063276,14.6185689 L6.57480781,14.6150207 L6.91543465,14.6185689 L7.25251331,14.6292135 L7.58959196,14.6505027 L7.92312241,14.6788882 L8.25665287,14.7143702 L8.58308693,14.7569486 L8.9059728,14.8066233 L9.22885866,14.8669426 L9.54819633,14.9343584 L9.86043761,15.0088705 L10.1691307,15.0940272 L10.4778238,15.1862803 L10.7794205,15.289178 L11.0739208,15.3991721 L11.3684211,15.5162626 L11.6984033,15.651094 L12.0248374,15.7823773 L12.3548196,15.9065642 L12.6848019,16.0272028 L13.0147842,16.1407451 L13.3447664,16.2436428 L13.6747487,16.3429923 L14.0082791,16.4352454 L14.3453578,16.5204021 L14.6824364,16.5949143 L15.0230633,16.66233 L15.3672383,16.7191011 L15.7149616,16.7687759 L16.066233,16.807806 L16.4210526,16.8361916 L16.7829687,16.8574808 L17.1484329,16.8681254 L17.5174453,16.8645772 L17.8935541,16.8539326 L18.2767593,16.8290952 L18.6635127,16.7900651 L19.0609107,16.7439385 L19.4618569,16.6836192 L19.8734477,16.609107 L20.2921348,16.5204021 L20.7179184,16.4210526 L21.1507983,16.3075103 L21.5943229,16.1797753 L22.048492,16.0342992 L22.5097575,15.8781786 L22.9816677,15.704317 L23.4642224,15.5162626 L23.4642224,15.5162626 Z" id="Shape" fill="#2D79BE"></path>
                    <path d="M21.7362507,18.9793022 L21.7930219,18.8976937 L21.849793,18.8160852 L21.9065642,18.7344766 L21.9633353,18.6528681 L22.0201064,18.5712596 L22.0733294,18.4861029 L22.1265523,18.4044944 L22.1797753,18.3193377 L22.2329982,18.234181 L22.2862212,18.1490242 L22.3358959,18.0638675 L22.3891189,17.9787108 L22.4387936,17.8935541 L22.4884684,17.8048492 L22.5381431,17.7161443 L22.5842697,17.6309876 L22.6339444,17.5422827 L22.680071,17.4535778 L22.7261975,17.3648729 L22.7687759,17.2726198 L22.8149024,17.1839148 L22.8574808,17.0916617 L22.9036073,17.0029568 L22.9426375,16.9107037 L22.9852158,16.8184506 L23.0277942,16.7261975 L23.0668244,16.6339444 L23.1058545,16.5416913 L23.1448847,16.4494382 L23.1803666,16.3536369 L23.2193968,16.2613838 L23.2548788,16.1655825 L22.7829687,16.3394441 L22.3181549,16.499113 L21.8639858,16.644589 L21.4169131,16.7723241 L20.9804849,16.8894145 L20.5511532,16.9923122 L20.1289178,17.0810171 L19.7137788,17.1555293 L19.3092844,17.2193968 L18.9083383,17.2690716 L18.5144885,17.3081017 L18.1312833,17.3364873 L17.7516263,17.3542283 L17.3755174,17.3577765 L17.0100532,17.3542283 L16.6481372,17.3400355 L16.2897694,17.3151981 L15.9384979,17.2797161 L15.5943229,17.2371378 L15.2501478,17.1839148 L14.9130692,17.1271437 L14.5795387,17.0561798 L14.2531047,16.9816677 L13.9266706,16.9000591 L13.6037847,16.8113542 L13.2844471,16.7155529 L12.9686576,16.6126552 L12.6528681,16.5062093 L12.344175,16.3926671 L12.035482,16.2720284 L11.7267889,16.1513897 L11.421644,16.0236546 L11.1342401,15.9065642 L10.843288,15.8001183 L10.5487877,15.7007688 L10.2507392,15.6085157 L9.95269072,15.5269072 L9.65109403,15.452395 L9.34594914,15.3849793 L9.03725606,15.32466 L8.72856298,15.271437 L8.4163217,15.2288587 L8.09698403,15.1933767 L7.78119456,15.1649911 L7.45830869,15.143702 L7.13187463,15.1295092 L6.80544057,15.125961 L6.47545831,15.125961 L6.14192785,15.1366056 L5.8048492,15.1507983 L5.46422235,15.1756357 L5.12004731,15.2075695 L4.77587226,15.2430514 L4.42460083,15.289178 L4.07332939,15.3388527 L3.71496156,15.3991721 L3.35659373,15.4630396 L2.99467771,15.5375517 L2.62566529,15.6156121 L2.25665287,15.7007688 L1.88409225,15.7930219 L1.50798344,15.8923714 L1.12832643,15.9988173 L0.74512123,16.1088114 L0.798344175,16.2507392 L0.855115316,16.3926671 L0.911886458,16.5310467 L0.968657599,16.6694264 L1.02897694,16.807806 L1.08929627,16.9461857 L1.15316381,17.0810171 L1.22057954,17.2158486 L1.28444707,17.3506801 L1.3518628,17.4819633 L1.42282673,17.6132466 L1.49379066,17.7445299 L1.56475458,17.8758131 L1.63926671,18.0035482 L1.71377883,18.1312833 L1.78829095,18.2590183 L2.06150207,18.1774098 L2.33471319,18.1028977 L2.60792431,18.0319338 L2.88468362,17.964518 L3.16144293,17.9041987 L3.43820225,17.8509758 L3.71850976,17.801301 L4.00236546,17.7587226 L4.28267297,17.7232407 L4.56652868,17.6913069 L4.85038439,17.6629213 L5.13778829,17.6451804 L5.42519219,17.6274394 L5.71614429,17.620343 L6.00709639,17.6167948 L6.29804849,17.620343 L6.58900059,17.6274394 L6.88704908,17.6416322 L7.18154938,17.6629213 L7.47959787,17.6877587 L7.77764636,17.7232407 L8.07569486,17.7622708 L8.37729154,17.8048492 L8.68243643,17.854524 L8.98403312,17.9112951 L9.2927262,17.9751626 L9.59787108,18.0461266 L9.90656416,18.1206387 L10.2152572,18.2022472 L10.5274985,18.2909521 L10.8397398,18.3867534 L11.1555293,18.4861029 L11.4748669,18.5925488 L11.7906564,18.6954465 L12.1099941,18.7983442 L12.4257836,18.9012419 L12.741573,18.9970432 L13.0573625,19.0892963 L13.373152,19.1815494 L13.6889415,19.2667061 L14.0047309,19.3483146 L14.3205204,19.4263749 L14.6363099,19.4973389 L14.9556475,19.5612064 L15.271437,19.6215257 L15.5907747,19.6747487 L15.9136606,19.717327 L16.2365464,19.7563572 L16.5594323,19.7847428 L16.8858664,19.8060319 L17.2123004,19.8202247 L17.5422827,19.8237729 L17.8758131,19.8166765 L18.2093436,19.7989355 L18.5464222,19.77055 L18.8870491,19.7315198 L19.2312241,19.6818451 L19.5789474,19.6215257 L19.9302188,19.5470136 L20.2814902,19.4618569 L20.6398581,19.3625074 L21.0017741,19.2489651 L21.3672383,19.12123 L21.7362507,18.9793022 L21.7362507,18.9793022 Z" id="Shape" fill="#2D79BE"></path>
                    <path d="M17.9787108,22.3820225 L18.0887049,22.3181549 L18.2022472,22.2507392 L18.3122413,22.1833235 L18.4186872,22.1159077 L18.5286813,22.0449438 L18.6351271,21.9739799 L18.741573,21.903016 L18.8480189,21.8285038 L18.9544648,21.7539917 L19.0573625,21.6794796 L19.1602602,21.6049675 L19.2631579,21.5269072 L19.3625074,21.4488468 L19.4654051,21.3672383 L19.5647546,21.289178 L19.6641041,21.2075695 L19.7599054,21.1224128 L19.8557067,21.0408043 L19.9550562,20.9556475 L20.0473093,20.8704908 L20.1431106,20.7817859 L20.2353637,20.6966292 L20.3276168,20.6079243 L20.4198699,20.5156712 L20.5085748,20.4269663 L20.5972797,20.3347132 L20.6859846,20.2424601 L20.7746895,20.150207 L20.8598462,20.0544057 L20.9485512,19.9586044 L21.0301597,19.8628031 L21.1153164,19.7670018 L20.7746895,19.8734477 L20.4411591,19.9657008 L20.1040804,20.0508575 L19.7740982,20.1218214 L19.4405677,20.1821407 L19.1141336,20.2318155 L18.7876996,20.2743938 L18.4612655,20.3027794 L18.1383797,20.3240686 L17.8154938,20.3382614 L17.4926079,20.3382614 L17.1732703,20.3347132 L16.8539326,20.3205204 L16.5345949,20.2992312 L16.2152572,20.2708457 L15.8994678,20.2318155 L15.5801301,20.1892371 L15.2643406,20.1395624 L14.945003,20.0827912 L14.6292135,20.0224719 L14.313424,19.9550562 L13.9940863,19.8805441 L13.6782969,19.8024837 L13.3589592,19.7208752 L13.0396215,19.6357185 L12.7202839,19.5434654 L12.397398,19.4512123 L12.0780603,19.3518628 L11.7551745,19.2525133 L11.4287404,19.1496156 L11.1023063,19.0431697 L10.7758723,18.9367238 L10.5204021,18.8586635 L10.264932,18.7841514 L10.0059137,18.7131875 L9.74334713,18.6457717 L9.47723241,18.5854524 L9.21111768,18.5251331 L8.94145476,18.4719101 L8.67179184,18.4222354 L8.39858072,18.379657 L8.1253696,18.3370787 L7.85215849,18.3015967 L7.57539917,18.2696629 L7.29863986,18.2448255 L7.02188054,18.2235364 L6.74512123,18.2057954 L6.46481372,18.1916026 L6.18450621,18.1845062 L5.9077469,18.180958 L5.62743938,18.180958 L5.34713187,18.1880544 L5.07037256,18.2022472 L4.79006505,18.2199882 L4.51330574,18.2412774 L4.23654642,18.2696629 L3.95978711,18.3015967 L3.68657599,18.3370787 L3.41336487,18.3832052 L3.14015376,18.4293318 L2.87049083,18.4861029 L2.60082791,18.5464222 L2.33471319,18.6102898 L2.06859846,18.6812537 L2.16439976,18.8196334 L2.26374926,18.958013 L2.36309876,19.0928445 L2.46244826,19.2312241 L2.56889415,19.3625074 L2.67179184,19.4937907 L2.77823773,19.6250739 L2.88823182,19.752809 L2.9982259,19.8805441 L3.10821999,20.0082791 L3.22176227,20.132466 L3.33885275,20.2531047 L3.45239503,20.3737433 L3.57303371,20.4908338 L3.69012419,20.6079243 L3.81076286,20.7214666 L4.03784743,20.6717918 L4.2613838,20.6256653 L4.48846836,20.5866351 L4.71555293,20.547605 L4.94263749,20.5192194 L5.16972206,20.4908338 L5.39680662,20.4695446 L5.62389119,20.4518037 L5.85452395,20.4411591 L6.08160852,20.4340627 L6.31224128,20.4305145 L6.53932584,20.4340627 L6.7699586,20.4411591 L7.00059137,20.4518037 L7.23122413,20.4695446 L7.46185689,20.4908338 L7.69248965,20.5156712 L7.92312241,20.547605 L8.15375517,20.5830869 L8.38438794,20.6221171 L8.6150207,20.6682436 L8.84920166,20.7179184 L9.07983442,20.7746895 L9.31401538,20.8314607 L9.54464814,20.8953282 L9.7788291,20.9662921 L10.0130101,21.0408043 L10.247191,21.1188646 L10.481372,21.2004731 L10.7155529,21.289178 L10.9497339,21.3814311 L11.1839148,21.4807806 L11.3932584,21.5730337 L11.6061502,21.6581904 L11.819042,21.7433471 L12.0283856,21.8214075 L12.2412774,21.8994678 L12.4506209,21.9704317 L12.6635127,22.0378474 L12.8764045,22.101715 L13.0892963,22.1620343 L13.3021881,22.2188054 L13.5115316,22.2720284 L13.7244234,22.3217031 L13.9373152,22.3678297 L14.150207,22.4068598 L14.3630988,22.4423418 L14.5759905,22.4742756 L14.7888823,22.5026611 L15.0017741,22.5274985 L15.2146659,22.5452395 L15.4275577,22.5629805 L15.6404494,22.5700769 L15.8533412,22.5771733 L16.066233,22.5807215 L16.2791248,22.5771733 L16.4920166,22.5700769 L16.7049083,22.5558841 L16.9178001,22.5381431 L17.1306919,22.5168539 L17.3400355,22.4920166 L17.5529273,22.4600828 L17.765819,22.4246008 L17.9787108,22.3820225 L17.9787108,22.3820225 Z" id="Shape" fill="#2D79BE"></path>
                    <path d="M16.4884684,23.0987581 L16.3571851,23.1519811 L16.22945,23.2016558 L16.0981668,23.2513306 L15.9633353,23.2974571 L15.832052,23.3435837 L15.6972206,23.3897102 L15.5623891,23.4322886 L15.4275577,23.4748669 L15.2927262,23.5138971 L15.1578947,23.5529273 L15.0195151,23.5884092 L14.8811354,23.6238912 L14.7427558,23.655825 L14.6043761,23.6877587 L14.4659965,23.7196925 L14.3240686,23.7480781 L14.1821407,23.7729154 L14.0437611,23.7977528 L13.9018332,23.8225902 L13.7599054,23.8438794 L13.6144293,23.8651685 L13.4725015,23.8829095 L13.3270254,23.9006505 L13.1850976,23.9148433 L13.0396215,23.9290361 L12.8941455,23.9396807 L12.7486694,23.9503253 L12.6031934,23.9574216 L12.4541691,23.964518 L12.3086931,23.9680662 L12.163217,23.9716144 L12.0141928,23.9716144 L11.7374335,23.9680662 L11.4642224,23.9574216 L11.1945594,23.9432289 L10.9248965,23.9219397 L10.6552336,23.8935541 L10.3891189,23.8616203 L10.1230041,23.8225902 L9.86043761,23.7764636 L9.59787108,23.7267889 L9.33885275,23.6700177 L9.07983442,23.6061502 L8.82436428,23.5387345 L8.57244234,23.4677705 L8.3240686,23.3897102 L8.07569486,23.3045535 L7.82732111,23.2158486 L7.58604376,23.1200473 L7.34476641,23.0206978 L7.10703726,22.9178001 L6.8693081,22.807806 L6.63867534,22.6942637 L6.40804258,22.5736251 L6.18095801,22.4494382 L5.95742164,22.3217031 L5.73388527,22.1868717 L5.5174453,22.0520402 L5.30100532,21.9065642 L5.08811354,21.7610881 L4.88231815,21.6085157 L4.67652277,21.452395 L4.47427558,21.2927262 L4.27557658,21.1295092 L4.46717918,21.0940272 L4.66232998,21.0585452 L4.86102898,21.0301597 L5.05617978,21.0017741 L5.25487877,20.9804849 L5.45712596,20.9591957 L5.65937315,20.9414548 L5.86162034,20.9308102 L6.06741573,20.9237138 L6.27321112,20.9166174 L6.4825547,20.9166174 L6.69189829,20.9237138 L6.90124187,20.9308102 L7.11768185,20.945003 L7.33057363,20.9627439 L7.5470136,20.9840331 L7.76700177,21.0124187 L7.98698995,21.0443525 L8.21052632,21.0798344 L8.43406268,21.1224128 L8.66114725,21.1720875 L8.89178001,21.2217623 L9.12241277,21.2820816 L9.35304554,21.3459491 L9.59077469,21.4169131 L9.82850384,21.4914252 L10.066233,21.5730337 L10.3075103,21.6617386 L10.5523359,21.7539917 L10.7971614,21.8533412 L11.0455352,21.9597871 L11.2974571,22.0733294 L11.4535778,22.1442933 L11.6132466,22.2152572 L11.7693672,22.282673 L11.9290361,22.3500887 L12.0851567,22.410408 L12.2448255,22.4707274 L12.4044944,22.5274985 L12.5641632,22.5842697 L12.7238321,22.6374926 L12.8835009,22.6871674 L13.0431697,22.7332939 L13.2028386,22.7758723 L13.3660556,22.8184506 L13.5257244,22.8574808 L13.6889415,22.8965109 L13.8521585,22.9284447 L14.0118273,22.9603785 L14.1750444,22.988764 L14.3382614,23.0136014 L14.5014784,23.0384388 L14.6646954,23.059728 L14.8279125,23.077469 L14.9946777,23.0916617 L15.1578947,23.1023063 L15.32466,23.1129509 L15.487877,23.1200473 L15.6546422,23.1235955 L15.8214075,23.1235955 L15.9881727,23.1200473 L16.1549379,23.1164991 L16.3217031,23.1094027 L16.4884684,23.0987581 L16.4884684,23.0987581 Z" id="Shape" fill="#2D79BE"></path>
                    <path d="M15.4311059,11.6487286 L15.4417504,11.584861 L15.4594914,11.5209935 L15.4772324,11.4642224 L15.4985216,11.403903 L15.5198108,11.3506801 L15.5446481,11.2974571 L15.5694855,11.2442342 L15.5978711,11.1910112 L15.6262567,11.1413365 L15.6546422,11.0881135 L15.6830278,11.0384388 L15.7114134,10.988764 L15.7433471,10.9355411 L15.7717327,10.8823182 L15.8001183,10.8290952 L15.8249556,10.7758723 L15.8604376,10.7013601 L15.8923714,10.6232998 L15.9172088,10.5416913 L15.9420461,10.4565346 L15.9597871,10.3713779 L15.9775281,10.2862212 L15.9881727,10.2010645 L15.9952691,10.1159077 L15.9952691,10.030751 L15.9952691,9.94914252 L15.9881727,9.867534 L15.9775281,9.78947368 L15.9633353,9.71141336 L15.9455943,9.64044944 L15.9243051,9.57303371 L15.8959196,9.50916617 L15.8356002,9.37078652 L15.7894737,9.22885866 L15.7610881,9.09047901 L15.7504435,8.94855115 L15.7539917,8.8101715 L15.7681845,8.67179184 L15.7965701,8.53341218 L15.8391484,8.39503253 L15.8888232,8.26020106 L15.9491425,8.12182141 L16.0165582,7.99053814 L16.0910704,7.85570668 L16.1726789,7.72442342 L16.2613838,7.59668835 L16.3536369,7.46895328 L16.44589,7.34476641 L16.5168539,7.24541691 L16.5807215,7.13897102 L16.6339444,7.02897694 L16.6836192,6.91543465 L16.7261975,6.79834418 L16.7616795,6.6812537 L16.7936132,6.56061502 L16.8149024,6.43997635 L16.8326434,6.32288587 L16.843288,6.20579539 L16.8468362,6.08870491 L16.8468362,5.97516263 L16.8397398,5.86871674 L16.825547,5.76227085 L16.807806,5.66292135 L16.7829687,5.57066824 L16.7616795,5.48196334 L16.7439385,5.39680662 L16.7332939,5.31519811 L16.7297457,5.23713779 L16.7332939,5.16262567 L16.7403903,5.09166174 L16.7545831,5.02069781 L16.7723241,4.94973389 L16.7971614,4.88586635 L16.8219988,4.82199882 L16.8539326,4.75813128 L16.8858664,4.69781195 L16.9248965,4.63749261 L16.9639267,4.57717327 L17.006505,4.51685393 L17.0490834,4.46008279 L17.0810171,4.39976345 L17.1023063,4.31105855 L17.1164991,4.20106446 L17.1164991,4.07332939 L17.1058545,3.93140154 L17.0881135,3.78237729 L17.0561798,3.62270846 L17.0136014,3.46303962 L16.9603785,3.30691898 L16.8929627,3.15434654 L16.8149024,3.00887049 L16.7261975,2.88113542 L16.626848,2.76759314 L16.5133057,2.67888823 L16.3855707,2.6114725 L16.247191,2.57599054 L16.1620343,2.56179775 L16.0804258,2.55115316 L16.0059137,2.53696038 L15.9314015,2.52631579 L15.8604376,2.512123 L15.7894737,2.49438202 L15.7256062,2.47664104 L15.6581904,2.45535186 L15.5978711,2.43051449 L15.5340035,2.40212892 L15.4736842,2.37019515 L15.4098167,2.33471319 L15.3494973,2.29213483 L15.289178,2.24246008 L15.2288587,2.18923714 L15.1649911,2.1253696 L15.1188646,2.08633944 L15.0656416,2.04730928 L15.0017741,2.01537552 L14.9308102,1.99053814 L14.8527499,1.96924897 L14.7711413,1.95150798 L14.6859846,1.94086339 L14.5972797,1.933767 L14.5085748,1.9373152 L14.4234181,1.94441159 L14.3382614,1.95860438 L14.2566529,1.97989355 L14.1821407,2.00827912 L14.1111768,2.04376109 L14.0508575,2.08633944 L13.9976345,2.13956239 L13.9053814,2.23891189 L13.8024837,2.33826138 L13.6960378,2.43406268 L13.5860438,2.52986399 L13.4725015,2.62211709 L13.3518628,2.710822 L13.2312241,2.79597871 L13.1070373,2.88113542 L12.9793022,2.95919574 L12.8551153,3.03370787 L12.7309284,3.1011236 L12.6067416,3.16499113 L12.4861029,3.22176227 L12.3654642,3.27143702 L12.2519219,3.31401538 L12.1419279,3.34949734 L12.0248374,3.3849793 L11.9290361,3.41336487 L11.8474276,3.43820225 L11.78356,3.46303962 L11.7338853,3.487877 L11.6984033,3.51271437 L11.6700177,3.54109994 L11.6522768,3.56948551 L11.6416322,3.60496747 L11.6345358,3.64754583 L11.6309876,3.69367238 L11.6309876,3.75044352 L11.6274394,3.81431106 L11.6274394,3.89237138 L11.620343,3.97752809 L11.6061502,4.08042578 L11.5919574,4.1655825 L11.5706682,4.25073921 L11.5493791,4.34299231 L11.5209935,4.43524542 L11.4890597,4.53104672 L11.4535778,4.63039622 L11.4145476,4.72619752 L11.3719692,4.82199882 L11.3222945,4.91780012 L11.2690716,5.01005322 L11.2123004,5.10230633 L11.1519811,5.19101124 L11.0845653,5.27616795 L11.0171496,5.35422827 L10.9390893,5.43228859 L10.861029,5.49970432 L10.7936132,5.55292726 L10.7261975,5.6096984 L10.6552336,5.66646954 L10.5842697,5.72678888 L10.5168539,5.79065642 L10.4494382,5.85807215 L10.3820225,5.93258427 L10.3146067,6.00709639 L10.2542874,6.08870491 L10.1975163,6.17740982 L10.1407451,6.26966292 L10.0946186,6.37256062 L10.048492,6.47900651 L10.0130101,6.59609698 L9.98107629,6.72028386 L9.95978711,6.85156712 L9.94559432,6.94027203 L9.93140154,7.02897694 L9.91720875,7.12123004 L9.90301597,7.20638675 L9.88527499,7.29509166 L9.867534,7.38024837 L9.84624483,7.46540509 L9.82495565,7.5505618 L9.80011827,7.63217031 L9.7717327,7.71023063 L9.74334713,7.78829095 L9.71141336,7.86280308 L9.6759314,7.933767 L9.64044944,8.00473093 L9.59787108,8.06859846 L9.55174453,8.132466 L9.53045535,8.15730337 L9.50916617,8.18214075 L9.4843288,8.21407451 L9.45594323,8.24246008 L9.42755766,8.27794205 L9.39562389,8.31697221 L9.36369012,8.35600237 L9.33175636,8.39858072 L9.29627439,8.44470727 L9.26079243,8.49438202 L9.22531047,8.54760497 L9.18628031,8.60792431 L9.15079834,8.66824364 L9.11531638,8.73211118 L9.07983442,8.8030751 L9.04435245,8.87758723 L9.03370787,8.8988764 L9.02306328,8.92371378 L9.00887049,8.95564755 L8.99467771,8.98758131 L8.97693672,9.02661147 L8.95564755,9.06564163 L8.93435837,9.10467179 L8.90952099,9.14725015 L8.88113542,9.1933767 L8.85274985,9.23595506 L8.82436428,9.28208161 L8.78888232,9.32465996 L8.75340035,9.36723832 L8.71791839,9.40626848 L8.67888823,9.44529864 L8.63630988,9.4807806 L8.6114725,9.50206978 L8.58308693,9.52335896 L8.55470136,9.55174453 L8.5192194,9.5801301 L8.48728563,9.61206387 L8.44825547,9.64754583 L8.41277351,9.69012419 L8.37729154,9.73270254 L8.33826138,9.7788291 L8.29923122,9.83205204 L8.26374926,9.88527499 L8.2282673,9.94559432 L8.19278533,10.0094619 L8.16085157,10.0768776 L8.132466,10.1478415 L8.10408043,10.2259018 L8.07924305,10.2933176 L8.05440568,10.3607333 L8.0295683,10.4316972 L8.00118273,10.5062093 L7.97279716,10.5771733 L7.94441159,10.6516854 L7.91602602,10.7261975 L7.88409225,10.8007096 L7.84861029,10.87877 L7.81312833,10.9532821 L7.77764636,11.0313424 L7.7386162,11.1058545 L7.69958604,11.1839148 L7.65700769,11.258427 L7.61442933,11.3329391 L7.56830278,11.4074512 L7.51862803,11.4926079 L7.47604967,11.5742164 L7.43347132,11.655825 L7.39444116,11.7374335 L7.3589592,11.819042 L7.32347723,11.9041987 L7.29509166,11.9893554 L7.26670609,12.0745121 L7.24186872,12.1667652 L7.22057954,12.2590183 L7.20283856,12.3548196 L7.18509758,12.4577173 L7.17445299,12.5641632 L7.1602602,12.6741573 L7.15316381,12.7912478 L7.14606742,12.9154347 L7.13897102,13.0005914 L7.13542283,13.0892963 L7.12832643,13.1815494 L7.12477824,13.2702543 L7.11768185,13.3625074 L7.11413365,13.4583087 L7.10703726,13.55411 L7.10348906,13.6499113 L7.09994086,13.7492608 L7.09284447,13.8450621 L7.08929627,13.9444116 L7.08574808,14.0437611 L7.07865169,14.1431106 L7.07510349,14.2424601 L7.07155529,14.3453578 L7.07155529,14.4447073 L7.0680071,14.5440568 L7.0644589,14.6469545 L7.0609107,14.746304 L7.0609107,14.8456535 L7.0609107,14.945003 L7.0609107,15.0443525 L7.0609107,15.1401538 L7.0609107,15.2395033 L7.0609107,15.3353046 L7.0644589,15.4275577 L7.0644589,15.523359 L7.0680071,15.6156121 L7.07155529,15.704317 L7.07865169,15.7930219 L7.08219988,15.8817268 L7.08929627,15.9668835 L7.09639267,16.048492 L7.10703726,16.1301005 L7.12123004,16.211709 L7.13897102,16.2968658 L7.156712,16.3820225 L7.18154938,16.463631 L7.20638675,16.5523359 L7.23832052,16.6374926 L7.27025429,16.7226493 L7.30573625,16.8113542 L7.34121821,16.9000591 L7.38379657,16.9852158 L7.42637493,17.0739208 L7.47250148,17.1626257 L7.52217623,17.2513306 L7.57185098,17.3400355 L7.62507392,17.4287404 L7.68184506,17.5174453 L7.7386162,17.6061502 L7.79893554,17.6948551 L7.86280308,17.78356 L7.92667061,17.8722649 L7.99053814,17.9574216 L8.06150207,18.0461266 L8.1289178,18.1312833 L8.19988173,18.2199882 L8.27439385,18.3051449 L8.34890597,18.3903016 L8.42696629,18.4754583 L8.50502661,18.5570668 L8.58308693,18.6422235 L8.66469545,18.7238321 L8.73565937,18.7912478 L8.8066233,18.8622117 L8.87758723,18.9331756 L8.94855115,19.0041396 L9.01951508,19.0751035 L9.0940272,19.1496156 L9.16499113,19.2205795 L9.23595506,19.2950917 L9.30691898,19.3696038 L9.37788291,19.4441159 L9.44884684,19.518628 L9.51626257,19.5931402 L9.58722649,19.6712005 L9.65109403,19.7457126 L9.71850976,19.8237729 L9.78237729,19.898285 L9.84269663,19.9763454 L9.90301597,20.0544057 L9.9633353,20.132466 L10.0201064,20.2069781 L10.0733294,20.2850384 L10.1230041,20.3630988 L10.1726789,20.4411591 L10.2188054,20.5192194 L10.2613838,20.5937315 L10.300414,20.6717918 L10.3394441,20.7498522 L10.3713779,20.8243643 L10.3997635,20.9024246 L10.428149,20.9769367 L10.4494382,21.054997 L10.4671792,21.1295092 L10.4884684,21.2111177 L10.5133057,21.2962744 L10.5487877,21.3849793 L10.5913661,21.4736842 L10.6374926,21.5623891 L10.6871674,21.651094 L10.7439385,21.7397989 L10.8007096,21.8249556 L10.8645772,21.9065642 L10.9284447,21.9846245 L10.9958604,22.0555884 L11.059728,22.1230041 L11.1271437,22.1797753 L11.1945594,22.22945 L11.2619752,22.2684802 L11.3258427,22.2968658 L11.3684211,22.3075103 L11.421644,22.3110585 L11.4855115,22.3146067 L11.5600237,22.3146067 L11.6416322,22.3075103 L11.7267889,22.2968658 L11.8154938,22.2791248 L11.9077469,22.2542874 L11.9964518,22.2259018 L12.0816085,22.1904199 L12.163217,22.1442933 L12.2412774,22.0910704 L12.3086931,22.030751 L12.361916,21.9633353 L12.4080426,21.8817268 L12.4364281,21.7930219 L12.4435245,21.7397989 L12.4435245,21.6794796 L12.4364281,21.6120639 L12.4222354,21.5410999 L12.4044944,21.4665878 L12.3832052,21.3885275 L12.3583678,21.3104672 L12.3335305,21.2288587 L12.3015967,21.1472501 L12.2732111,21.0691898 L12.2412774,20.9911295 L12.2128918,20.9166174 L12.1845062,20.8456535 L12.1561206,20.7782377 L12.1348315,20.7179184 L12.1135423,20.6646954 L12.0958013,20.6185689 L12.0816085,20.5688941 L12.0638675,20.5156712 L12.0496747,20.4589001 L12.035482,20.3985807 L12.0212892,20.3382614 L12.0106446,20.277942 L12.0035482,20.2140745 L11.9929036,20.150207 L11.9893554,20.0863394 L11.9858072,20.0189237 L11.9893554,19.9550562 L11.9929036,19.8911886 L12,19.8308693 L12.0106446,19.77055 L12.0283856,19.7102306 L12.0461266,19.6605559 L12.0638675,19.6108811 L12.0851567,19.5612064 L12.1064459,19.5115316 L12.1277351,19.4583087 L12.1490242,19.4086339 L12.1703134,19.355411 L12.1951508,19.3057363 L12.2128918,19.2560615 L12.234181,19.2063868 L12.2483737,19.156712 L12.2661147,19.1105855 L12.2767593,19.0644589 L12.2874039,19.0183323 L12.2909521,18.975754 L12.2945003,18.9367238 L12.2980485,18.8764045 L12.3086931,18.8160852 L12.3193377,18.759314 L12.3335305,18.7060911 L12.3512714,18.6528681 L12.3690124,18.6031934 L12.3903016,18.5570668 L12.4115908,18.5144885 L12.4364281,18.4719101 L12.4612655,18.43288 L12.4861029,18.397398 L12.5109403,18.3654642 L12.5357776,18.3335305 L12.560615,18.3051449 L12.5819042,18.2803075 L12.6031934,18.2590183 L12.6493199,18.21644 L12.6918983,18.1703134 L12.7380248,18.1206387 L12.7806032,18.0709639 L12.8231815,18.0212892 L12.8622117,17.9680662 L12.9047901,17.9148433 L12.9438202,17.8580721 L12.9828504,17.8048492 L13.0183323,17.7480781 L13.0538143,17.6913069 L13.0892963,17.6345358 L13.12123,17.5777646 L13.1531638,17.5245417 L13.1815494,17.4677705 L13.2099349,17.4145476 L13.2525133,17.3400355 L13.2950917,17.2655234 L13.3447664,17.1910112 L13.3944412,17.1200473 L13.4476641,17.0526316 L13.5044352,16.9852158 L13.5612064,16.9213483 L13.6215257,16.8539326 L13.6782969,16.7936132 L13.7421644,16.7332939 L13.8024837,16.6729746 L13.8628031,16.6162034 L13.9231224,16.5594323 L13.9834418,16.5062093 L14.0402129,16.4529864 L14.096984,16.4033116 L14.2672975,16.2329982 L14.4163217,16.0768776 L14.5440568,15.9278533 L14.6505027,15.7859255 L14.7392076,15.6546422 L14.8101715,15.5304554 L14.8669426,15.4169131 L14.909521,15.306919 L14.9414548,15.2075695 L14.9662921,15.1117682 L14.9804849,15.0230633 L14.9911295,14.9379066 L14.9946777,14.856298 L14.9946777,14.7817859 L14.9982259,14.710822 L14.9982259,14.6434063 L14.9982259,14.5156712 L15.0017741,14.3843879 L15.0017741,14.2531047 L15.0017741,14.1182732 L15.0053223,13.9834418 L15.0053223,13.8486103 L15.0088705,13.7137788 L15.0124187,13.5824956 L15.0195151,13.4512123 L15.0266115,13.3234772 L15.0337079,13.1992904 L15.0479007,13.0786517 L15.0620934,12.9615612 L15.0762862,12.8480189 L15.0975754,12.7451212 L15.1224128,12.6457717 L15.1401538,12.5712596 L15.1614429,12.5002957 L15.1827321,12.4293318 L15.2075695,12.3583678 L15.2288587,12.2909521 L15.253696,12.2235364 L15.2749852,12.1596688 L15.2998226,12.0922531 L15.3211118,12.0319338 L15.3424009,11.9716144 L15.3636901,11.9112951 L15.3814311,11.854524 L15.3956239,11.801301 L15.4098167,11.7480781 L15.4240095,11.6984033 L15.4311059,11.6487286 L15.4311059,11.6487286 Z" id="Shape" fill="#D09E51"></path>
                    <path d="M15.7256062,10.7261975 L15.722058,10.7297457 L15.7007688,10.7794205 L15.6723832,10.8326434 L15.6439976,10.8858664 L15.6120639,10.9319929 L15.5836783,10.9816677 L15.5552927,11.0313424 L15.5269072,11.0845653 L15.4985216,11.1342401 L15.470136,11.1945594 L15.4452986,11.2477824 L15.4133649,11.3116499 L15.3920757,11.3648729 L15.3707865,11.4251922 L15.3530455,11.4855115 L15.3317564,11.5600237 L15.3211118,11.6309876 L15.5410999,11.6664695 L15.5517445,11.6096984 L15.5659373,11.5564755 L15.5836783,11.5032525 L15.6049675,11.4429332 L15.6262567,11.3897102 L15.6439976,11.3471319 L15.668835,11.2939089 L15.6972206,11.2477824 L15.7256062,11.1981076 L15.7539917,11.1448847 L15.7823773,11.0952099 L15.8107629,11.0455352 L15.8426966,10.9852158 L15.8710822,10.9319929 L15.8994678,10.87877 L15.9278533,10.8219988 L15.9243051,10.825547 L15.7256062,10.7261975 L15.7256062,10.7261975 Z" id="Shape" fill="#FFFFFF"></path>
                    <path d="M15.7965701,9.55884092 L15.7965701,9.55884092 L15.8214075,9.61916026 L15.8391484,9.67238321 L15.8533412,9.73270254 L15.867534,9.81076286 L15.8781786,9.87817859 L15.885275,9.95978711 L15.8817268,10.030751 L15.885275,10.1052632 L15.8781786,10.1904199 L15.867534,10.2684802 L15.849793,10.3429923 L15.832052,10.428149 L15.8107629,10.5062093 L15.7859255,10.5842697 L15.7575399,10.6552336 L15.7256062,10.7261975 L15.9243051,10.825547 L15.9633353,10.7474867 L15.9988173,10.66233 L16.0236546,10.5771733 L16.0520402,10.4849202 L16.0697812,10.3997635 L16.0875222,10.3039622 L16.0981668,10.211709 L16.1052632,10.1265523 L16.1088114,10.030751 L16.1052632,9.93849793 L16.0981668,9.85688941 L16.0875222,9.76818451 L16.0733294,9.69012419 L16.0520402,9.60851567 L16.0272028,9.52690716 L15.9952691,9.45949143 L15.7965701,9.55884092 L15.7965701,9.55884092 Z" id="Shape" fill="#FFFFFF"></path>
                    <path d="M16.3571851,7.27735068 L16.3571851,7.27735068 L16.2613838,7.40508575 L16.1691307,7.53282082 L16.0804258,7.66055588 L15.9952691,7.79893554 L15.9172088,7.9373152 L15.8462448,8.07214666 L15.7859255,8.21762271 L15.7327025,8.35600237 L15.686576,8.50502661 L15.6581904,8.65405086 L15.6404494,8.8066233 L15.6369012,8.95209935 L15.651094,9.10821999 L15.6794796,9.25724423 L15.7327025,9.41336487 L15.7965701,9.55884092 L15.9952691,9.45949143 L15.9384979,9.32820816 L15.8994678,9.20047309 L15.8710822,9.07273802 L15.8639858,8.94500296 L15.867534,8.81371969 L15.8781786,8.68953282 L15.9065642,8.56179775 L15.9455943,8.43406268 L15.9917209,8.30277942 L16.0520402,8.17149616 L16.1159077,8.04376109 L16.1868717,7.91247782 L16.264932,7.78829095 L16.3536369,7.66055588 L16.44589,7.53282082 L16.5345949,7.41218214 L16.3571851,7.27735068 L16.3571851,7.27735068 Z" id="Shape" fill="#FFFFFF"></path>
                    <path d="M16.6765228,5.60260201 L16.6765228,5.60260201 L16.6978119,5.68775872 L16.7155529,5.77646363 L16.7297457,5.88290952 L16.7332939,5.98225902 L16.7332939,6.08870491 L16.7297457,6.19869899 L16.7226493,6.30869308 L16.7049083,6.42223536 L16.6836192,6.53577765 L16.6552336,6.64931993 L16.6197516,6.75931402 L16.5807215,6.8693081 L16.5310467,6.98285038 L16.481372,7.08574808 L16.4246008,7.18154938 L16.3571851,7.27735068 L16.5345949,7.41218214 L16.609107,7.30928445 L16.680071,7.19219397 L16.7368421,7.07510349 L16.7865169,6.96156121 L16.8326434,6.83737433 L16.8681254,6.71318746 L16.9036073,6.5854524 L16.9248965,6.45771733 L16.9426375,6.33707865 L16.9568303,6.21289178 L16.9603785,6.08870491 L16.9603785,5.96806623 L16.9497339,5.85452395 L16.9355411,5.74807806 L16.9178001,5.63808397 L16.8894145,5.53873448 L16.6765228,5.60260201 L16.6765228,5.60260201 Z" id="Shape" fill="#FFFFFF"></path>
                    <path d="M16.9603785,4.39266706 L16.9603785,4.39266706 L16.9178001,4.4494382 L16.8716736,4.51330574 L16.8326434,4.57362507 L16.7865169,4.644589 L16.7545831,4.70490834 L16.7191011,4.77587226 L16.6942637,4.8397398 L16.6658782,4.91780012 L16.644589,4.99940863 L16.6303962,5.07037256 L16.6232998,5.15198108 L16.6162034,5.23713779 L16.6232998,5.3258427 L16.6339444,5.4145476 L16.6516854,5.51034891 L16.6765228,5.60260201 L16.8894145,5.53873448 L16.8716736,5.45357776 L16.8539326,5.37906564 L16.843288,5.30455352 L16.843288,5.23713779 L16.843288,5.17327025 L16.8503844,5.11295092 L16.8645772,5.04198699 L16.87877,4.98166765 L16.9000591,4.9319929 L16.9248965,4.86812537 L16.9532821,4.81135423 L16.9852158,4.75103489 L17.0171496,4.70136014 L17.0561798,4.6410408 L17.0952099,4.58426966 L17.1377883,4.52749852 L16.9603785,4.39266706 L16.9603785,4.39266706 Z" id="Shape" fill="#FFFFFF"></path>
                    <path d="M16.22945,2.68598462 L16.2329982,2.68598462 L16.3465405,2.71791839 L16.4529864,2.77468953 L16.5487877,2.84920166 L16.6374926,2.94855115 L16.7191011,3.06918983 L16.7900651,3.20402129 L16.8574808,3.34949734 L16.9071555,3.49852158 L16.9461857,3.64754583 L16.9781195,3.80366647 L16.9958604,3.94204613 L17.0029568,4.08042578 L17.0029568,4.19396807 L16.9923122,4.28622117 L16.9745713,4.36073329 L16.9603785,4.39266706 L17.1377883,4.52749852 L17.187463,4.43879361 L17.2123004,4.33589592 L17.2300414,4.20816085 L17.2300414,4.066233 L17.2158486,3.92075695 L17.1981076,3.76108811 L17.1661739,3.59787108 L17.1200473,3.42755766 L17.0632762,3.26434063 L16.9958604,3.10467179 L16.9107037,2.94855115 L16.8149024,2.81371969 L16.7049083,2.68598462 L16.5736251,2.58308693 L16.4246008,2.50502661 L16.2613838,2.46599645 L16.264932,2.46599645 L16.22945,2.68598462 L16.22945,2.68598462 Z" id="Shape" fill="#FFFFFF"></path>
                    <path d="M15.0833826,2.19988173 L15.0833826,2.20342992 L15.1543465,2.27439385 L15.2217623,2.33116499 L15.2820816,2.38083974 L15.3459491,2.42696629 L15.4204613,2.46954465 L15.487877,2.50502661 L15.5517445,2.53341218 L15.6227085,2.56179775 L15.6901242,2.58308693 L15.7575399,2.60082791 L15.8391484,2.62211709 L15.9101124,2.63630988 L15.9846245,2.64695446 L16.0591366,2.66114725 L16.1442933,2.67179184 L16.22945,2.68598462 L16.264932,2.46599645 L16.1797753,2.45180367 L16.101715,2.44115908 L16.0272028,2.42696629 L15.9526907,2.4163217 L15.8817268,2.40212892 L15.8214075,2.38793613 L15.7610881,2.37019515 L15.6936724,2.34890597 L15.6439976,2.32761679 L15.5801301,2.29923122 L15.5269072,2.27084565 L15.4736842,2.24246008 L15.4169131,2.20342992 L15.3565937,2.15375517 L15.3033708,2.10408043 L15.2465996,2.04730928 L15.2465996,2.05085748 L15.0833826,2.19988173 L15.0833826,2.19988173 Z" id="Shape" fill="#FFFFFF"></path>
                    <path d="M14.0827912,2.21407451 L14.0827912,2.21052632 L14.1253696,2.17149616 L14.1750444,2.13601419 L14.2318155,2.10762862 L14.295683,2.08633944 L14.366647,2.06859846 L14.4411591,2.05440568 L14.5192194,2.04730928 L14.5972797,2.04730928 L14.67534,2.05085748 L14.7534004,2.06150207 L14.8243643,2.07924305 L14.9024246,2.10053223 L14.9591957,2.11827321 L15.0053223,2.14311059 L15.0443525,2.17149616 L15.0833826,2.19988173 L15.2465996,2.05085748 L15.1933767,2.00118273 L15.125961,1.95150798 L15.0443525,1.91247782 L14.9591957,1.88054406 L14.8811354,1.85925488 L14.7888823,1.8415139 L14.6966292,1.83086931 L14.5972797,1.82022472 L14.4979302,1.82732111 L14.4056771,1.8344175 L14.3098758,1.84861029 L14.2176227,1.87344766 L14.132466,1.90892963 L14.0473093,1.95150798 L13.9763454,2.00118273 L13.9124778,2.06859846 L13.9124778,2.06505027 L14.0827912,2.21407451 L14.0827912,2.21407451 Z" id="Shape" fill="#FFFFFF"></path>
                    <path d="M12.1738616,3.45594323 L12.1738616,3.45594323 L12.2909521,3.42046127 L12.4080426,3.37433471 L12.5322295,3.32465996 L12.6599645,3.26434063 L12.7806032,3.20047309 L12.9083383,3.13305736 L13.0360733,3.05499704 L13.1709048,2.97338853 L13.2950917,2.88823182 L13.4157303,2.8030751 L13.5399172,2.710822 L13.6570077,2.61856889 L13.7740982,2.5156712 L13.8805441,2.4198699 L13.9834418,2.31697221 L14.0827912,2.21407451 L13.9124778,2.06505027 L13.8273211,2.16085157 L13.7244234,2.25665287 L13.6179775,2.35245417 L13.5150798,2.44115908 L13.4050857,2.53341218 L13.2879953,2.61856889 L13.1673566,2.70372561 L13.0431697,2.78888232 L12.922531,2.86339444 L12.8018924,2.93435837 L12.6812537,3.0017741 L12.5535186,3.06564163 L12.4399763,3.11886458 L12.3228859,3.16853933 L12.2128918,3.20756949 L12.1099941,3.24305145 L12.1738616,3.45594323 L12.1738616,3.45594323 Z" id="Shape" fill="#FFFFFF"></path>
                    <path d="M11.7161443,4.09816677 L11.7161443,4.09816677 L11.7303371,3.99526907 L11.7374335,3.90301597 L11.7409817,3.81431106 L11.7445299,3.75044352 L11.7445299,3.69367238 L11.7445299,3.66528681 L11.7516263,3.62270846 L11.7551745,3.61206387 L11.7587226,3.60851567 L11.7693672,3.60141928 L11.7977528,3.5801301 L11.8332348,3.56238912 L11.8900059,3.54109994 L11.9609698,3.51981076 L12.0603193,3.49142519 L12.1738616,3.45594323 L12.1099941,3.24305145 L11.9893554,3.27853341 L11.8971023,3.30691898 L11.8048492,3.33530455 L11.7338853,3.36369012 L11.6700177,3.39562389 L11.6274394,3.42400946 L11.5813128,3.47368421 L11.5493791,3.52690716 L11.5316381,3.58722649 L11.5245417,3.62980485 L11.5174453,3.69367238 L11.5174453,3.75044352 L11.5138971,3.81431106 L11.5174453,3.88172679 L11.5103489,3.95978711 L11.4961561,4.0626848 L11.7161443,4.09816677 L11.7161443,4.09816677 Z" id="Shape" fill="#FFFFFF"></path>
                    <path d="M10.9319929,5.58840923 L10.9319929,5.58840923 L11.0136014,5.5138971 L11.0987581,5.42874039 L11.1697221,5.34713187 L11.240686,5.25842697 L11.3081017,5.16262567 L11.3648729,5.07037256 L11.421644,4.97102306 L11.4713187,4.87167357 L11.5174453,4.76877587 L11.5600237,4.66942637 L11.5955056,4.57007688 L11.6274394,4.46717918 L11.655825,4.37492608 L11.6806623,4.27557658 L11.7019515,4.19396807 L11.7161443,4.09816677 L11.4961561,4.0626848 L11.4819633,4.13719692 L11.4606742,4.22590183 L11.4429332,4.31105855 L11.4145476,4.40331165 L11.3826138,4.49201656 L11.3471319,4.59136606 L11.3116499,4.68361916 L11.2726198,4.77232407 L11.222945,4.86457717 L11.1732703,4.94973389 L11.1164991,5.04198699 L11.0632762,5.12359551 L10.9994086,5.20520402 L10.9355411,5.27971614 L10.8645772,5.35068007 L10.7900651,5.41099941 L10.9319929,5.58840923 L10.9319929,5.58840923 Z" id="Shape" fill="#FFFFFF"></path>
                    <path d="M10.0697812,6.8693081 L10.0697812,6.86575991 L10.0910704,6.74512123 L10.1194559,6.62803075 L10.1549379,6.51803666 L10.1975163,6.41868717 L10.2400946,6.31933767 L10.2933176,6.23772915 L10.3465405,6.14902425 L10.4033116,6.07806032 L10.463631,6.00709639 L10.5274985,5.93613247 L10.5913661,5.87581313 L10.6587818,5.81194559 L10.7261975,5.75517445 L10.7971614,5.69840331 L10.8645772,5.64163217 L10.9319929,5.58840923 L10.7900651,5.41099941 L10.7226493,5.46422235 L10.6552336,5.52099349 L10.5842697,5.57776464 L10.5097575,5.64163217 L10.4423418,5.7054997 L10.3713779,5.78001183 L10.300414,5.85807215 L10.2259018,5.93613247 L10.1620343,6.02838557 L10.101715,6.11709048 L10.0413956,6.21998817 L9.99172088,6.32643406 L9.94204613,6.43997635 L9.90656416,6.56416322 L9.8710822,6.69544648 L9.84979302,6.83737433 L9.84979302,6.83382614 L10.0697812,6.8693081 L10.0697812,6.8693081 Z" id="Shape" fill="#FFFFFF"></path>
                    <path d="M9.64044944,8.20342992 L9.64044944,8.19988173 L9.69012419,8.132466 L9.73625074,8.06150207 L9.7752809,7.98344175 L9.81076286,7.91247782 L9.84979302,7.82732111 L9.87817859,7.74926079 L9.90656416,7.67120047 L9.93494973,7.57894737 L9.95623891,7.49379066 L9.97752809,7.40863394 L9.99526907,7.32347723 L10.0130101,7.22412774 L10.0272028,7.13897102 L10.0413956,7.04671792 L10.0555884,6.95801301 L10.0697812,6.8693081 L9.84979302,6.83382614 L9.83560024,6.92253105 L9.82140745,7.01123596 L9.80721467,7.10348906 L9.79302188,7.18864577 L9.7752809,7.26670609 L9.75753992,7.3518628 L9.73625074,7.43701952 L9.71496156,7.52217623 L9.69367238,7.59314015 L9.66528681,7.67120047 L9.63690124,7.74926079 L9.61206387,7.81312833 L9.5765819,7.88409225 L9.54464814,7.94795979 L9.50561798,8.00473093 L9.46303962,8.06505027 L9.46303962,8.06150207 L9.64044944,8.20342992 L9.64044944,8.20342992 Z" id="Shape" fill="#FFFFFF"></path>
                    <path d="M9.14725015,8.92016558 L9.14725015,8.92371378 L9.17918391,8.85274985 L9.21466588,8.78178593 L9.25014784,8.72146659 L9.2856298,8.66114725 L9.32111177,8.60792431 L9.35304554,8.55824956 L9.3885275,8.50857481 L9.41691307,8.46954465 L9.44884684,8.42696629 L9.4807806,8.38793613 L9.51626257,8.34890597 L9.54464814,8.31342401 L9.56238912,8.29213483 L9.59787108,8.24955648 L9.61916026,8.2247191 L9.64044944,8.20342992 L9.46303962,8.06150207 L9.44175044,8.08988764 L9.42046127,8.11472501 L9.40626848,8.13601419 L9.36723832,8.17149616 L9.33885275,8.20697812 L9.31046718,8.24600828 L9.27853341,8.28503844 L9.24659965,8.32761679 L9.20402129,8.38083974 L9.16853933,8.43051449 L9.12950917,8.48728563 L9.08693081,8.55470136 L9.05144885,8.6150207 L9.01596688,8.68243643 L8.98048492,8.75340035 L8.94145476,8.83146067 L8.94145476,8.83500887 L9.14725015,8.92016558 L9.14725015,8.92016558 Z" id="Shape" fill="#FFFFFF"></path>
                    <path d="M8.7072738,9.56948551 L8.7072738,9.56948551 L8.74985216,9.53045535 L8.8030751,9.47723241 L8.83855707,9.43820225 L8.87403903,9.39562389 L8.90952099,9.35304554 L8.94500296,9.29982259 L8.97338853,9.25724423 L9.0017741,9.21111768 L9.03370787,9.15434654 L9.05499704,9.11531638 L9.07628622,9.07628622 L9.0975754,9.03015967 L9.11176818,8.9982259 L9.12241277,8.97338853 L9.12596097,8.95919574 L9.14725015,8.92016558 L8.94145476,8.83500887 L8.94145476,8.83855707 L8.92371378,8.87403903 L8.9059728,8.91306919 L8.89178001,8.94500296 L8.87758723,8.97693672 L8.85629805,9.01596688 L8.83500887,9.05499704 L8.81726789,9.08338261 L8.78888232,9.12950917 L8.76049675,9.17208752 L8.73920757,9.21111768 L8.70372561,9.25369604 L8.66824364,9.29627439 L8.63276168,9.33530455 L8.60792431,9.36014193 L8.56534595,9.39207569 L8.7072738,9.56948551 L8.7072738,9.56948551 Z" id="Shape" fill="#FFFFFF"></path>
                    <path d="M8.21052632,10.264932 L8.21052632,10.2613838 L8.23891189,10.1868717 L8.26374926,10.1194559 L8.29213483,10.0626848 L8.32761679,9.99881727 L8.35955056,9.94559432 L8.39503253,9.89237138 L8.4234181,9.85334122 L8.46244826,9.80366647 L8.49793022,9.76108811 L8.53341218,9.71850976 L8.56534595,9.69012419 L8.59018332,9.66883501 L8.62566529,9.64044944 L8.66114725,9.60141928 L8.67888823,9.59077469 L8.7072738,9.56948551 L8.56534595,9.39207569 L8.54405677,9.41336487 L8.50502661,9.44529864 L8.48373743,9.46303962 L8.44825547,9.49142519 L8.40922531,9.53400355 L8.36309876,9.5765819 L8.32761679,9.61916026 L8.29213483,9.66173862 L8.25310467,9.70431697 L8.20342992,9.7717327 L8.16794796,9.82495565 L8.1289178,9.89237138 L8.09343584,9.95623891 L8.05795387,10.0342992 L8.02602011,10.1088114 L7.99763454,10.1904199 L7.99763454,10.1868717 L8.21052632,10.264932 L8.21052632,10.264932 Z" id="Shape" fill="#FFFFFF"></path>
                    <path d="M7.66410408,11.4642224 L7.66410408,11.4677705 L7.71377883,11.386162 L7.75635719,11.3116499 L7.79893554,11.2371378 L7.8379657,11.1590775 L7.88054406,11.077469 L7.91602602,10.9994086 L7.95150798,10.9248965 L7.98698995,10.8468362 L8.02247191,10.7652277 L8.05085748,10.6907156 L8.07569486,10.6197516 L8.10408043,10.5487877 L8.132466,10.4742756 L8.15730337,10.4033116 L8.18214075,10.3358959 L8.21052632,10.264932 L7.99763454,10.1868717 L7.97634536,10.2507392 L7.95150798,10.3181549 L7.92667061,10.3891189 L7.89828504,10.463631 L7.86989947,10.5345949 L7.8379657,10.6126552 L7.80958013,10.6871674 L7.78119456,10.7545831 L7.7457126,10.8326434 L7.71023063,10.9071555 L7.67474867,10.9852158 L7.63926671,11.0526316 L7.60023655,11.1306919 L7.55765819,11.205204 L7.51507983,11.2797161 L7.47250148,11.3471319 L7.47250148,11.3506801 L7.66410408,11.4642224 L7.66410408,11.4642224 Z" id="Shape" fill="#FFFFFF"></path>
                    <path d="M7.2596097,12.922531 L7.2596097,12.9189829 L7.26670609,12.7983442 L7.27025429,12.6883501 L7.28444707,12.578356 L7.29509166,12.4719101 L7.31283264,12.379657 L7.33057363,12.2838557 L7.3518628,12.1916026 L7.37315198,12.1064459 L7.40153755,12.0248374 L7.42637493,11.9467771 L7.46185689,11.8616203 L7.49733885,11.7800118 L7.53282082,11.7054997 L7.57539917,11.6238912 L7.61442933,11.5493791 L7.66410408,11.4642224 L7.47250148,11.3506801 L7.42282673,11.4358368 L7.37670018,11.5245417 L7.33412182,11.6061502 L7.29154347,11.6948551 L7.2560615,11.7764636 L7.22057954,11.8616203 L7.18864577,11.9538734 L7.1602602,12.0425784 L7.13187463,12.1419279 L7.11058545,12.234181 L7.09284447,12.3299823 L7.07510349,12.4435245 L7.0644589,12.5499704 L7.05026611,12.6599645 L7.03962153,12.7841514 L7.03252513,12.9118865 L7.03252513,12.9083383 L7.2596097,12.922531 L7.2596097,12.922531 Z" id="Shape" fill="#FFFFFF"></path>
                    <path d="M7.20283856,15.9597871 L7.20283856,15.9597871 L7.19219397,15.8710822 L7.18864577,15.7859255 L7.18154938,15.6972206 L7.17800118,15.6085157 L7.17800118,15.523359 L7.17800118,15.4275577 L7.17445299,15.3353046 L7.17445299,15.2395033 L7.17445299,15.1401538 L7.17445299,15.0443525 L7.17445299,14.945003 L7.17445299,14.8456535 L7.17445299,14.746304 L7.17445299,14.6540509 L7.17800118,14.5511532 L7.18509758,14.4447073 L7.18509758,14.3453578 L7.18509758,14.2495565 L7.18864577,14.150207 L7.19574216,14.0508575 L7.19929036,13.951508 L7.20283856,13.8521585 L7.20993495,13.7563572 L7.21348315,13.6570077 L7.21703134,13.5612064 L7.22412774,13.4654051 L7.22767593,13.3696038 L7.23477232,13.2773507 L7.23832052,13.1886458 L7.24541691,13.0963927 L7.24896511,13.011236 L7.2596097,12.922531 L7.03252513,12.9083383 L7.02897694,12.9899468 L7.02542874,13.0821999 L7.01833235,13.174453 L7.01478415,13.2631579 L7.00768776,13.355411 L7.00413956,13.4512123 L6.99704317,13.5470136 L6.99349497,13.6428149 L6.98994678,13.7421644 L6.98285038,13.8379657 L6.97930219,13.9373152 L6.97575399,14.0366647 L6.9686576,14.1360142 L6.9651094,14.2353637 L6.95801301,14.3453578 L6.95801301,14.4447073 L6.95801301,14.5369604 L6.95446481,14.6398581 L6.94736842,14.746304 L6.94736842,14.8456535 L6.94736842,14.945003 L6.94736842,15.0443525 L6.94736842,15.1401538 L6.94736842,15.2395033 L6.94736842,15.3353046 L6.95091662,15.4275577 L6.95091662,15.523359 L6.95801301,15.6227085 L6.96156121,15.7114134 L6.9686576,15.8001183 L6.9722058,15.8923714 L6.97575399,15.9739799 L7.20283856,15.9597871 L7.20283856,15.9597871 Z" id="Shape" fill="#FFFFFF"></path>
                    <path d="M8.74275577,18.6422235 L8.74275577,18.6457717 L8.66469545,18.5677114 L8.58663513,18.4825547 L8.50857481,18.4009462 L8.43051449,18.3157895 L8.35600237,18.2306328 L8.28503844,18.1490242 L8.21407451,18.0603193 L8.14665878,17.9751626 L8.07569486,17.8864577 L8.01537552,17.8048492 L7.95505618,17.7196925 L7.89118865,17.6309876 L7.8344175,17.5458309 L7.77764636,17.457126 L7.72087522,17.3684211 L7.67120047,17.2868125 L7.62152572,17.1981076 L7.57185098,17.1094027 L7.52927262,17.0277942 L7.48314607,16.9355411 L7.44056771,16.8503844 L7.40863394,16.7723241 L7.37315198,16.680071 L7.34121821,16.5949143 L7.31283264,16.5168539 L7.28799527,16.428149 L7.26670609,16.3536369 L7.24896511,16.2684802 L7.23122413,16.1939681 L7.21703134,16.1123596 L7.20638675,16.0378474 L7.20283856,15.9597871 L6.97575399,15.9739799 L6.98639858,16.0591366 L6.99704317,16.1478415 L7.01123596,16.22945 L7.02897694,16.3252513 L7.04671792,16.410408 L7.07510349,16.499113 L7.09994086,16.5878179 L7.13542283,16.680071 L7.16735659,16.7652277 L7.20283856,16.8503844 L7.24186872,16.9497339 L7.28444707,17.0348906 L7.32347723,17.1200473 L7.37315198,17.2158486 L7.42282673,17.3045535 L7.47250148,17.3932584 L7.52927262,17.4890597 L7.58604376,17.5777646 L7.6428149,17.6664695 L7.70668244,17.7587226 L7.77054997,17.8474276 L7.8379657,17.9396807 L7.90538143,18.0283856 L7.97634536,18.1170905 L8.04376109,18.2022472 L8.11472501,18.2909521 L8.19278533,18.379657 L8.26729746,18.4648137 L8.34535778,18.5499704 L8.4234181,18.6315789 L8.50147842,18.7167357 L8.58663513,18.8018924 L8.58663513,18.8054406 L8.74275577,18.6422235 L8.74275577,18.6422235 Z" id="Shape" fill="#FFFFFF"></path>
                    <path d="M10.5771733,21.10822 L10.5771733,21.1046718 L10.5594323,21.0266115 L10.5345949,20.9379066 L10.5062093,20.8633944 L10.4778238,20.7853341 L10.4423418,20.7037256 L10.3997635,20.6185689 L10.3607333,20.5405086 L10.3181549,20.4659965 L10.2684802,20.3808397 L10.2188054,20.3027794 L10.1691307,20.2247191 L10.1123596,20.1395624 L10.0555884,20.0650503 L9.99172088,19.9834418 L9.93140154,19.9053814 L9.8710822,19.8273211 L9.80721467,19.752809 L9.73979894,19.6747487 L9.66883501,19.5966884 L9.59787108,19.518628 L9.53045535,19.4441159 L9.45949143,19.3696038 L9.3885275,19.2950917 L9.31756357,19.2205795 L9.24305145,19.1425192 L9.17208752,19.0715553 L9.0975754,18.9970432 L9.02661147,18.9260792 L8.95564755,18.8551153 L8.88468362,18.7841514 L8.81371969,18.7131875 L8.74275577,18.6422235 L8.58663513,18.8054406 L8.65759905,18.8693081 L8.72856298,18.940272 L8.79952691,19.011236 L8.87049083,19.0821999 L8.94145476,19.1531638 L9.01596688,19.2276759 L9.08693081,19.2986399 L9.15434654,19.3696038 L9.22531047,19.4441159 L9.29627439,19.518628 L9.36723832,19.5931402 L9.43465405,19.6676523 L9.50561798,19.7457126 L9.56238912,19.8166765 L9.62980485,19.8947368 L9.69367238,19.969249 L9.75399172,20.0473093 L9.81431106,20.1253696 L9.8710822,20.1998817 L9.92785334,20.2743938 L9.97752809,20.3453578 L10.0272028,20.4234181 L10.0768776,20.5014784 L10.1194559,20.5724423 L10.1620343,20.6469545 L10.2010645,20.7250148 L10.2365464,20.7959787 L10.264932,20.8633944 L10.2933176,20.9414548 L10.3217031,21.0159669 L10.3394441,21.0833826 L10.3571851,21.1543465 L10.3571851,21.1507983 L10.5771733,21.10822 L10.5771733,21.10822 Z" id="Shape" fill="#FFFFFF"></path>
                    <path d="M11.3613247,22.1904199 L11.3648729,22.1904199 L11.3151981,22.1691307 L11.2513306,22.1336487 L11.1981076,22.0910704 L11.1377883,22.0449438 L11.0810171,21.9810763 L11.0171496,21.9136606 L10.9532821,21.8356002 L10.8894145,21.7575399 L10.8361916,21.6794796 L10.7829687,21.5907747 L10.7368421,21.5091662 L10.6942637,21.4275577 L10.6516854,21.3388527 L10.6197516,21.2607924 L10.5984624,21.1827321 L10.5771733,21.10822 L10.3571851,21.1507983 L10.3784743,21.2395033 L10.4068598,21.3317564 L10.44589,21.4311059 L10.4884684,21.5198108 L10.5381431,21.6156121 L10.5913661,21.7114134 L10.6516854,21.8001183 L10.7120047,21.8923714 L10.7758723,21.9775281 L10.8397398,22.0555884 L10.9107037,22.1301005 L10.9816677,22.2010645 L11.0561798,22.2684802 L11.1377883,22.3252513 L11.2087522,22.3678297 L11.2868125,22.4033116 L11.2903607,22.4033116 L11.3613247,22.1904199 L11.3613247,22.1904199 Z" id="Shape" fill="#FFFFFF"></path>
                    <path d="M12.3264341,21.7717327 L12.3264341,21.7681845 L12.3051449,21.8391484 L12.2661147,21.903016 L12.2306328,21.9526907 L12.1703134,22.0023655 L12.1028977,22.048492 L12.0319338,22.0910704 L11.9538734,22.1230041 L11.8758131,22.1478415 L11.7906564,22.1691307 L11.7090479,22.1868717 L11.6309876,22.1975163 L11.5493791,22.2046127 L11.4855115,22.2010645 L11.4358368,22.2010645 L11.3826138,22.1975163 L11.3613247,22.1904199 L11.2903607,22.4033116 L11.3542283,22.4175044 L11.4074512,22.4210526 L11.4855115,22.428149 L11.5706682,22.4246008 L11.6522768,22.4175044 L11.7445299,22.4068598 L11.8403312,22.3891189 L11.9396807,22.3607333 L12.0390302,22.3287995 L12.1312833,22.2897694 L12.2235364,22.2400946 L12.3122413,22.1797753 L12.3867534,22.1088114 L12.4577173,22.0236546 L12.5109403,21.9243051 L12.5464222,21.8178593 L12.5464222,21.8143111 L12.3264341,21.7717327 L12.3264341,21.7717327 Z" id="Shape" fill="#FFFFFF"></path>
                    <path d="M12.0070964,20.7037256 L12.0070964,20.7037256 L12.0283856,20.7569486 L12.0532229,20.8243643 L12.0816085,20.8882318 L12.1099941,20.9591957 L12.1348315,21.0301597 L12.1667652,21.10822 L12.1951508,21.1862803 L12.2270846,21.2643406 L12.2519219,21.3494973 L12.2732111,21.4169131 L12.2945003,21.4949734 L12.3122413,21.5623891 L12.3264341,21.633353 L12.3335305,21.6901242 L12.3335305,21.7256062 L12.3264341,21.7717327 L12.5464222,21.8143111 L12.5535186,21.7539917 L12.5535186,21.668835 L12.5464222,21.5907747 L12.5322295,21.5198108 L12.5144885,21.4382022 L12.4931993,21.3601419 L12.4648137,21.271437 L12.4399763,21.1933767 L12.4080426,21.10822 L12.379657,21.0301597 L12.3477232,20.9520993 L12.3157895,20.874039 L12.2874039,20.8030751 L12.2590183,20.7321112 L12.2412774,20.6788882 L12.2199882,20.6256653 L12.0070964,20.7037256 L12.0070964,20.7037256 Z" id="Shape" fill="#FFFFFF"></path>
                    <path d="M11.9219397,19.6747487 L11.9219397,19.6747487 L11.9006505,19.7457126 L11.8900059,19.8202247 L11.8829095,19.8805441 L11.8793613,19.9444116 L11.8722649,20.0189237 L11.8793613,20.096984 L11.8829095,20.1608516 L11.8935541,20.2247191 L11.9006505,20.2885866 L11.9112951,20.3630988 L11.9254879,20.4234181 L11.9396807,20.4872856 L11.9538734,20.5440568 L11.9716144,20.6008279 L11.9858072,20.6505027 L12.0070964,20.7037256 L12.2199882,20.6256653 L12.2057954,20.5866351 L12.1916026,20.5369604 L12.1738616,20.4872856 L12.1596688,20.4305145 L12.145476,20.3737433 L12.1312833,20.313424 L12.1206387,20.2672975 L12.1135423,20.2034299 L12.1028977,20.1395624 L12.0993495,20.0756949 L12.0993495,20.0189237 L12.0993495,19.9657008 L12.1028977,19.9018332 L12.1099941,19.8415139 L12.1206387,19.7953873 L12.1348315,19.7457126 L11.9219397,19.6747487 L11.9219397,19.6747487 Z" id="Shape" fill="#FFFFFF"></path>
                    <path d="M12.180958,18.9331756 L12.180958,18.9367238 L12.180958,18.958013 L12.1774098,19.0005914 L12.1667652,19.0325251 L12.1561206,19.0786517 L12.1383797,19.1247782 L12.1312833,19.1638084 L12.1099941,19.2134831 L12.0922531,19.2631579 L12.0674157,19.3128326 L12.0461266,19.3660556 L12.0248374,19.4157303 L12.0035482,19.4689533 L11.982259,19.518628 L11.9609698,19.5683028 L11.9432289,19.6179775 L11.9219397,19.6747487 L12.1348315,19.7457126 L12.1490242,19.7031342 L12.1667652,19.6534595 L12.1880544,19.6037847 L12.2093436,19.55411 L12.2306328,19.500887 L12.2519219,19.4512123 L12.2732111,19.3979894 L12.2980485,19.3483146 L12.3157895,19.2986399 L12.3370787,19.2489651 L12.3583678,19.1886458 L12.3761088,19.1425192 L12.3867534,19.0963927 L12.397398,19.0360733 L12.4009462,18.993495 L12.4080426,18.9367238 L12.4080426,18.940272 L12.180958,18.9331756 L12.180958,18.9331756 Z" id="Shape" fill="#FFFFFF"></path>
                    <path d="M12.5286813,18.1774098 L12.5215849,18.180958 L12.5038439,18.2022472 L12.4719101,18.2377292 L12.4577173,18.2554701 L12.4222354,18.2945003 L12.397398,18.3264341 L12.3725606,18.361916 L12.344175,18.4080426 L12.3122413,18.4648137 L12.2909521,18.5073921 L12.2661147,18.560615 L12.2483737,18.6102898 L12.2235364,18.6777055 L12.2093436,18.7309284 L12.198699,18.7876996 L12.1880544,18.8657599 L12.180958,18.9331756 L12.4080426,18.940272 L12.4080426,18.8870491 L12.4186872,18.8444707 L12.4293318,18.7876996 L12.4435245,18.7344766 L12.4541691,18.6954465 L12.4719101,18.6457717 L12.4896511,18.6067416 L12.5109403,18.5641632 L12.5286813,18.5357776 L12.5499704,18.5038439 L12.5748078,18.4683619 L12.5996452,18.4364281 L12.613838,18.4115908 L12.6493199,18.3725606 L12.6599645,18.3583678 L12.6848019,18.3370787 L12.6777055,18.3406268 L12.5286813,18.1774098 L12.5286813,18.1774098 Z" id="Shape" fill="#FFFFFF"></path>
                    <path d="M13.1105855,17.3648729 L13.1105855,17.3648729 L13.0821999,17.4180958 L13.0538143,17.4748669 L13.0254287,17.5174453 L12.993495,17.5742164 L12.958013,17.6309876 L12.922531,17.6877587 L12.8870491,17.7445299 L12.8551153,17.7906564 L12.8160852,17.8474276 L12.7735068,17.9006505 L12.7380248,17.9467771 L12.6954465,17.9964518 L12.6528681,18.0461266 L12.6067416,18.0958013 L12.5712596,18.1383797 L12.5286813,18.1774098 L12.6777055,18.3406268 L12.7273802,18.2945003 L12.777055,18.2448255 L12.8231815,18.1951508 L12.8657599,18.145476 L12.9083383,18.0958013 L12.9509166,18.035482 L12.993495,17.982259 L13.0325251,17.9254879 L13.0786517,17.8651685 L13.1141336,17.8083974 L13.1496156,17.7516263 L13.1850976,17.6948551 L13.2170313,17.638084 L13.2525133,17.5742164 L13.2808989,17.5174453 L13.3092844,17.4642224 L13.1105855,17.3648729 L13.1105855,17.3648729 Z" id="Shape" fill="#FFFFFF"></path>
                    <path d="M14.0189237,16.3217031 L14.0224719,16.3181549 L13.9657008,16.3678297 L13.9053814,16.428149 L13.8486103,16.4742756 L13.788291,16.5310467 L13.7279716,16.5878179 L13.6641041,16.6552336 L13.6002365,16.7155529 L13.536369,16.7794205 L13.4760497,16.8468362 L13.4192785,16.9107037 L13.3589592,16.9816677 L13.3021881,17.0561798 L13.2525133,17.1271437 L13.1992904,17.205204 L13.1531638,17.2868125 L13.1105855,17.3648729 L13.3092844,17.4642224 L13.3518628,17.3932584 L13.390893,17.3258427 L13.4370195,17.2548788 L13.4866943,17.1839148 L13.536369,17.1235955 L13.589592,17.059728 L13.6463631,16.9958604 L13.7066824,16.9284447 L13.7563572,16.8716736 L13.8202247,16.8113542 L13.8769959,16.7581313 L13.9373152,16.7013601 L13.9976345,16.644589 L14.0615021,16.5842697 L14.114725,16.5381431 L14.1714962,16.4884684 L14.1750444,16.4849202 L14.0189237,16.3217031 L14.0189237,16.3217031 Z" id="Shape" fill="#FFFFFF"></path>
                    <path d="M14.8846836,14.6434063 L14.8846836,14.6398581 L14.8846836,14.710822 L14.8811354,14.7817859 L14.8811354,14.856298 L14.8811354,14.927262 L14.8704908,15.0053223 L14.856298,15.0869308 L14.8350089,15.1756357 L14.8030751,15.271437 L14.7640449,15.3707865 L14.710822,15.4772324 L14.6434063,15.5978711 L14.5617978,15.7185098 L14.4553519,15.8568894 L14.3347132,16.0023655 L14.1892371,16.1549379 L14.0189237,16.3217031 L14.1750444,16.4849202 L14.3453578,16.3110585 L14.4979302,16.1513897 L14.6327617,15.9988173 L14.7392076,15.8533412 L14.8350089,15.7114134 L14.909521,15.5836783 L14.9698403,15.4630396 L15.0159669,15.3424009 L15.0479007,15.2395033 L15.0762862,15.1366056 L15.090479,15.0408043 L15.1011236,14.9485512 L15.10822,14.856298 L15.10822,14.7817859 L15.1117682,14.710822 L15.1117682,14.6469545 L15.1117682,14.6434063 L14.8846836,14.6434063 L14.8846836,14.6434063 Z" id="Shape" fill="#FFFFFF"></path>
                    <path d="M15.0124187,12.6173862 L15.0159669,12.6173862 L14.9875813,12.7202839 L14.9662921,12.8267297 L14.9520993,12.9473684 L14.9379066,13.0644589 L14.9237138,13.1850976 L14.9130692,13.3163808 L14.9059728,13.4441159 L14.8988764,13.5753992 L14.8953282,13.7066824 L14.89178,13.8486103 L14.89178,13.9834418 L14.8882318,14.1182732 L14.8882318,14.2531047 L14.8882318,14.3843879 L14.8846836,14.5156712 L14.8846836,14.6434063 L15.1117682,14.6434063 L15.1117682,14.5156712 L15.1153164,14.3843879 L15.1153164,14.2531047 L15.1153164,14.1182732 L15.1188646,13.9834418 L15.1188646,13.8486103 L15.1224128,13.7208752 L15.125961,13.589592 L15.1330574,13.4583087 L15.1401538,13.3305736 L15.143702,13.2134831 L15.1578947,13.0928445 L15.1720875,12.975754 L15.1862803,12.8693081 L15.2075695,12.7699586 L15.2288587,12.6741573 L15.2324069,12.6741573 L15.0124187,12.6173862 L15.0124187,12.6173862 Z" id="Shape" fill="#FFFFFF"></path>
                    <path d="M15.3211118,11.6309876 L15.3211118,11.6309876 L15.3140154,11.6664695 L15.2998226,11.7161443 L15.2856298,11.7729154 L15.271437,11.8261384 L15.2572442,11.8722649 L15.2359551,11.9361325 L15.2146659,11.9964518 L15.1933767,12.0567711 L15.1685393,12.1241869 L15.1472501,12.1880544 L15.1224128,12.2590183 L15.1011236,12.3264341 L15.0762862,12.397398 L15.054997,12.4683619 L15.0337079,12.5393258 L15.0124187,12.6173862 L15.2324069,12.6741573 L15.2465996,12.6031934 L15.2678888,12.5322295 L15.289178,12.4612655 L15.3140154,12.3903016 L15.3353046,12.3228859 L15.3601419,12.2590183 L15.3814311,12.1951508 L15.4062685,12.1277351 L15.4275577,12.0674157 L15.4488468,12.0070964 L15.470136,11.9503253 L15.4914252,11.8829095 L15.505618,11.8296866 L15.5198108,11.7800118 L15.5340035,11.7303371 L15.5410999,11.6664695 L15.3211118,11.6309876 L15.3211118,11.6309876 Z" id="Shape" fill="#FFFFFF"></path>
                </g>
            </g>
        </g>
    </g>
</svg>