<?xml version="1.0" encoding="UTF-8" standalone="no"?>
<svg width="160px" height="160px" viewBox="0 0 160 160" version="1.1" xmlns="http://www.w3.org/2000/svg" xmlns:xlink="http://www.w3.org/1999/xlink" xmlns:sketch="http://www.bohemiancoding.com/sketch/ns">
    <title>Untitled</title>
    <description>Created with Sketch (http://www.bohemiancoding.com/sketch)</description>
    <defs>
        <filter x="-20%" y="-20%" width="140%" height="140%" filterUnits="objectBoundingBox" id="filter-1">
            <feOffset dx="0" dy="2" in="SourceAlpha" result="shadowOffsetOuter1"></feOffset>
            <feGaussianBlur stdDeviation="2" in="shadowOffsetOuter1" result="shadowBlurOuter1"></feGaussianBlur>
            <feColorMatrix values="0 0 0 0 0   0 0 0 0 0   0 0 0 0 0  0 0 0 0.7 0" in="shadowBlurOuter1" type="matrix" result="shadowMatrixOuter1"></feColorMatrix>
            <feMerge>
                <feMergeNode in="shadowMatrixOuter1"></feMergeNode>
                <feMergeNode in="SourceGraphic"></feMergeNode>
            </feMerge>
        </filter>
    </defs>
    <g id="Page-1" stroke="none" stroke-width="1" fill="none" fill-rule="evenodd" sketch:type="MSPage">
        <path d="M1.35,27.9 L24,135 L60,135 L83.1,27.9 L53.4,27.9 L42.15,108.6 L41.85,108.6 L30.6,27.9 L1.35,27.9 Z M129.3,58.8 L155.4,58.8 C155.4,47.2999425 152.675027,38.9250263 147.225,33.675 C141.774973,28.4249738 132.950061,25.8 120.75,25.8 C108.949941,25.8 100.150029,28.6499715 94.35,34.35 C88.549971,40.0500285 85.65,48.3499455 85.65,59.25 C85.65,65.5500315 86.7249893,70.6499805 88.875,74.55 C91.0250108,78.4500195 93.7249838,81.599988 96.975,84 C100.225016,86.400012 103.749981,88.3499925 107.55,89.85 C111.350019,91.3500075 114.874984,92.8249928 118.125,94.275 C121.375016,95.7250073 124.074989,97.4749898 126.225,99.525 C128.375011,101.57501 129.45,104.349983 129.45,107.85 C129.45,110.750015 128.675008,113.19999 127.125,115.2 C125.574992,117.20001 123.350015,118.2 120.45,118.2 C117.749987,118.2 115.550009,117.275009 113.85,115.425 C112.149992,113.574991 111.3,110.350023 111.3,105.75 L111.3,103.2 L84.3,103.2 L84.3,106.95 C84.3,112.550028 85.099992,117.249981 86.7,121.05 C88.300008,124.850019 90.6249848,127.924988 93.675,130.275 C96.7250153,132.625012 100.474978,134.274995 104.925,135.225 C109.375022,136.175005 114.499971,136.65 120.3,136.65 C132.600062,136.65 141.999967,134.075026 148.5,128.925 C155.000033,123.774974 158.25,115.500057 158.25,104.1 C158.25,97.5999675 157.125011,92.3250203 154.875,88.275 C152.624989,84.2249798 149.800017,80.9500125 146.4,78.45 C142.999983,75.9499875 139.35002,73.9250078 135.45,72.375 C131.549981,70.8249922 127.900017,69.3000075 124.5,67.8 C121.099983,66.2999925 118.275011,64.5250103 116.025,62.475 C113.774989,60.4249898 112.65,57.6500175 112.65,54.15 C112.65,51.749988 113.349993,49.5750098 114.75,47.625 C116.150007,45.6749903 118.349985,44.7 121.35,44.7 C124.050014,44.7 126.049994,45.8249888 127.35,48.075 C128.650007,50.3250113 129.3,53.049984 129.3,56.25 L129.3,58.8 Z" id="VS" fill="#FFFFFF" filter="url(#filter-1)" sketch:type="MSShapeGroup"></path>
    </g>
</svg>